<?xml version="1.0" encoding="UTF-8" ?>
<svg version="1.1" width="64" height="64" xmlns="http://www.w3.org/2000/svg" shape-rendering="crispEdges">
<rect x="15" y="5" width="1" height="1" fill="#FEAAE4" />
<rect x="16" y="5" width="1" height="1" fill="#FEAAE4" />
<rect x="17" y="5" width="1" height="1" fill="#FEAAE4" />
<rect x="18" y="5" width="1" height="1" fill="#FEAAE4" />
<rect x="19" y="5" width="1" height="1" fill="#FEAAE4" />
<rect x="20" y="5" width="1" height="1" fill="#FEAAE4" />
<rect x="21" y="5" width="1" height="1" fill="#FEAAE4" />
<rect x="42" y="5" width="1" height="1" fill="#FEAAE4" />
<rect x="43" y="5" width="1" height="1" fill="#FEAAE4" />
<rect x="44" y="5" width="1" height="1" fill="#FEAAE4" />
<rect x="45" y="5" width="1" height="1" fill="#FEAAE4" />
<rect x="46" y="5" width="1" height="1" fill="#FEAAE4" />
<rect x="47" y="5" width="1" height="1" fill="#FEAAE4" />
<rect x="48" y="5" width="1" height="1" fill="#FEAAE4" />
<rect x="11" y="6" width="1" height="1" fill="#FEAAE4" />
<rect x="12" y="6" width="1" height="1" fill="#FEAAE4" />
<rect x="13" y="6" width="1" height="1" fill="#FEAAE4" />
<rect x="14" y="6" width="1" height="1" fill="#FEAAE4" />
<rect x="15" y="6" width="1" height="1" fill="#FEAAE4" />
<rect x="16" y="6" width="1" height="1" fill="#FEAAE4" />
<rect x="17" y="6" width="1" height="1" fill="#FEAAE4" />
<rect x="18" y="6" width="1" height="1" fill="#FEAAE4" />
<rect x="19" y="6" width="1" height="1" fill="#FEAAE4" />
<rect x="20" y="6" width="1" height="1" fill="#FEAAE4" />
<rect x="21" y="6" width="1" height="1" fill="#FEAAE4" />
<rect x="22" y="6" width="1" height="1" fill="#FEAAE4" />
<rect x="23" y="6" width="1" height="1" fill="#FEAAE4" />
<rect x="24" y="6" width="1" height="1" fill="#FEAAE4" />
<rect x="39" y="6" width="1" height="1" fill="#FEAAE4" />
<rect x="40" y="6" width="1" height="1" fill="#FEAAE4" />
<rect x="41" y="6" width="1" height="1" fill="#FEAAE4" />
<rect x="42" y="6" width="1" height="1" fill="#FEAAE4" />
<rect x="43" y="6" width="1" height="1" fill="#FEAAE4" />
<rect x="44" y="6" width="1" height="1" fill="#FEAAE4" />
<rect x="45" y="6" width="1" height="1" fill="#FEAAE4" />
<rect x="46" y="6" width="1" height="1" fill="#FEAAE4" />
<rect x="47" y="6" width="1" height="1" fill="#FEAAE4" />
<rect x="48" y="6" width="1" height="1" fill="#FEAAE4" />
<rect x="49" y="6" width="1" height="1" fill="#FEAAE4" />
<rect x="50" y="6" width="1" height="1" fill="#FEAAE4" />
<rect x="51" y="6" width="1" height="1" fill="#FEAAE4" />
<rect x="52" y="6" width="1" height="1" fill="#FEAAE4" />
<rect x="9" y="7" width="1" height="1" fill="#FEAAE4" />
<rect x="10" y="7" width="1" height="1" fill="#FEAAE4" />
<rect x="11" y="7" width="1" height="1" fill="#FEAAE4" />
<rect x="12" y="7" width="1" height="1" fill="#FEAAE4" />
<rect x="13" y="7" width="1" height="1" fill="#FEAAE4" />
<rect x="14" y="7" width="1" height="1" fill="#FEAAE4" />
<rect x="15" y="7" width="1" height="1" fill="#FEAAE4" />
<rect x="16" y="7" width="1" height="1" fill="#FEAAE4" />
<rect x="17" y="7" width="1" height="1" fill="#FEAAE4" />
<rect x="18" y="7" width="1" height="1" fill="#FEAAE4" />
<rect x="19" y="7" width="1" height="1" fill="#FEAAE4" />
<rect x="20" y="7" width="1" height="1" fill="#FEAAE4" />
<rect x="21" y="7" width="1" height="1" fill="#FEAAE4" />
<rect x="22" y="7" width="1" height="1" fill="#FEAAE4" />
<rect x="23" y="7" width="1" height="1" fill="#FEAAE4" />
<rect x="24" y="7" width="1" height="1" fill="#FEAAE4" />
<rect x="25" y="7" width="1" height="1" fill="#FEAAE4" />
<rect x="26" y="7" width="1" height="1" fill="#FEAAE4" />
<rect x="37" y="7" width="1" height="1" fill="#FEAAE4" />
<rect x="38" y="7" width="1" height="1" fill="#FEAAE4" />
<rect x="39" y="7" width="1" height="1" fill="#FEAAE4" />
<rect x="40" y="7" width="1" height="1" fill="#FEAAE4" />
<rect x="41" y="7" width="1" height="1" fill="#FEAAE4" />
<rect x="42" y="7" width="1" height="1" fill="#FEAAE4" />
<rect x="43" y="7" width="1" height="1" fill="#FEAAE4" />
<rect x="44" y="7" width="1" height="1" fill="#FEAAE4" />
<rect x="45" y="7" width="1" height="1" fill="#FEAAE4" />
<rect x="46" y="7" width="1" height="1" fill="#FEAAE4" />
<rect x="47" y="7" width="1" height="1" fill="#FEAAE4" />
<rect x="48" y="7" width="1" height="1" fill="#FEAAE4" />
<rect x="49" y="7" width="1" height="1" fill="#FEAAE4" />
<rect x="50" y="7" width="1" height="1" fill="#FEAAE4" />
<rect x="51" y="7" width="1" height="1" fill="#FEAAE4" />
<rect x="52" y="7" width="1" height="1" fill="#FEAAE4" />
<rect x="53" y="7" width="1" height="1" fill="#FEAAE4" />
<rect x="54" y="7" width="1" height="1" fill="#FEAAE4" />
<rect x="8" y="8" width="1" height="1" fill="#FEAAE4" />
<rect x="9" y="8" width="1" height="1" fill="#FEAAE4" />
<rect x="10" y="8" width="1" height="1" fill="#FEAAE4" />
<rect x="11" y="8" width="1" height="1" fill="#FEAAE4" />
<rect x="12" y="8" width="1" height="1" fill="#FEAAE4" />
<rect x="13" y="8" width="1" height="1" fill="#FEAAE4" />
<rect x="14" y="8" width="1" height="1" fill="#FEAAE4" />
<rect x="15" y="8" width="1" height="1" fill="#FEAAE4" />
<rect x="16" y="8" width="1" height="1" fill="#FEAAE4" />
<rect x="17" y="8" width="1" height="1" fill="#FEAAE4" />
<rect x="18" y="8" width="1" height="1" fill="#FEAAE4" />
<rect x="19" y="8" width="1" height="1" fill="#FEAAE4" />
<rect x="20" y="8" width="1" height="1" fill="#FEAAE4" />
<rect x="21" y="8" width="1" height="1" fill="#FEAAE4" />
<rect x="22" y="8" width="1" height="1" fill="#FEAAE4" />
<rect x="23" y="8" width="1" height="1" fill="#FEAAE4" />
<rect x="24" y="8" width="1" height="1" fill="#FEAAE4" />
<rect x="25" y="8" width="1" height="1" fill="#FEAAE4" />
<rect x="26" y="8" width="1" height="1" fill="#FEAAE4" />
<rect x="27" y="8" width="1" height="1" fill="#FEAAE4" />
<rect x="28" y="8" width="1" height="1" fill="#FEAAE4" />
<rect x="35" y="8" width="1" height="1" fill="#FEAAE4" />
<rect x="36" y="8" width="1" height="1" fill="#FEAAE4" />
<rect x="37" y="8" width="1" height="1" fill="#FEAAE4" />
<rect x="38" y="8" width="1" height="1" fill="#FEAAE4" />
<rect x="39" y="8" width="1" height="1" fill="#FEAAE4" />
<rect x="40" y="8" width="1" height="1" fill="#FEAAE4" />
<rect x="41" y="8" width="1" height="1" fill="#FEAAE4" />
<rect x="42" y="8" width="1" height="1" fill="#FEAAE4" />
<rect x="43" y="8" width="1" height="1" fill="#FEAAE4" />
<rect x="44" y="8" width="1" height="1" fill="#FEAAE4" />
<rect x="45" y="8" width="1" height="1" fill="#FEAAE4" />
<rect x="46" y="8" width="1" height="1" fill="#FEAAE4" />
<rect x="47" y="8" width="1" height="1" fill="#FEAAE4" />
<rect x="48" y="8" width="1" height="1" fill="#FEAAE4" />
<rect x="49" y="8" width="1" height="1" fill="#FEAAE4" />
<rect x="50" y="8" width="1" height="1" fill="#FEAAE4" />
<rect x="51" y="8" width="1" height="1" fill="#FEAAE4" />
<rect x="52" y="8" width="1" height="1" fill="#FEAAE4" />
<rect x="53" y="8" width="1" height="1" fill="#FEAAE4" />
<rect x="54" y="8" width="1" height="1" fill="#FEAAE4" />
<rect x="55" y="8" width="1" height="1" fill="#FEAAE4" />
<rect x="6" y="9" width="1" height="1" fill="#FEAAE4" />
<rect x="7" y="9" width="1" height="1" fill="#FEAAE4" />
<rect x="8" y="9" width="1" height="1" fill="#FEAAE4" />
<rect x="9" y="9" width="1" height="1" fill="#FEAAE4" />
<rect x="10" y="9" width="1" height="1" fill="#FEAAE4" />
<rect x="11" y="9" width="1" height="1" fill="#FEAAE4" />
<rect x="12" y="9" width="1" height="1" fill="#FEAAE4" />
<rect x="13" y="9" width="1" height="1" fill="#FEAAE4" />
<rect x="14" y="9" width="1" height="1" fill="#FEAAE4" />
<rect x="21" y="9" width="1" height="1" fill="#FEAAE4" />
<rect x="22" y="9" width="1" height="1" fill="#FEAAE4" />
<rect x="23" y="9" width="1" height="1" fill="#FEAAE4" />
<rect x="24" y="9" width="1" height="1" fill="#FEAAE4" />
<rect x="25" y="9" width="1" height="1" fill="#FEAAE4" />
<rect x="26" y="9" width="1" height="1" fill="#FEAAE4" />
<rect x="27" y="9" width="1" height="1" fill="#FEAAE4" />
<rect x="28" y="9" width="1" height="1" fill="#FEAAE4" />
<rect x="29" y="9" width="1" height="1" fill="#FEAAE4" />
<rect x="34" y="9" width="1" height="1" fill="#FEAAE4" />
<rect x="35" y="9" width="1" height="1" fill="#FEAAE4" />
<rect x="36" y="9" width="1" height="1" fill="#FEAAE4" />
<rect x="37" y="9" width="1" height="1" fill="#FEAAE4" />
<rect x="38" y="9" width="1" height="1" fill="#FEAAE4" />
<rect x="39" y="9" width="1" height="1" fill="#FEAAE4" />
<rect x="40" y="9" width="1" height="1" fill="#FEAAE4" />
<rect x="41" y="9" width="1" height="1" fill="#FEAAE4" />
<rect x="42" y="9" width="1" height="1" fill="#FEAAE4" />
<rect x="49" y="9" width="1" height="1" fill="#FEAAE4" />
<rect x="50" y="9" width="1" height="1" fill="#FEAAE4" />
<rect x="51" y="9" width="1" height="1" fill="#FEAAE4" />
<rect x="52" y="9" width="1" height="1" fill="#FEAAE4" />
<rect x="53" y="9" width="1" height="1" fill="#FEAAE4" />
<rect x="54" y="9" width="1" height="1" fill="#FEAAE4" />
<rect x="55" y="9" width="1" height="1" fill="#FEAAE4" />
<rect x="56" y="9" width="1" height="1" fill="#FEAAE4" />
<rect x="57" y="9" width="1" height="1" fill="#FEAAE4" />
<rect x="5" y="10" width="1" height="1" fill="#FEAAE4" />
<rect x="6" y="10" width="1" height="1" fill="#FEAAE4" />
<rect x="7" y="10" width="1" height="1" fill="#FEAAE4" />
<rect x="8" y="10" width="1" height="1" fill="#FEAAE4" />
<rect x="9" y="10" width="1" height="1" fill="#FEAAE4" />
<rect x="10" y="10" width="1" height="1" fill="#FEAAE4" />
<rect x="11" y="10" width="1" height="1" fill="#FEAAE4" />
<rect x="24" y="10" width="1" height="1" fill="#FEAAE4" />
<rect x="25" y="10" width="1" height="1" fill="#FEAAE4" />
<rect x="26" y="10" width="1" height="1" fill="#FEAAE4" />
<rect x="27" y="10" width="1" height="1" fill="#FEAAE4" />
<rect x="28" y="10" width="1" height="1" fill="#FEAAE4" />
<rect x="29" y="10" width="1" height="1" fill="#FEAAE4" />
<rect x="30" y="10" width="1" height="1" fill="#FEAAE4" />
<rect x="33" y="10" width="1" height="1" fill="#FEAAE4" />
<rect x="34" y="10" width="1" height="1" fill="#FEAAE4" />
<rect x="35" y="10" width="1" height="1" fill="#FEAAE4" />
<rect x="36" y="10" width="1" height="1" fill="#FEAAE4" />
<rect x="37" y="10" width="1" height="1" fill="#FEAAE4" />
<rect x="38" y="10" width="1" height="1" fill="#FEAAE4" />
<rect x="39" y="10" width="1" height="1" fill="#FEAAE4" />
<rect x="52" y="10" width="1" height="1" fill="#FEAAE4" />
<rect x="53" y="10" width="1" height="1" fill="#FEAAE4" />
<rect x="54" y="10" width="1" height="1" fill="#FEAAE4" />
<rect x="55" y="10" width="1" height="1" fill="#FEAAE4" />
<rect x="56" y="10" width="1" height="1" fill="#FEAAE4" />
<rect x="57" y="10" width="1" height="1" fill="#FEAAE4" />
<rect x="58" y="10" width="1" height="1" fill="#FEAAE4" />
<rect x="4" y="11" width="1" height="1" fill="#FEAAE4" />
<rect x="5" y="11" width="1" height="1" fill="#FEAAE4" />
<rect x="6" y="11" width="1" height="1" fill="#FEAAE4" />
<rect x="7" y="11" width="1" height="1" fill="#FEAAE4" />
<rect x="8" y="11" width="1" height="1" fill="#FEAAE4" />
<rect x="9" y="11" width="1" height="1" fill="#FEAAE4" />
<rect x="26" y="11" width="1" height="1" fill="#FEAAE4" />
<rect x="27" y="11" width="1" height="1" fill="#FEAAE4" />
<rect x="28" y="11" width="1" height="1" fill="#FEAAE4" />
<rect x="29" y="11" width="1" height="1" fill="#FEAAE4" />
<rect x="30" y="11" width="1" height="1" fill="#FEAAE4" />
<rect x="31" y="11" width="1" height="1" fill="#FEAAE4" />
<rect x="32" y="11" width="1" height="1" fill="#FEAAE4" />
<rect x="33" y="11" width="1" height="1" fill="#FEAAE4" />
<rect x="34" y="11" width="1" height="1" fill="#FEAAE4" />
<rect x="35" y="11" width="1" height="1" fill="#FEAAE4" />
<rect x="36" y="11" width="1" height="1" fill="#FEAAE4" />
<rect x="37" y="11" width="1" height="1" fill="#FEAAE4" />
<rect x="54" y="11" width="1" height="1" fill="#FEAAE4" />
<rect x="55" y="11" width="1" height="1" fill="#FEAAE4" />
<rect x="56" y="11" width="1" height="1" fill="#FEAAE4" />
<rect x="57" y="11" width="1" height="1" fill="#FEAAE4" />
<rect x="58" y="11" width="1" height="1" fill="#FEAAE4" />
<rect x="59" y="11" width="1" height="1" fill="#FEAAE4" />
<rect x="3" y="12" width="1" height="1" fill="#FEAAE4" />
<rect x="4" y="12" width="1" height="1" fill="#FEAAE4" />
<rect x="5" y="12" width="1" height="1" fill="#FEAAE4" />
<rect x="6" y="12" width="1" height="1" fill="#FEAAE4" />
<rect x="7" y="12" width="1" height="1" fill="#FEAAE4" />
<rect x="8" y="12" width="1" height="1" fill="#FEAAE4" />
<rect x="27" y="12" width="1" height="1" fill="#FEAAE4" />
<rect x="28" y="12" width="1" height="1" fill="#FEAAE4" />
<rect x="29" y="12" width="1" height="1" fill="#FEAAE4" />
<rect x="30" y="12" width="1" height="1" fill="#FEAAE4" />
<rect x="31" y="12" width="1" height="1" fill="#FEAAE4" />
<rect x="32" y="12" width="1" height="1" fill="#FEAAE4" />
<rect x="33" y="12" width="1" height="1" fill="#FEAAE4" />
<rect x="34" y="12" width="1" height="1" fill="#FEAAE4" />
<rect x="35" y="12" width="1" height="1" fill="#FEAAE4" />
<rect x="36" y="12" width="1" height="1" fill="#FEAAE4" />
<rect x="55" y="12" width="1" height="1" fill="#FEAAE4" />
<rect x="56" y="12" width="1" height="1" fill="#FEAAE4" />
<rect x="57" y="12" width="1" height="1" fill="#FEAAE4" />
<rect x="58" y="12" width="1" height="1" fill="#FEAAE4" />
<rect x="59" y="12" width="1" height="1" fill="#FEAAE4" />
<rect x="60" y="12" width="1" height="1" fill="#FEAAE4" />
<rect x="3" y="13" width="1" height="1" fill="#FEAAE4" />
<rect x="4" y="13" width="1" height="1" fill="#FEAAE4" />
<rect x="5" y="13" width="1" height="1" fill="#FEAAE4" />
<rect x="6" y="13" width="1" height="1" fill="#FEAAE4" />
<rect x="7" y="13" width="1" height="1" fill="#FEAAE4" />
<rect x="29" y="13" width="1" height="1" fill="#FEAAE4" />
<rect x="30" y="13" width="1" height="1" fill="#FEAAE4" />
<rect x="31" y="13" width="1" height="1" fill="#FEAAE4" />
<rect x="32" y="13" width="1" height="1" fill="#FEAAE4" />
<rect x="33" y="13" width="1" height="1" fill="#FEAAE4" />
<rect x="34" y="13" width="1" height="1" fill="#FEAAE4" />
<rect x="56" y="13" width="1" height="1" fill="#FEAAE4" />
<rect x="57" y="13" width="1" height="1" fill="#FEAAE4" />
<rect x="58" y="13" width="1" height="1" fill="#FEAAE4" />
<rect x="59" y="13" width="1" height="1" fill="#FEAAE4" />
<rect x="60" y="13" width="1" height="1" fill="#FEAAE4" />
<rect x="2" y="14" width="1" height="1" fill="#FEAAE4" />
<rect x="3" y="14" width="1" height="1" fill="#FEAAE4" />
<rect x="4" y="14" width="1" height="1" fill="#FEAAE4" />
<rect x="5" y="14" width="1" height="1" fill="#FEAAE4" />
<rect x="6" y="14" width="1" height="1" fill="#FEAAE4" />
<rect x="29" y="14" width="1" height="1" fill="#FEAAE4" />
<rect x="30" y="14" width="1" height="1" fill="#FEAAE4" />
<rect x="31" y="14" width="1" height="1" fill="#FEAAE4" />
<rect x="32" y="14" width="1" height="1" fill="#FEAAE4" />
<rect x="33" y="14" width="1" height="1" fill="#FEAAE4" />
<rect x="34" y="14" width="1" height="1" fill="#FEAAE4" />
<rect x="57" y="14" width="1" height="1" fill="#FEAAE4" />
<rect x="58" y="14" width="1" height="1" fill="#FEAAE4" />
<rect x="59" y="14" width="1" height="1" fill="#FEAAE4" />
<rect x="60" y="14" width="1" height="1" fill="#FEAAE4" />
<rect x="61" y="14" width="1" height="1" fill="#FEAAE4" />
<rect x="2" y="15" width="1" height="1" fill="#FEAAE4" />
<rect x="3" y="15" width="1" height="1" fill="#FEAAE4" />
<rect x="4" y="15" width="1" height="1" fill="#FEAAE4" />
<rect x="5" y="15" width="1" height="1" fill="#FEAAE4" />
<rect x="30" y="15" width="1" height="1" fill="#FEAAE4" />
<rect x="31" y="15" width="1" height="1" fill="#FEAAE4" />
<rect x="32" y="15" width="1" height="1" fill="#FEAAE4" />
<rect x="33" y="15" width="1" height="1" fill="#FEAAE4" />
<rect x="58" y="15" width="1" height="1" fill="#FEAAE4" />
<rect x="59" y="15" width="1" height="1" fill="#FEAAE4" />
<rect x="60" y="15" width="1" height="1" fill="#FEAAE4" />
<rect x="61" y="15" width="1" height="1" fill="#FEAAE4" />
<rect x="1" y="16" width="1" height="1" fill="#FEAAE4" />
<rect x="2" y="16" width="1" height="1" fill="#FEAAE4" />
<rect x="3" y="16" width="1" height="1" fill="#FEAAE4" />
<rect x="4" y="16" width="1" height="1" fill="#FEAAE4" />
<rect x="5" y="16" width="1" height="1" fill="#FEAAE4" />
<rect x="58" y="16" width="1" height="1" fill="#FEAAE4" />
<rect x="59" y="16" width="1" height="1" fill="#FEAAE4" />
<rect x="60" y="16" width="1" height="1" fill="#FEAAE4" />
<rect x="61" y="16" width="1" height="1" fill="#FEAAE4" />
<rect x="62" y="16" width="1" height="1" fill="#FEAAE4" />
<rect x="1" y="17" width="1" height="1" fill="#FEAAE4" />
<rect x="2" y="17" width="1" height="1" fill="#FEAAE4" />
<rect x="3" y="17" width="1" height="1" fill="#FEAAE4" />
<rect x="4" y="17" width="1" height="1" fill="#FEAAE4" />
<rect x="59" y="17" width="1" height="1" fill="#FEAAE4" />
<rect x="60" y="17" width="1" height="1" fill="#FEAAE4" />
<rect x="61" y="17" width="1" height="1" fill="#FEAAE4" />
<rect x="62" y="17" width="1" height="1" fill="#FEAAE4" />
<rect x="0" y="18" width="1" height="1" fill="#FEAAE4" />
<rect x="1" y="18" width="1" height="1" fill="#FEAAE4" />
<rect x="2" y="18" width="1" height="1" fill="#FEAAE4" />
<rect x="3" y="18" width="1" height="1" fill="#FEAAE4" />
<rect x="4" y="18" width="1" height="1" fill="#FEAAE4" />
<rect x="59" y="18" width="1" height="1" fill="#FEAAE4" />
<rect x="60" y="18" width="1" height="1" fill="#FEAAE4" />
<rect x="61" y="18" width="1" height="1" fill="#FEAAE4" />
<rect x="62" y="18" width="1" height="1" fill="#FEAAE4" />
<rect x="63" y="18" width="1" height="1" fill="#FEAAE4" />
<rect x="0" y="19" width="1" height="1" fill="#FEAAE4" />
<rect x="1" y="19" width="1" height="1" fill="#FEAAE4" />
<rect x="2" y="19" width="1" height="1" fill="#FEAAE4" />
<rect x="3" y="19" width="1" height="1" fill="#FEAAE4" />
<rect x="60" y="19" width="1" height="1" fill="#FEAAE4" />
<rect x="61" y="19" width="1" height="1" fill="#FEAAE4" />
<rect x="62" y="19" width="1" height="1" fill="#FEAAE4" />
<rect x="63" y="19" width="1" height="1" fill="#FEAAE4" />
<rect x="0" y="20" width="1" height="1" fill="#FEAAE4" />
<rect x="1" y="20" width="1" height="1" fill="#FEAAE4" />
<rect x="2" y="20" width="1" height="1" fill="#FEAAE4" />
<rect x="3" y="20" width="1" height="1" fill="#FEAAE4" />
<rect x="60" y="20" width="1" height="1" fill="#FEAAE4" />
<rect x="61" y="20" width="1" height="1" fill="#FEAAE4" />
<rect x="62" y="20" width="1" height="1" fill="#FEAAE4" />
<rect x="63" y="20" width="1" height="1" fill="#FEAAE4" />
<rect x="0" y="21" width="1" height="1" fill="#FEAAE4" />
<rect x="1" y="21" width="1" height="1" fill="#FEAAE4" />
<rect x="2" y="21" width="1" height="1" fill="#FEAAE4" />
<rect x="3" y="21" width="1" height="1" fill="#FEAAE4" />
<rect x="60" y="21" width="1" height="1" fill="#FEAAE4" />
<rect x="61" y="21" width="1" height="1" fill="#FEAAE4" />
<rect x="62" y="21" width="1" height="1" fill="#FEAAE4" />
<rect x="63" y="21" width="1" height="1" fill="#FEAAE4" />
<rect x="0" y="22" width="1" height="1" fill="#FEAAE4" />
<rect x="1" y="22" width="1" height="1" fill="#FEAAE4" />
<rect x="2" y="22" width="1" height="1" fill="#FEAAE4" />
<rect x="3" y="22" width="1" height="1" fill="#FEAAE4" />
<rect x="60" y="22" width="1" height="1" fill="#FEAAE4" />
<rect x="61" y="22" width="1" height="1" fill="#FEAAE4" />
<rect x="62" y="22" width="1" height="1" fill="#FEAAE4" />
<rect x="63" y="22" width="1" height="1" fill="#FEAAE4" />
<rect x="0" y="23" width="1" height="1" fill="#FEAAE4" />
<rect x="1" y="23" width="1" height="1" fill="#FEAAE4" />
<rect x="2" y="23" width="1" height="1" fill="#FEAAE4" />
<rect x="3" y="23" width="1" height="1" fill="#FEAAE4" />
<rect x="60" y="23" width="1" height="1" fill="#FEAAE4" />
<rect x="61" y="23" width="1" height="1" fill="#FEAAE4" />
<rect x="62" y="23" width="1" height="1" fill="#FEAAE4" />
<rect x="63" y="23" width="1" height="1" fill="#FEAAE4" />
<rect x="0" y="24" width="1" height="1" fill="#FEAAE4" />
<rect x="1" y="24" width="1" height="1" fill="#FEAAE4" />
<rect x="2" y="24" width="1" height="1" fill="#FEAAE4" />
<rect x="3" y="24" width="1" height="1" fill="#FEAAE4" />
<rect x="60" y="24" width="1" height="1" fill="#FEAAE4" />
<rect x="61" y="24" width="1" height="1" fill="#FEAAE4" />
<rect x="62" y="24" width="1" height="1" fill="#FEAAE4" />
<rect x="63" y="24" width="1" height="1" fill="#FEAAE4" />
<rect x="0" y="25" width="1" height="1" fill="#FEAAE4" />
<rect x="1" y="25" width="1" height="1" fill="#FEAAE4" />
<rect x="2" y="25" width="1" height="1" fill="#FEAAE4" />
<rect x="3" y="25" width="1" height="1" fill="#FEAAE4" />
<rect x="60" y="25" width="1" height="1" fill="#FEAAE4" />
<rect x="61" y="25" width="1" height="1" fill="#FEAAE4" />
<rect x="62" y="25" width="1" height="1" fill="#FEAAE4" />
<rect x="63" y="25" width="1" height="1" fill="#FEAAE4" />
<rect x="0" y="26" width="1" height="1" fill="#FEAAE4" />
<rect x="1" y="26" width="1" height="1" fill="#FEAAE4" />
<rect x="2" y="26" width="1" height="1" fill="#FEAAE4" />
<rect x="3" y="26" width="1" height="1" fill="#FEAAE4" />
<rect x="60" y="26" width="1" height="1" fill="#FEAAE4" />
<rect x="61" y="26" width="1" height="1" fill="#FEAAE4" />
<rect x="62" y="26" width="1" height="1" fill="#FEAAE4" />
<rect x="63" y="26" width="1" height="1" fill="#FEAAE4" />
<rect x="0" y="27" width="1" height="1" fill="#FEAAE4" />
<rect x="1" y="27" width="1" height="1" fill="#FEAAE4" />
<rect x="2" y="27" width="1" height="1" fill="#FEAAE4" />
<rect x="3" y="27" width="1" height="1" fill="#FEAAE4" />
<rect x="60" y="27" width="1" height="1" fill="#FEAAE4" />
<rect x="61" y="27" width="1" height="1" fill="#FEAAE4" />
<rect x="62" y="27" width="1" height="1" fill="#FEAAE4" />
<rect x="63" y="27" width="1" height="1" fill="#FEAAE4" />
<rect x="0" y="28" width="1" height="1" fill="#FEAAE4" />
<rect x="1" y="28" width="1" height="1" fill="#FEAAE4" />
<rect x="2" y="28" width="1" height="1" fill="#FEAAE4" />
<rect x="3" y="28" width="1" height="1" fill="#FEAAE4" />
<rect x="4" y="28" width="1" height="1" fill="#FEAAE4" />
<rect x="59" y="28" width="1" height="1" fill="#FEAAE4" />
<rect x="60" y="28" width="1" height="1" fill="#FEAAE4" />
<rect x="61" y="28" width="1" height="1" fill="#FEAAE4" />
<rect x="62" y="28" width="1" height="1" fill="#FEAAE4" />
<rect x="63" y="28" width="1" height="1" fill="#FEAAE4" />
<rect x="1" y="29" width="1" height="1" fill="#FEAAE4" />
<rect x="2" y="29" width="1" height="1" fill="#FEAAE4" />
<rect x="3" y="29" width="1" height="1" fill="#FEAAE4" />
<rect x="4" y="29" width="1" height="1" fill="#FEAAE4" />
<rect x="59" y="29" width="1" height="1" fill="#FEAAE4" />
<rect x="60" y="29" width="1" height="1" fill="#FEAAE4" />
<rect x="61" y="29" width="1" height="1" fill="#FEAAE4" />
<rect x="62" y="29" width="1" height="1" fill="#FEAAE4" />
<rect x="1" y="30" width="1" height="1" fill="#FEAAE4" />
<rect x="2" y="30" width="1" height="1" fill="#FEAAE4" />
<rect x="3" y="30" width="1" height="1" fill="#FEAAE4" />
<rect x="4" y="30" width="1" height="1" fill="#FEAAE4" />
<rect x="5" y="30" width="1" height="1" fill="#FEAAE4" />
<rect x="58" y="30" width="1" height="1" fill="#FEAAE4" />
<rect x="59" y="30" width="1" height="1" fill="#FEAAE4" />
<rect x="60" y="30" width="1" height="1" fill="#FEAAE4" />
<rect x="61" y="30" width="1" height="1" fill="#FEAAE4" />
<rect x="62" y="30" width="1" height="1" fill="#FEAAE4" />
<rect x="2" y="31" width="1" height="1" fill="#FEAAE4" />
<rect x="3" y="31" width="1" height="1" fill="#FEAAE4" />
<rect x="4" y="31" width="1" height="1" fill="#FEAAE4" />
<rect x="5" y="31" width="1" height="1" fill="#FEAAE4" />
<rect x="58" y="31" width="1" height="1" fill="#FEAAE4" />
<rect x="59" y="31" width="1" height="1" fill="#FEAAE4" />
<rect x="60" y="31" width="1" height="1" fill="#FEAAE4" />
<rect x="61" y="31" width="1" height="1" fill="#FEAAE4" />
<rect x="2" y="32" width="1" height="1" fill="#FEAAE4" />
<rect x="3" y="32" width="1" height="1" fill="#FEAAE4" />
<rect x="4" y="32" width="1" height="1" fill="#FEAAE4" />
<rect x="5" y="32" width="1" height="1" fill="#FEAAE4" />
<rect x="6" y="32" width="1" height="1" fill="#FEAAE4" />
<rect x="57" y="32" width="1" height="1" fill="#FEAAE4" />
<rect x="58" y="32" width="1" height="1" fill="#FEAAE4" />
<rect x="59" y="32" width="1" height="1" fill="#FEAAE4" />
<rect x="60" y="32" width="1" height="1" fill="#FEAAE4" />
<rect x="61" y="32" width="1" height="1" fill="#FEAAE4" />
<rect x="3" y="33" width="1" height="1" fill="#FEAAE4" />
<rect x="4" y="33" width="1" height="1" fill="#FEAAE4" />
<rect x="5" y="33" width="1" height="1" fill="#FEAAE4" />
<rect x="6" y="33" width="1" height="1" fill="#FEAAE4" />
<rect x="57" y="33" width="1" height="1" fill="#FEAAE4" />
<rect x="58" y="33" width="1" height="1" fill="#FEAAE4" />
<rect x="59" y="33" width="1" height="1" fill="#FEAAE4" />
<rect x="60" y="33" width="1" height="1" fill="#FEAAE4" />
<rect x="3" y="34" width="1" height="1" fill="#FEAAE4" />
<rect x="4" y="34" width="1" height="1" fill="#FEAAE4" />
<rect x="5" y="34" width="1" height="1" fill="#FEAAE4" />
<rect x="6" y="34" width="1" height="1" fill="#FEAAE4" />
<rect x="7" y="34" width="1" height="1" fill="#FEAAE4" />
<rect x="56" y="34" width="1" height="1" fill="#FEAAE4" />
<rect x="57" y="34" width="1" height="1" fill="#FEAAE4" />
<rect x="58" y="34" width="1" height="1" fill="#FEAAE4" />
<rect x="59" y="34" width="1" height="1" fill="#FEAAE4" />
<rect x="60" y="34" width="1" height="1" fill="#FEAAE4" />
<rect x="4" y="35" width="1" height="1" fill="#FEAAE4" />
<rect x="5" y="35" width="1" height="1" fill="#FEAAE4" />
<rect x="6" y="35" width="1" height="1" fill="#FEAAE4" />
<rect x="7" y="35" width="1" height="1" fill="#FEAAE4" />
<rect x="8" y="35" width="1" height="1" fill="#FEAAE4" />
<rect x="55" y="35" width="1" height="1" fill="#FEAAE4" />
<rect x="56" y="35" width="1" height="1" fill="#FEAAE4" />
<rect x="57" y="35" width="1" height="1" fill="#FEAAE4" />
<rect x="58" y="35" width="1" height="1" fill="#FEAAE4" />
<rect x="59" y="35" width="1" height="1" fill="#FEAAE4" />
<rect x="4" y="36" width="1" height="1" fill="#FEAAE4" />
<rect x="5" y="36" width="1" height="1" fill="#FEAAE4" />
<rect x="6" y="36" width="1" height="1" fill="#FEAAE4" />
<rect x="7" y="36" width="1" height="1" fill="#FEAAE4" />
<rect x="8" y="36" width="1" height="1" fill="#FEAAE4" />
<rect x="9" y="36" width="1" height="1" fill="#FEAAE4" />
<rect x="55" y="36" width="1" height="1" fill="#FEAAE4" />
<rect x="56" y="36" width="1" height="1" fill="#FEAAE4" />
<rect x="57" y="36" width="1" height="1" fill="#FEAAE4" />
<rect x="58" y="36" width="1" height="1" fill="#FEAAE4" />
<rect x="59" y="36" width="1" height="1" fill="#FEAAE4" />
<rect x="5" y="37" width="1" height="1" fill="#FEAAE4" />
<rect x="6" y="37" width="1" height="1" fill="#FEAAE4" />
<rect x="7" y="37" width="1" height="1" fill="#FEAAE4" />
<rect x="8" y="37" width="1" height="1" fill="#FEAAE4" />
<rect x="9" y="37" width="1" height="1" fill="#FEAAE4" />
<rect x="54" y="37" width="1" height="1" fill="#FEAAE4" />
<rect x="55" y="37" width="1" height="1" fill="#FEAAE4" />
<rect x="56" y="37" width="1" height="1" fill="#FEAAE4" />
<rect x="57" y="37" width="1" height="1" fill="#FEAAE4" />
<rect x="58" y="37" width="1" height="1" fill="#FEAAE4" />
<rect x="6" y="38" width="1" height="1" fill="#FEAAE4" />
<rect x="7" y="38" width="1" height="1" fill="#FEAAE4" />
<rect x="8" y="38" width="1" height="1" fill="#FEAAE4" />
<rect x="9" y="38" width="1" height="1" fill="#FEAAE4" />
<rect x="10" y="38" width="1" height="1" fill="#FEAAE4" />
<rect x="53" y="38" width="1" height="1" fill="#FEAAE4" />
<rect x="54" y="38" width="1" height="1" fill="#FEAAE4" />
<rect x="55" y="38" width="1" height="1" fill="#FEAAE4" />
<rect x="56" y="38" width="1" height="1" fill="#FEAAE4" />
<rect x="57" y="38" width="1" height="1" fill="#FEAAE4" />
<rect x="7" y="39" width="1" height="1" fill="#FEAAE4" />
<rect x="8" y="39" width="1" height="1" fill="#FEAAE4" />
<rect x="9" y="39" width="1" height="1" fill="#FEAAE4" />
<rect x="10" y="39" width="1" height="1" fill="#FEAAE4" />
<rect x="11" y="39" width="1" height="1" fill="#FEAAE4" />
<rect x="52" y="39" width="1" height="1" fill="#FEAAE4" />
<rect x="53" y="39" width="1" height="1" fill="#FEAAE4" />
<rect x="54" y="39" width="1" height="1" fill="#FEAAE4" />
<rect x="55" y="39" width="1" height="1" fill="#FEAAE4" />
<rect x="56" y="39" width="1" height="1" fill="#FEAAE4" />
<rect x="8" y="40" width="1" height="1" fill="#FEAAE4" />
<rect x="9" y="40" width="1" height="1" fill="#FEAAE4" />
<rect x="10" y="40" width="1" height="1" fill="#FEAAE4" />
<rect x="11" y="40" width="1" height="1" fill="#FEAAE4" />
<rect x="12" y="40" width="1" height="1" fill="#FEAAE4" />
<rect x="51" y="40" width="1" height="1" fill="#FEAAE4" />
<rect x="52" y="40" width="1" height="1" fill="#FEAAE4" />
<rect x="53" y="40" width="1" height="1" fill="#FEAAE4" />
<rect x="54" y="40" width="1" height="1" fill="#FEAAE4" />
<rect x="55" y="40" width="1" height="1" fill="#FEAAE4" />
<rect x="9" y="41" width="1" height="1" fill="#FEAAE4" />
<rect x="10" y="41" width="1" height="1" fill="#FEAAE4" />
<rect x="11" y="41" width="1" height="1" fill="#FEAAE4" />
<rect x="12" y="41" width="1" height="1" fill="#FEAAE4" />
<rect x="13" y="41" width="1" height="1" fill="#FEAAE4" />
<rect x="50" y="41" width="1" height="1" fill="#FEAAE4" />
<rect x="51" y="41" width="1" height="1" fill="#FEAAE4" />
<rect x="52" y="41" width="1" height="1" fill="#FEAAE4" />
<rect x="53" y="41" width="1" height="1" fill="#FEAAE4" />
<rect x="54" y="41" width="1" height="1" fill="#FEAAE4" />
<rect x="10" y="42" width="1" height="1" fill="#FEAAE4" />
<rect x="11" y="42" width="1" height="1" fill="#FEAAE4" />
<rect x="12" y="42" width="1" height="1" fill="#FEAAE4" />
<rect x="13" y="42" width="1" height="1" fill="#FEAAE4" />
<rect x="14" y="42" width="1" height="1" fill="#FEAAE4" />
<rect x="49" y="42" width="1" height="1" fill="#FEAAE4" />
<rect x="50" y="42" width="1" height="1" fill="#FEAAE4" />
<rect x="51" y="42" width="1" height="1" fill="#FEAAE4" />
<rect x="52" y="42" width="1" height="1" fill="#FEAAE4" />
<rect x="53" y="42" width="1" height="1" fill="#FEAAE4" />
<rect x="54" y="42" width="1" height="1" fill="#FEAAE4" />
<rect x="11" y="43" width="1" height="1" fill="#FEAAE4" />
<rect x="12" y="43" width="1" height="1" fill="#FEAAE4" />
<rect x="13" y="43" width="1" height="1" fill="#FEAAE4" />
<rect x="14" y="43" width="1" height="1" fill="#FEAAE4" />
<rect x="15" y="43" width="1" height="1" fill="#FEAAE4" />
<rect x="48" y="43" width="1" height="1" fill="#FEAAE4" />
<rect x="49" y="43" width="1" height="1" fill="#FEAAE4" />
<rect x="50" y="43" width="1" height="1" fill="#FEAAE4" />
<rect x="51" y="43" width="1" height="1" fill="#FEAAE4" />
<rect x="52" y="43" width="1" height="1" fill="#FEAAE4" />
<rect x="12" y="44" width="1" height="1" fill="#FEAAE4" />
<rect x="13" y="44" width="1" height="1" fill="#FEAAE4" />
<rect x="14" y="44" width="1" height="1" fill="#FEAAE4" />
<rect x="15" y="44" width="1" height="1" fill="#FEAAE4" />
<rect x="16" y="44" width="1" height="1" fill="#FEAAE4" />
<rect x="17" y="44" width="1" height="1" fill="#FEAAE4" />
<rect x="46" y="44" width="1" height="1" fill="#FEAAE4" />
<rect x="47" y="44" width="1" height="1" fill="#FEAAE4" />
<rect x="48" y="44" width="1" height="1" fill="#FEAAE4" />
<rect x="49" y="44" width="1" height="1" fill="#FEAAE4" />
<rect x="50" y="44" width="1" height="1" fill="#FEAAE4" />
<rect x="51" y="44" width="1" height="1" fill="#FEAAE4" />
<rect x="13" y="45" width="1" height="1" fill="#FEAAE4" />
<rect x="14" y="45" width="1" height="1" fill="#FEAAE4" />
<rect x="15" y="45" width="1" height="1" fill="#FEAAE4" />
<rect x="16" y="45" width="1" height="1" fill="#FEAAE4" />
<rect x="17" y="45" width="1" height="1" fill="#FEAAE4" />
<rect x="18" y="45" width="1" height="1" fill="#FEAAE4" />
<rect x="45" y="45" width="1" height="1" fill="#FEAAE4" />
<rect x="46" y="45" width="1" height="1" fill="#FEAAE4" />
<rect x="47" y="45" width="1" height="1" fill="#FEAAE4" />
<rect x="48" y="45" width="1" height="1" fill="#FEAAE4" />
<rect x="49" y="45" width="1" height="1" fill="#FEAAE4" />
<rect x="50" y="45" width="1" height="1" fill="#FEAAE4" />
<rect x="14" y="46" width="1" height="1" fill="#FEAAE4" />
<rect x="15" y="46" width="1" height="1" fill="#FEAAE4" />
<rect x="16" y="46" width="1" height="1" fill="#FEAAE4" />
<rect x="17" y="46" width="1" height="1" fill="#FEAAE4" />
<rect x="18" y="46" width="1" height="1" fill="#FEAAE4" />
<rect x="19" y="46" width="1" height="1" fill="#FEAAE4" />
<rect x="44" y="46" width="1" height="1" fill="#FEAAE4" />
<rect x="45" y="46" width="1" height="1" fill="#FEAAE4" />
<rect x="46" y="46" width="1" height="1" fill="#FEAAE4" />
<rect x="47" y="46" width="1" height="1" fill="#FEAAE4" />
<rect x="48" y="46" width="1" height="1" fill="#FEAAE4" />
<rect x="49" y="46" width="1" height="1" fill="#FEAAE4" />
<rect x="15" y="47" width="1" height="1" fill="#FEAAE4" />
<rect x="16" y="47" width="1" height="1" fill="#FEAAE4" />
<rect x="17" y="47" width="1" height="1" fill="#FEAAE4" />
<rect x="18" y="47" width="1" height="1" fill="#FEAAE4" />
<rect x="19" y="47" width="1" height="1" fill="#FEAAE4" />
<rect x="20" y="47" width="1" height="1" fill="#FEAAE4" />
<rect x="21" y="47" width="1" height="1" fill="#FEAAE4" />
<rect x="42" y="47" width="1" height="1" fill="#FEAAE4" />
<rect x="43" y="47" width="1" height="1" fill="#FEAAE4" />
<rect x="44" y="47" width="1" height="1" fill="#FEAAE4" />
<rect x="45" y="47" width="1" height="1" fill="#FEAAE4" />
<rect x="46" y="47" width="1" height="1" fill="#FEAAE4" />
<rect x="47" y="47" width="1" height="1" fill="#FEAAE4" />
<rect x="48" y="47" width="1" height="1" fill="#FEAAE4" />
<rect x="16" y="48" width="1" height="1" fill="#FEAAE4" />
<rect x="17" y="48" width="1" height="1" fill="#FEAAE4" />
<rect x="18" y="48" width="1" height="1" fill="#FEAAE4" />
<rect x="19" y="48" width="1" height="1" fill="#FEAAE4" />
<rect x="20" y="48" width="1" height="1" fill="#FEAAE4" />
<rect x="21" y="48" width="1" height="1" fill="#FEAAE4" />
<rect x="22" y="48" width="1" height="1" fill="#FEAAE4" />
<rect x="41" y="48" width="1" height="1" fill="#FEAAE4" />
<rect x="42" y="48" width="1" height="1" fill="#FEAAE4" />
<rect x="43" y="48" width="1" height="1" fill="#FEAAE4" />
<rect x="44" y="48" width="1" height="1" fill="#FEAAE4" />
<rect x="45" y="48" width="1" height="1" fill="#FEAAE4" />
<rect x="46" y="48" width="1" height="1" fill="#FEAAE4" />
<rect x="47" y="48" width="1" height="1" fill="#FEAAE4" />
<rect x="18" y="49" width="1" height="1" fill="#FEAAE4" />
<rect x="19" y="49" width="1" height="1" fill="#FEAAE4" />
<rect x="20" y="49" width="1" height="1" fill="#FEAAE4" />
<rect x="21" y="49" width="1" height="1" fill="#FEAAE4" />
<rect x="22" y="49" width="1" height="1" fill="#FEAAE4" />
<rect x="23" y="49" width="1" height="1" fill="#FEAAE4" />
<rect x="40" y="49" width="1" height="1" fill="#FEAAE4" />
<rect x="41" y="49" width="1" height="1" fill="#FEAAE4" />
<rect x="42" y="49" width="1" height="1" fill="#FEAAE4" />
<rect x="43" y="49" width="1" height="1" fill="#FEAAE4" />
<rect x="44" y="49" width="1" height="1" fill="#FEAAE4" />
<rect x="45" y="49" width="1" height="1" fill="#FEAAE4" />
<rect x="19" y="50" width="1" height="1" fill="#FEAAE4" />
<rect x="20" y="50" width="1" height="1" fill="#FEAAE4" />
<rect x="21" y="50" width="1" height="1" fill="#FEAAE4" />
<rect x="22" y="50" width="1" height="1" fill="#FEAAE4" />
<rect x="23" y="50" width="1" height="1" fill="#FEAAE4" />
<rect x="24" y="50" width="1" height="1" fill="#FEAAE4" />
<rect x="25" y="50" width="1" height="1" fill="#FEAAE4" />
<rect x="39" y="50" width="1" height="1" fill="#FEAAE4" />
<rect x="40" y="50" width="1" height="1" fill="#FEAAE4" />
<rect x="41" y="50" width="1" height="1" fill="#FEAAE4" />
<rect x="42" y="50" width="1" height="1" fill="#FEAAE4" />
<rect x="43" y="50" width="1" height="1" fill="#FEAAE4" />
<rect x="44" y="50" width="1" height="1" fill="#FEAAE4" />
<rect x="20" y="51" width="1" height="1" fill="#FEAAE4" />
<rect x="21" y="51" width="1" height="1" fill="#FEAAE4" />
<rect x="22" y="51" width="1" height="1" fill="#FEAAE4" />
<rect x="23" y="51" width="1" height="1" fill="#FEAAE4" />
<rect x="24" y="51" width="1" height="1" fill="#FEAAE4" />
<rect x="25" y="51" width="1" height="1" fill="#FEAAE4" />
<rect x="26" y="51" width="1" height="1" fill="#FEAAE4" />
<rect x="37" y="51" width="1" height="1" fill="#FEAAE4" />
<rect x="38" y="51" width="1" height="1" fill="#FEAAE4" />
<rect x="39" y="51" width="1" height="1" fill="#FEAAE4" />
<rect x="40" y="51" width="1" height="1" fill="#FEAAE4" />
<rect x="41" y="51" width="1" height="1" fill="#FEAAE4" />
<rect x="42" y="51" width="1" height="1" fill="#FEAAE4" />
<rect x="43" y="51" width="1" height="1" fill="#FEAAE4" />
<rect x="22" y="52" width="1" height="1" fill="#FEAAE4" />
<rect x="23" y="52" width="1" height="1" fill="#FEAAE4" />
<rect x="24" y="52" width="1" height="1" fill="#FEAAE4" />
<rect x="25" y="52" width="1" height="1" fill="#FEAAE4" />
<rect x="26" y="52" width="1" height="1" fill="#FEAAE4" />
<rect x="27" y="52" width="1" height="1" fill="#FEAAE4" />
<rect x="28" y="52" width="1" height="1" fill="#FEAAE4" />
<rect x="35" y="52" width="1" height="1" fill="#FEAAE4" />
<rect x="36" y="52" width="1" height="1" fill="#FEAAE4" />
<rect x="37" y="52" width="1" height="1" fill="#FEAAE4" />
<rect x="38" y="52" width="1" height="1" fill="#FEAAE4" />
<rect x="39" y="52" width="1" height="1" fill="#FEAAE4" />
<rect x="40" y="52" width="1" height="1" fill="#FEAAE4" />
<rect x="41" y="52" width="1" height="1" fill="#FEAAE4" />
<rect x="23" y="53" width="1" height="1" fill="#FEAAE4" />
<rect x="24" y="53" width="1" height="1" fill="#FEAAE4" />
<rect x="25" y="53" width="1" height="1" fill="#FEAAE4" />
<rect x="26" y="53" width="1" height="1" fill="#FEAAE4" />
<rect x="27" y="53" width="1" height="1" fill="#FEAAE4" />
<rect x="28" y="53" width="1" height="1" fill="#FEAAE4" />
<rect x="29" y="53" width="1" height="1" fill="#FEAAE4" />
<rect x="34" y="53" width="1" height="1" fill="#FEAAE4" />
<rect x="35" y="53" width="1" height="1" fill="#FEAAE4" />
<rect x="36" y="53" width="1" height="1" fill="#FEAAE4" />
<rect x="37" y="53" width="1" height="1" fill="#FEAAE4" />
<rect x="38" y="53" width="1" height="1" fill="#FEAAE4" />
<rect x="39" y="53" width="1" height="1" fill="#FEAAE4" />
<rect x="40" y="53" width="1" height="1" fill="#FEAAE4" />
<rect x="25" y="54" width="1" height="1" fill="#FEAAE4" />
<rect x="26" y="54" width="1" height="1" fill="#FEAAE4" />
<rect x="27" y="54" width="1" height="1" fill="#FEAAE4" />
<rect x="28" y="54" width="1" height="1" fill="#FEAAE4" />
<rect x="29" y="54" width="1" height="1" fill="#FEAAE4" />
<rect x="30" y="54" width="1" height="1" fill="#FEAAE4" />
<rect x="31" y="54" width="1" height="1" fill="#FEAAE4" />
<rect x="32" y="54" width="1" height="1" fill="#FEAAE4" />
<rect x="33" y="54" width="1" height="1" fill="#FEAAE4" />
<rect x="34" y="54" width="1" height="1" fill="#FEAAE4" />
<rect x="35" y="54" width="1" height="1" fill="#FEAAE4" />
<rect x="36" y="54" width="1" height="1" fill="#FEAAE4" />
<rect x="37" y="54" width="1" height="1" fill="#FEAAE4" />
<rect x="38" y="54" width="1" height="1" fill="#FEAAE4" />
<rect x="39" y="54" width="1" height="1" fill="#FEAAE4" />
<rect x="26" y="55" width="1" height="1" fill="#FEAAE4" />
<rect x="27" y="55" width="1" height="1" fill="#FEAAE4" />
<rect x="28" y="55" width="1" height="1" fill="#FEAAE4" />
<rect x="29" y="55" width="1" height="1" fill="#FEAAE4" />
<rect x="30" y="55" width="1" height="1" fill="#FEAAE4" />
<rect x="31" y="55" width="1" height="1" fill="#FEAAE4" />
<rect x="32" y="55" width="1" height="1" fill="#FEAAE4" />
<rect x="33" y="55" width="1" height="1" fill="#FEAAE4" />
<rect x="34" y="55" width="1" height="1" fill="#FEAAE4" />
<rect x="35" y="55" width="1" height="1" fill="#FEAAE4" />
<rect x="36" y="55" width="1" height="1" fill="#FEAAE4" />
<rect x="37" y="55" width="1" height="1" fill="#FEAAE4" />
<rect x="28" y="56" width="1" height="1" fill="#FEAAE4" />
<rect x="29" y="56" width="1" height="1" fill="#FEAAE4" />
<rect x="30" y="56" width="1" height="1" fill="#FEAAE4" />
<rect x="31" y="56" width="1" height="1" fill="#FEAAE4" />
<rect x="32" y="56" width="1" height="1" fill="#FEAAE4" />
<rect x="33" y="56" width="1" height="1" fill="#FEAAE4" />
<rect x="34" y="56" width="1" height="1" fill="#FEAAE4" />
<rect x="35" y="56" width="1" height="1" fill="#FEAAE4" />
<rect x="29" y="57" width="1" height="1" fill="#FEAAE4" />
<rect x="30" y="57" width="1" height="1" fill="#FEAAE4" />
<rect x="31" y="57" width="1" height="1" fill="#FEAAE4" />
<rect x="32" y="57" width="1" height="1" fill="#FEAAE4" />
<rect x="33" y="57" width="1" height="1" fill="#FEAAE4" />
<rect x="34" y="57" width="1" height="1" fill="#FEAAE4" />
<rect x="31" y="58" width="1" height="1" fill="#FEAAE4" />
<rect x="32" y="58" width="1" height="1" fill="#FEAAE4" />
</svg>