<?xml version="1.0" encoding="UTF-8" ?>
<svg version="1.1" width="64" height="64" xmlns="http://www.w3.org/2000/svg" shape-rendering="crispEdges">
<rect x="8" y="2" width="1" height="1" fill="#FFF7E4" />
<rect x="9" y="2" width="1" height="1" fill="#FFF7E4" />
<rect x="7" y="3" width="1" height="1" fill="#FFF7E4" />
<rect x="8" y="3" width="1" height="1" fill="#FFF7E4" />
<rect x="9" y="3" width="1" height="1" fill="#FFF7E4" />
<rect x="7" y="4" width="1" height="1" fill="#FFF7E4" />
<rect x="8" y="4" width="1" height="1" fill="#FFF7E4" />
<rect x="9" y="4" width="1" height="1" fill="#FFF7E4" />
<rect x="7" y="5" width="1" height="1" fill="#FFF7E4" />
<rect x="8" y="5" width="1" height="1" fill="#FFF7E4" />
<rect x="9" y="5" width="1" height="1" fill="#FFF7E4" />
<rect x="10" y="5" width="1" height="1" fill="#FFF7E4" />
<rect x="6" y="6" width="1" height="1" fill="#FFF7E4" />
<rect x="7" y="6" width="1" height="1" fill="#FFF7E4" />
<rect x="8" y="6" width="1" height="1" fill="#FFF7E4" />
<rect x="9" y="6" width="1" height="1" fill="#FFF7E4" />
<rect x="10" y="6" width="1" height="1" fill="#FFF7E4" />
<rect x="27" y="6" width="1" height="1" fill="#FFF7E4" />
<rect x="28" y="6" width="1" height="1" fill="#FFF7E4" />
<rect x="6" y="7" width="1" height="1" fill="#FFF7E4" />
<rect x="7" y="7" width="1" height="1" fill="#FFF7E4" />
<rect x="8" y="7" width="1" height="1" fill="#FFF7E4" />
<rect x="9" y="7" width="1" height="1" fill="#FFF7E4" />
<rect x="10" y="7" width="1" height="1" fill="#FFF7E4" />
<rect x="11" y="7" width="1" height="1" fill="#FFF7E4" />
<rect x="27" y="7" width="1" height="1" fill="#FFF7E4" />
<rect x="28" y="7" width="1" height="1" fill="#FFF7E4" />
<rect x="29" y="7" width="1" height="1" fill="#FFF7E4" />
<rect x="5" y="8" width="1" height="1" fill="#FFF7E4" />
<rect x="6" y="8" width="1" height="1" fill="#FFF7E4" />
<rect x="7" y="8" width="1" height="1" fill="#FFF7E4" />
<rect x="8" y="8" width="1" height="1" fill="#FFF7E4" />
<rect x="9" y="8" width="1" height="1" fill="#FFF7E4" />
<rect x="10" y="8" width="1" height="1" fill="#FFF7E4" />
<rect x="11" y="8" width="1" height="1" fill="#FFF7E4" />
<rect x="12" y="8" width="1" height="1" fill="#FFF7E4" />
<rect x="27" y="8" width="1" height="1" fill="#FFF7E4" />
<rect x="28" y="8" width="1" height="1" fill="#FFF7E4" />
<rect x="29" y="8" width="1" height="1" fill="#FFF7E4" />
<rect x="3" y="9" width="1" height="1" fill="#FFF7E4" />
<rect x="4" y="9" width="1" height="1" fill="#FFF7E4" />
<rect x="5" y="9" width="1" height="1" fill="#FFF7E4" />
<rect x="6" y="9" width="1" height="1" fill="#FFF7E4" />
<rect x="7" y="9" width="1" height="1" fill="#FFF7E4" />
<rect x="9" y="9" width="1" height="1" fill="#FFF7E4" />
<rect x="10" y="9" width="1" height="1" fill="#FFF7E4" />
<rect x="11" y="9" width="1" height="1" fill="#FFF7E4" />
<rect x="12" y="9" width="1" height="1" fill="#FFF7E4" />
<rect x="13" y="9" width="1" height="1" fill="#FFF7E4" />
<rect x="14" y="9" width="1" height="1" fill="#FFF7E4" />
<rect x="27" y="9" width="1" height="1" fill="#FFF7E4" />
<rect x="28" y="9" width="1" height="1" fill="#FFF7E4" />
<rect x="29" y="9" width="1" height="1" fill="#FFF7E4" />
<rect x="0" y="10" width="1" height="1" fill="#FFF7E4" />
<rect x="1" y="10" width="1" height="1" fill="#FFF7E4" />
<rect x="2" y="10" width="1" height="1" fill="#FFF7E4" />
<rect x="3" y="10" width="1" height="1" fill="#FFF7E4" />
<rect x="4" y="10" width="1" height="1" fill="#FFF7E4" />
<rect x="5" y="10" width="1" height="1" fill="#FFF7E4" />
<rect x="6" y="10" width="1" height="1" fill="#FFF7E4" />
<rect x="10" y="10" width="1" height="1" fill="#FFF7E4" />
<rect x="11" y="10" width="1" height="1" fill="#FFF7E4" />
<rect x="12" y="10" width="1" height="1" fill="#FFF7E4" />
<rect x="13" y="10" width="1" height="1" fill="#FFF7E4" />
<rect x="14" y="10" width="1" height="1" fill="#FFF7E4" />
<rect x="15" y="10" width="1" height="1" fill="#FFF7E4" />
<rect x="16" y="10" width="1" height="1" fill="#FFF7E4" />
<rect x="17" y="10" width="1" height="1" fill="#FFF7E4" />
<rect x="26" y="10" width="1" height="1" fill="#FFF7E4" />
<rect x="27" y="10" width="1" height="1" fill="#FFF7E4" />
<rect x="28" y="10" width="1" height="1" fill="#FFF7E4" />
<rect x="29" y="10" width="1" height="1" fill="#FFF7E4" />
<rect x="0" y="11" width="1" height="1" fill="#FFF7E4" />
<rect x="1" y="11" width="1" height="1" fill="#FFF7E4" />
<rect x="2" y="11" width="1" height="1" fill="#FFF7E4" />
<rect x="3" y="11" width="1" height="1" fill="#FFF7E4" />
<rect x="4" y="11" width="1" height="1" fill="#FFF7E4" />
<rect x="5" y="11" width="1" height="1" fill="#FFF7E4" />
<rect x="6" y="11" width="1" height="1" fill="#FFF7E4" />
<rect x="11" y="11" width="1" height="1" fill="#FFF7E4" />
<rect x="12" y="11" width="1" height="1" fill="#FFF7E4" />
<rect x="13" y="11" width="1" height="1" fill="#FFF7E4" />
<rect x="14" y="11" width="1" height="1" fill="#FFF7E4" />
<rect x="15" y="11" width="1" height="1" fill="#FFF7E4" />
<rect x="16" y="11" width="1" height="1" fill="#FFF7E4" />
<rect x="17" y="11" width="1" height="1" fill="#FFF7E4" />
<rect x="26" y="11" width="1" height="1" fill="#FFF7E4" />
<rect x="27" y="11" width="1" height="1" fill="#FFF7E4" />
<rect x="28" y="11" width="1" height="1" fill="#FFF7E4" />
<rect x="29" y="11" width="1" height="1" fill="#FFF7E4" />
<rect x="0" y="12" width="1" height="1" fill="#FFF7E4" />
<rect x="1" y="12" width="1" height="1" fill="#FFF7E4" />
<rect x="2" y="12" width="1" height="1" fill="#FFF7E4" />
<rect x="3" y="12" width="1" height="1" fill="#FFF7E4" />
<rect x="4" y="12" width="1" height="1" fill="#FFF7E4" />
<rect x="5" y="12" width="1" height="1" fill="#FFF7E4" />
<rect x="6" y="12" width="1" height="1" fill="#FFF7E4" />
<rect x="7" y="12" width="1" height="1" fill="#FFF7E4" />
<rect x="10" y="12" width="1" height="1" fill="#FFF7E4" />
<rect x="11" y="12" width="1" height="1" fill="#FFF7E4" />
<rect x="12" y="12" width="1" height="1" fill="#FFF7E4" />
<rect x="13" y="12" width="1" height="1" fill="#FFF7E4" />
<rect x="14" y="12" width="1" height="1" fill="#FFF7E4" />
<rect x="15" y="12" width="1" height="1" fill="#FFF7E4" />
<rect x="16" y="12" width="1" height="1" fill="#FFF7E4" />
<rect x="26" y="12" width="1" height="1" fill="#FFF7E4" />
<rect x="27" y="12" width="1" height="1" fill="#FFF7E4" />
<rect x="28" y="12" width="1" height="1" fill="#FFF7E4" />
<rect x="29" y="12" width="1" height="1" fill="#FFF7E4" />
<rect x="4" y="13" width="1" height="1" fill="#FFF7E4" />
<rect x="5" y="13" width="1" height="1" fill="#FFF7E4" />
<rect x="6" y="13" width="1" height="1" fill="#FFF7E4" />
<rect x="7" y="13" width="1" height="1" fill="#FFF7E4" />
<rect x="8" y="13" width="1" height="1" fill="#FFF7E4" />
<rect x="9" y="13" width="1" height="1" fill="#FFF7E4" />
<rect x="10" y="13" width="1" height="1" fill="#FFF7E4" />
<rect x="11" y="13" width="1" height="1" fill="#FFF7E4" />
<rect x="12" y="13" width="1" height="1" fill="#FFF7E4" />
<rect x="13" y="13" width="1" height="1" fill="#FFF7E4" />
<rect x="26" y="13" width="1" height="1" fill="#FFF7E4" />
<rect x="27" y="13" width="1" height="1" fill="#FFF7E4" />
<rect x="28" y="13" width="1" height="1" fill="#FFF7E4" />
<rect x="29" y="13" width="1" height="1" fill="#FFF7E4" />
<rect x="30" y="13" width="1" height="1" fill="#FFF7E4" />
<rect x="5" y="14" width="1" height="1" fill="#FFF7E4" />
<rect x="6" y="14" width="1" height="1" fill="#FFF7E4" />
<rect x="7" y="14" width="1" height="1" fill="#FFF7E4" />
<rect x="8" y="14" width="1" height="1" fill="#FFF7E4" />
<rect x="9" y="14" width="1" height="1" fill="#FFF7E4" />
<rect x="10" y="14" width="1" height="1" fill="#FFF7E4" />
<rect x="11" y="14" width="1" height="1" fill="#FFF7E4" />
<rect x="25" y="14" width="1" height="1" fill="#FFF7E4" />
<rect x="26" y="14" width="1" height="1" fill="#FFF7E4" />
<rect x="27" y="14" width="1" height="1" fill="#FFF7E4" />
<rect x="28" y="14" width="1" height="1" fill="#FFF7E4" />
<rect x="29" y="14" width="1" height="1" fill="#FFF7E4" />
<rect x="30" y="14" width="1" height="1" fill="#FFF7E4" />
<rect x="6" y="15" width="1" height="1" fill="#FFF7E4" />
<rect x="7" y="15" width="1" height="1" fill="#FFF7E4" />
<rect x="8" y="15" width="1" height="1" fill="#FFF7E4" />
<rect x="9" y="15" width="1" height="1" fill="#FFF7E4" />
<rect x="10" y="15" width="1" height="1" fill="#FFF7E4" />
<rect x="25" y="15" width="1" height="1" fill="#FFF7E4" />
<rect x="26" y="15" width="1" height="1" fill="#FFF7E4" />
<rect x="27" y="15" width="1" height="1" fill="#FFF7E4" />
<rect x="28" y="15" width="1" height="1" fill="#FFF7E4" />
<rect x="29" y="15" width="1" height="1" fill="#FFF7E4" />
<rect x="30" y="15" width="1" height="1" fill="#FFF7E4" />
<rect x="7" y="16" width="1" height="1" fill="#FFF7E4" />
<rect x="8" y="16" width="1" height="1" fill="#FFF7E4" />
<rect x="9" y="16" width="1" height="1" fill="#FFF7E4" />
<rect x="10" y="16" width="1" height="1" fill="#FFF7E4" />
<rect x="25" y="16" width="1" height="1" fill="#FFF7E4" />
<rect x="26" y="16" width="1" height="1" fill="#FFF7E4" />
<rect x="27" y="16" width="1" height="1" fill="#FFF7E4" />
<rect x="28" y="16" width="1" height="1" fill="#FFF7E4" />
<rect x="29" y="16" width="1" height="1" fill="#FFF7E4" />
<rect x="30" y="16" width="1" height="1" fill="#FFF7E4" />
<rect x="31" y="16" width="1" height="1" fill="#FFF7E4" />
<rect x="7" y="17" width="1" height="1" fill="#FFF7E4" />
<rect x="8" y="17" width="1" height="1" fill="#FFF7E4" />
<rect x="9" y="17" width="1" height="1" fill="#FFF7E4" />
<rect x="10" y="17" width="1" height="1" fill="#FFF7E4" />
<rect x="24" y="17" width="1" height="1" fill="#FFF7E4" />
<rect x="25" y="17" width="1" height="1" fill="#FFF7E4" />
<rect x="26" y="17" width="1" height="1" fill="#FFF7E4" />
<rect x="27" y="17" width="1" height="1" fill="#FFF7E4" />
<rect x="29" y="17" width="1" height="1" fill="#FFF7E4" />
<rect x="30" y="17" width="1" height="1" fill="#FFF7E4" />
<rect x="31" y="17" width="1" height="1" fill="#FFF7E4" />
<rect x="7" y="18" width="1" height="1" fill="#FFF7E4" />
<rect x="8" y="18" width="1" height="1" fill="#FFF7E4" />
<rect x="9" y="18" width="1" height="1" fill="#FFF7E4" />
<rect x="24" y="18" width="1" height="1" fill="#FFF7E4" />
<rect x="25" y="18" width="1" height="1" fill="#FFF7E4" />
<rect x="26" y="18" width="1" height="1" fill="#FFF7E4" />
<rect x="29" y="18" width="1" height="1" fill="#FFF7E4" />
<rect x="30" y="18" width="1" height="1" fill="#FFF7E4" />
<rect x="31" y="18" width="1" height="1" fill="#FFF7E4" />
<rect x="32" y="18" width="1" height="1" fill="#FFF7E4" />
<rect x="7" y="19" width="1" height="1" fill="#FFF7E4" />
<rect x="8" y="19" width="1" height="1" fill="#FFF7E4" />
<rect x="9" y="19" width="1" height="1" fill="#FFF7E4" />
<rect x="23" y="19" width="1" height="1" fill="#FFF7E4" />
<rect x="24" y="19" width="1" height="1" fill="#FFF7E4" />
<rect x="25" y="19" width="1" height="1" fill="#FFF7E4" />
<rect x="26" y="19" width="1" height="1" fill="#FFF7E4" />
<rect x="30" y="19" width="1" height="1" fill="#FFF7E4" />
<rect x="31" y="19" width="1" height="1" fill="#FFF7E4" />
<rect x="32" y="19" width="1" height="1" fill="#FFF7E4" />
<rect x="33" y="19" width="1" height="1" fill="#FFF7E4" />
<rect x="22" y="20" width="1" height="1" fill="#FFF7E4" />
<rect x="23" y="20" width="1" height="1" fill="#FFF7E4" />
<rect x="24" y="20" width="1" height="1" fill="#FFF7E4" />
<rect x="25" y="20" width="1" height="1" fill="#FFF7E4" />
<rect x="30" y="20" width="1" height="1" fill="#FFF7E4" />
<rect x="31" y="20" width="1" height="1" fill="#FFF7E4" />
<rect x="32" y="20" width="1" height="1" fill="#FFF7E4" />
<rect x="33" y="20" width="1" height="1" fill="#FFF7E4" />
<rect x="21" y="21" width="1" height="1" fill="#FFF7E4" />
<rect x="22" y="21" width="1" height="1" fill="#FFF7E4" />
<rect x="23" y="21" width="1" height="1" fill="#FFF7E4" />
<rect x="24" y="21" width="1" height="1" fill="#FFF7E4" />
<rect x="31" y="21" width="1" height="1" fill="#FFF7E4" />
<rect x="32" y="21" width="1" height="1" fill="#FFF7E4" />
<rect x="33" y="21" width="1" height="1" fill="#FFF7E4" />
<rect x="34" y="21" width="1" height="1" fill="#FFF7E4" />
<rect x="20" y="22" width="1" height="1" fill="#FFF7E4" />
<rect x="21" y="22" width="1" height="1" fill="#FFF7E4" />
<rect x="22" y="22" width="1" height="1" fill="#FFF7E4" />
<rect x="23" y="22" width="1" height="1" fill="#FFF7E4" />
<rect x="24" y="22" width="1" height="1" fill="#FFF7E4" />
<rect x="32" y="22" width="1" height="1" fill="#FFF7E4" />
<rect x="33" y="22" width="1" height="1" fill="#FFF7E4" />
<rect x="34" y="22" width="1" height="1" fill="#FFF7E4" />
<rect x="35" y="22" width="1" height="1" fill="#FFF7E4" />
<rect x="19" y="23" width="1" height="1" fill="#FFF7E4" />
<rect x="20" y="23" width="1" height="1" fill="#FFF7E4" />
<rect x="21" y="23" width="1" height="1" fill="#FFF7E4" />
<rect x="22" y="23" width="1" height="1" fill="#FFF7E4" />
<rect x="23" y="23" width="1" height="1" fill="#FFF7E4" />
<rect x="33" y="23" width="1" height="1" fill="#FFF7E4" />
<rect x="34" y="23" width="1" height="1" fill="#FFF7E4" />
<rect x="35" y="23" width="1" height="1" fill="#FFF7E4" />
<rect x="36" y="23" width="1" height="1" fill="#FFF7E4" />
<rect x="18" y="24" width="1" height="1" fill="#FFF7E4" />
<rect x="19" y="24" width="1" height="1" fill="#FFF7E4" />
<rect x="20" y="24" width="1" height="1" fill="#FFF7E4" />
<rect x="21" y="24" width="1" height="1" fill="#FFF7E4" />
<rect x="22" y="24" width="1" height="1" fill="#FFF7E4" />
<rect x="34" y="24" width="1" height="1" fill="#FFF7E4" />
<rect x="35" y="24" width="1" height="1" fill="#FFF7E4" />
<rect x="36" y="24" width="1" height="1" fill="#FFF7E4" />
<rect x="37" y="24" width="1" height="1" fill="#FFF7E4" />
<rect x="16" y="25" width="1" height="1" fill="#FFF7E4" />
<rect x="17" y="25" width="1" height="1" fill="#FFF7E4" />
<rect x="18" y="25" width="1" height="1" fill="#FFF7E4" />
<rect x="19" y="25" width="1" height="1" fill="#FFF7E4" />
<rect x="20" y="25" width="1" height="1" fill="#FFF7E4" />
<rect x="21" y="25" width="1" height="1" fill="#FFF7E4" />
<rect x="35" y="25" width="1" height="1" fill="#FFF7E4" />
<rect x="36" y="25" width="1" height="1" fill="#FFF7E4" />
<rect x="37" y="25" width="1" height="1" fill="#FFF7E4" />
<rect x="38" y="25" width="1" height="1" fill="#FFF7E4" />
<rect x="39" y="25" width="1" height="1" fill="#FFF7E4" />
<rect x="15" y="26" width="1" height="1" fill="#FFF7E4" />
<rect x="16" y="26" width="1" height="1" fill="#FFF7E4" />
<rect x="17" y="26" width="1" height="1" fill="#FFF7E4" />
<rect x="18" y="26" width="1" height="1" fill="#FFF7E4" />
<rect x="19" y="26" width="1" height="1" fill="#FFF7E4" />
<rect x="20" y="26" width="1" height="1" fill="#FFF7E4" />
<rect x="36" y="26" width="1" height="1" fill="#FFF7E4" />
<rect x="37" y="26" width="1" height="1" fill="#FFF7E4" />
<rect x="38" y="26" width="1" height="1" fill="#FFF7E4" />
<rect x="39" y="26" width="1" height="1" fill="#FFF7E4" />
<rect x="40" y="26" width="1" height="1" fill="#FFF7E4" />
<rect x="41" y="26" width="1" height="1" fill="#FFF7E4" />
<rect x="12" y="27" width="1" height="1" fill="#FFF7E4" />
<rect x="13" y="27" width="1" height="1" fill="#FFF7E4" />
<rect x="14" y="27" width="1" height="1" fill="#FFF7E4" />
<rect x="15" y="27" width="1" height="1" fill="#FFF7E4" />
<rect x="16" y="27" width="1" height="1" fill="#FFF7E4" />
<rect x="17" y="27" width="1" height="1" fill="#FFF7E4" />
<rect x="18" y="27" width="1" height="1" fill="#FFF7E4" />
<rect x="37" y="27" width="1" height="1" fill="#FFF7E4" />
<rect x="38" y="27" width="1" height="1" fill="#FFF7E4" />
<rect x="39" y="27" width="1" height="1" fill="#FFF7E4" />
<rect x="40" y="27" width="1" height="1" fill="#FFF7E4" />
<rect x="41" y="27" width="1" height="1" fill="#FFF7E4" />
<rect x="42" y="27" width="1" height="1" fill="#FFF7E4" />
<rect x="43" y="27" width="1" height="1" fill="#FFF7E4" />
<rect x="6" y="28" width="1" height="1" fill="#FFF7E4" />
<rect x="7" y="28" width="1" height="1" fill="#FFF7E4" />
<rect x="8" y="28" width="1" height="1" fill="#FFF7E4" />
<rect x="9" y="28" width="1" height="1" fill="#FFF7E4" />
<rect x="10" y="28" width="1" height="1" fill="#FFF7E4" />
<rect x="11" y="28" width="1" height="1" fill="#FFF7E4" />
<rect x="12" y="28" width="1" height="1" fill="#FFF7E4" />
<rect x="13" y="28" width="1" height="1" fill="#FFF7E4" />
<rect x="14" y="28" width="1" height="1" fill="#FFF7E4" />
<rect x="15" y="28" width="1" height="1" fill="#FFF7E4" />
<rect x="16" y="28" width="1" height="1" fill="#FFF7E4" />
<rect x="17" y="28" width="1" height="1" fill="#FFF7E4" />
<rect x="39" y="28" width="1" height="1" fill="#FFF7E4" />
<rect x="40" y="28" width="1" height="1" fill="#FFF7E4" />
<rect x="41" y="28" width="1" height="1" fill="#FFF7E4" />
<rect x="42" y="28" width="1" height="1" fill="#FFF7E4" />
<rect x="43" y="28" width="1" height="1" fill="#FFF7E4" />
<rect x="44" y="28" width="1" height="1" fill="#FFF7E4" />
<rect x="45" y="28" width="1" height="1" fill="#FFF7E4" />
<rect x="46" y="28" width="1" height="1" fill="#FFF7E4" />
<rect x="47" y="28" width="1" height="1" fill="#FFF7E4" />
<rect x="48" y="28" width="1" height="1" fill="#FFF7E4" />
<rect x="49" y="28" width="1" height="1" fill="#FFF7E4" />
<rect x="50" y="28" width="1" height="1" fill="#FFF7E4" />
<rect x="4" y="29" width="1" height="1" fill="#FFF7E4" />
<rect x="5" y="29" width="1" height="1" fill="#FFF7E4" />
<rect x="6" y="29" width="1" height="1" fill="#FFF7E4" />
<rect x="7" y="29" width="1" height="1" fill="#FFF7E4" />
<rect x="8" y="29" width="1" height="1" fill="#FFF7E4" />
<rect x="9" y="29" width="1" height="1" fill="#FFF7E4" />
<rect x="10" y="29" width="1" height="1" fill="#FFF7E4" />
<rect x="11" y="29" width="1" height="1" fill="#FFF7E4" />
<rect x="12" y="29" width="1" height="1" fill="#FFF7E4" />
<rect x="13" y="29" width="1" height="1" fill="#FFF7E4" />
<rect x="14" y="29" width="1" height="1" fill="#FFF7E4" />
<rect x="15" y="29" width="1" height="1" fill="#FFF7E4" />
<rect x="41" y="29" width="1" height="1" fill="#FFF7E4" />
<rect x="42" y="29" width="1" height="1" fill="#FFF7E4" />
<rect x="43" y="29" width="1" height="1" fill="#FFF7E4" />
<rect x="44" y="29" width="1" height="1" fill="#FFF7E4" />
<rect x="45" y="29" width="1" height="1" fill="#FFF7E4" />
<rect x="46" y="29" width="1" height="1" fill="#FFF7E4" />
<rect x="47" y="29" width="1" height="1" fill="#FFF7E4" />
<rect x="48" y="29" width="1" height="1" fill="#FFF7E4" />
<rect x="49" y="29" width="1" height="1" fill="#FFF7E4" />
<rect x="50" y="29" width="1" height="1" fill="#FFF7E4" />
<rect x="51" y="29" width="1" height="1" fill="#FFF7E4" />
<rect x="4" y="30" width="1" height="1" fill="#FFF7E4" />
<rect x="5" y="30" width="1" height="1" fill="#FFF7E4" />
<rect x="6" y="30" width="1" height="1" fill="#FFF7E4" />
<rect x="7" y="30" width="1" height="1" fill="#FFF7E4" />
<rect x="8" y="30" width="1" height="1" fill="#FFF7E4" />
<rect x="9" y="30" width="1" height="1" fill="#FFF7E4" />
<rect x="10" y="30" width="1" height="1" fill="#FFF7E4" />
<rect x="11" y="30" width="1" height="1" fill="#FFF7E4" />
<rect x="12" y="30" width="1" height="1" fill="#FFF7E4" />
<rect x="13" y="30" width="1" height="1" fill="#FFF7E4" />
<rect x="14" y="30" width="1" height="1" fill="#FFF7E4" />
<rect x="41" y="30" width="1" height="1" fill="#FFF7E4" />
<rect x="42" y="30" width="1" height="1" fill="#FFF7E4" />
<rect x="43" y="30" width="1" height="1" fill="#FFF7E4" />
<rect x="44" y="30" width="1" height="1" fill="#FFF7E4" />
<rect x="45" y="30" width="1" height="1" fill="#FFF7E4" />
<rect x="46" y="30" width="1" height="1" fill="#FFF7E4" />
<rect x="47" y="30" width="1" height="1" fill="#FFF7E4" />
<rect x="48" y="30" width="1" height="1" fill="#FFF7E4" />
<rect x="49" y="30" width="1" height="1" fill="#FFF7E4" />
<rect x="50" y="30" width="1" height="1" fill="#FFF7E4" />
<rect x="51" y="30" width="1" height="1" fill="#FFF7E4" />
<rect x="5" y="31" width="1" height="1" fill="#FFF7E4" />
<rect x="6" y="31" width="1" height="1" fill="#FFF7E4" />
<rect x="7" y="31" width="1" height="1" fill="#FFF7E4" />
<rect x="8" y="31" width="1" height="1" fill="#FFF7E4" />
<rect x="9" y="31" width="1" height="1" fill="#FFF7E4" />
<rect x="10" y="31" width="1" height="1" fill="#FFF7E4" />
<rect x="11" y="31" width="1" height="1" fill="#FFF7E4" />
<rect x="12" y="31" width="1" height="1" fill="#FFF7E4" />
<rect x="13" y="31" width="1" height="1" fill="#FFF7E4" />
<rect x="14" y="31" width="1" height="1" fill="#FFF7E4" />
<rect x="15" y="31" width="1" height="1" fill="#FFF7E4" />
<rect x="16" y="31" width="1" height="1" fill="#FFF7E4" />
<rect x="39" y="31" width="1" height="1" fill="#FFF7E4" />
<rect x="40" y="31" width="1" height="1" fill="#FFF7E4" />
<rect x="41" y="31" width="1" height="1" fill="#FFF7E4" />
<rect x="42" y="31" width="1" height="1" fill="#FFF7E4" />
<rect x="43" y="31" width="1" height="1" fill="#FFF7E4" />
<rect x="44" y="31" width="1" height="1" fill="#FFF7E4" />
<rect x="45" y="31" width="1" height="1" fill="#FFF7E4" />
<rect x="46" y="31" width="1" height="1" fill="#FFF7E4" />
<rect x="47" y="31" width="1" height="1" fill="#FFF7E4" />
<rect x="48" y="31" width="1" height="1" fill="#FFF7E4" />
<rect x="49" y="31" width="1" height="1" fill="#FFF7E4" />
<rect x="50" y="31" width="1" height="1" fill="#FFF7E4" />
<rect x="51" y="31" width="1" height="1" fill="#FFF7E4" />
<rect x="11" y="32" width="1" height="1" fill="#FFF7E4" />
<rect x="12" y="32" width="1" height="1" fill="#FFF7E4" />
<rect x="13" y="32" width="1" height="1" fill="#FFF7E4" />
<rect x="14" y="32" width="1" height="1" fill="#FFF7E4" />
<rect x="15" y="32" width="1" height="1" fill="#FFF7E4" />
<rect x="16" y="32" width="1" height="1" fill="#FFF7E4" />
<rect x="17" y="32" width="1" height="1" fill="#FFF7E4" />
<rect x="18" y="32" width="1" height="1" fill="#FFF7E4" />
<rect x="38" y="32" width="1" height="1" fill="#FFF7E4" />
<rect x="39" y="32" width="1" height="1" fill="#FFF7E4" />
<rect x="40" y="32" width="1" height="1" fill="#FFF7E4" />
<rect x="41" y="32" width="1" height="1" fill="#FFF7E4" />
<rect x="42" y="32" width="1" height="1" fill="#FFF7E4" />
<rect x="43" y="32" width="1" height="1" fill="#FFF7E4" />
<rect x="44" y="32" width="1" height="1" fill="#FFF7E4" />
<rect x="14" y="33" width="1" height="1" fill="#FFF7E4" />
<rect x="15" y="33" width="1" height="1" fill="#FFF7E4" />
<rect x="16" y="33" width="1" height="1" fill="#FFF7E4" />
<rect x="17" y="33" width="1" height="1" fill="#FFF7E4" />
<rect x="18" y="33" width="1" height="1" fill="#FFF7E4" />
<rect x="19" y="33" width="1" height="1" fill="#FFF7E4" />
<rect x="37" y="33" width="1" height="1" fill="#FFF7E4" />
<rect x="38" y="33" width="1" height="1" fill="#FFF7E4" />
<rect x="39" y="33" width="1" height="1" fill="#FFF7E4" />
<rect x="40" y="33" width="1" height="1" fill="#FFF7E4" />
<rect x="41" y="33" width="1" height="1" fill="#FFF7E4" />
<rect x="16" y="34" width="1" height="1" fill="#FFF7E4" />
<rect x="17" y="34" width="1" height="1" fill="#FFF7E4" />
<rect x="18" y="34" width="1" height="1" fill="#FFF7E4" />
<rect x="19" y="34" width="1" height="1" fill="#FFF7E4" />
<rect x="20" y="34" width="1" height="1" fill="#FFF7E4" />
<rect x="21" y="34" width="1" height="1" fill="#FFF7E4" />
<rect x="36" y="34" width="1" height="1" fill="#FFF7E4" />
<rect x="37" y="34" width="1" height="1" fill="#FFF7E4" />
<rect x="38" y="34" width="1" height="1" fill="#FFF7E4" />
<rect x="39" y="34" width="1" height="1" fill="#FFF7E4" />
<rect x="18" y="35" width="1" height="1" fill="#FFF7E4" />
<rect x="19" y="35" width="1" height="1" fill="#FFF7E4" />
<rect x="20" y="35" width="1" height="1" fill="#FFF7E4" />
<rect x="21" y="35" width="1" height="1" fill="#FFF7E4" />
<rect x="22" y="35" width="1" height="1" fill="#FFF7E4" />
<rect x="34" y="35" width="1" height="1" fill="#FFF7E4" />
<rect x="35" y="35" width="1" height="1" fill="#FFF7E4" />
<rect x="36" y="35" width="1" height="1" fill="#FFF7E4" />
<rect x="37" y="35" width="1" height="1" fill="#FFF7E4" />
<rect x="38" y="35" width="1" height="1" fill="#FFF7E4" />
<rect x="19" y="36" width="1" height="1" fill="#FFF7E4" />
<rect x="20" y="36" width="1" height="1" fill="#FFF7E4" />
<rect x="21" y="36" width="1" height="1" fill="#FFF7E4" />
<rect x="22" y="36" width="1" height="1" fill="#FFF7E4" />
<rect x="23" y="36" width="1" height="1" fill="#FFF7E4" />
<rect x="33" y="36" width="1" height="1" fill="#FFF7E4" />
<rect x="34" y="36" width="1" height="1" fill="#FFF7E4" />
<rect x="35" y="36" width="1" height="1" fill="#FFF7E4" />
<rect x="36" y="36" width="1" height="1" fill="#FFF7E4" />
<rect x="37" y="36" width="1" height="1" fill="#FFF7E4" />
<rect x="50" y="36" width="1" height="1" fill="#FFF7E4" />
<rect x="51" y="36" width="1" height="1" fill="#FFF7E4" />
<rect x="52" y="36" width="1" height="1" fill="#FFF7E4" />
<rect x="20" y="37" width="1" height="1" fill="#FFF7E4" />
<rect x="21" y="37" width="1" height="1" fill="#FFF7E4" />
<rect x="22" y="37" width="1" height="1" fill="#FFF7E4" />
<rect x="23" y="37" width="1" height="1" fill="#FFF7E4" />
<rect x="32" y="37" width="1" height="1" fill="#FFF7E4" />
<rect x="33" y="37" width="1" height="1" fill="#FFF7E4" />
<rect x="34" y="37" width="1" height="1" fill="#FFF7E4" />
<rect x="35" y="37" width="1" height="1" fill="#FFF7E4" />
<rect x="50" y="37" width="1" height="1" fill="#FFF7E4" />
<rect x="51" y="37" width="1" height="1" fill="#FFF7E4" />
<rect x="52" y="37" width="1" height="1" fill="#FFF7E4" />
<rect x="21" y="38" width="1" height="1" fill="#FFF7E4" />
<rect x="22" y="38" width="1" height="1" fill="#FFF7E4" />
<rect x="23" y="38" width="1" height="1" fill="#FFF7E4" />
<rect x="24" y="38" width="1" height="1" fill="#FFF7E4" />
<rect x="31" y="38" width="1" height="1" fill="#FFF7E4" />
<rect x="32" y="38" width="1" height="1" fill="#FFF7E4" />
<rect x="33" y="38" width="1" height="1" fill="#FFF7E4" />
<rect x="34" y="38" width="1" height="1" fill="#FFF7E4" />
<rect x="50" y="38" width="1" height="1" fill="#FFF7E4" />
<rect x="51" y="38" width="1" height="1" fill="#FFF7E4" />
<rect x="52" y="38" width="1" height="1" fill="#FFF7E4" />
<rect x="22" y="39" width="1" height="1" fill="#FFF7E4" />
<rect x="23" y="39" width="1" height="1" fill="#FFF7E4" />
<rect x="24" y="39" width="1" height="1" fill="#FFF7E4" />
<rect x="25" y="39" width="1" height="1" fill="#FFF7E4" />
<rect x="31" y="39" width="1" height="1" fill="#FFF7E4" />
<rect x="32" y="39" width="1" height="1" fill="#FFF7E4" />
<rect x="33" y="39" width="1" height="1" fill="#FFF7E4" />
<rect x="50" y="39" width="1" height="1" fill="#FFF7E4" />
<rect x="51" y="39" width="1" height="1" fill="#FFF7E4" />
<rect x="52" y="39" width="1" height="1" fill="#FFF7E4" />
<rect x="23" y="40" width="1" height="1" fill="#FFF7E4" />
<rect x="24" y="40" width="1" height="1" fill="#FFF7E4" />
<rect x="25" y="40" width="1" height="1" fill="#FFF7E4" />
<rect x="26" y="40" width="1" height="1" fill="#FFF7E4" />
<rect x="30" y="40" width="1" height="1" fill="#FFF7E4" />
<rect x="31" y="40" width="1" height="1" fill="#FFF7E4" />
<rect x="32" y="40" width="1" height="1" fill="#FFF7E4" />
<rect x="49" y="40" width="1" height="1" fill="#FFF7E4" />
<rect x="50" y="40" width="1" height="1" fill="#FFF7E4" />
<rect x="51" y="40" width="1" height="1" fill="#FFF7E4" />
<rect x="52" y="40" width="1" height="1" fill="#FFF7E4" />
<rect x="53" y="40" width="1" height="1" fill="#FFF7E4" />
<rect x="23" y="41" width="1" height="1" fill="#FFF7E4" />
<rect x="24" y="41" width="1" height="1" fill="#FFF7E4" />
<rect x="25" y="41" width="1" height="1" fill="#FFF7E4" />
<rect x="26" y="41" width="1" height="1" fill="#FFF7E4" />
<rect x="29" y="41" width="1" height="1" fill="#FFF7E4" />
<rect x="30" y="41" width="1" height="1" fill="#FFF7E4" />
<rect x="31" y="41" width="1" height="1" fill="#FFF7E4" />
<rect x="32" y="41" width="1" height="1" fill="#FFF7E4" />
<rect x="49" y="41" width="1" height="1" fill="#FFF7E4" />
<rect x="50" y="41" width="1" height="1" fill="#FFF7E4" />
<rect x="51" y="41" width="1" height="1" fill="#FFF7E4" />
<rect x="52" y="41" width="1" height="1" fill="#FFF7E4" />
<rect x="53" y="41" width="1" height="1" fill="#FFF7E4" />
<rect x="24" y="42" width="1" height="1" fill="#FFF7E4" />
<rect x="25" y="42" width="1" height="1" fill="#FFF7E4" />
<rect x="26" y="42" width="1" height="1" fill="#FFF7E4" />
<rect x="27" y="42" width="1" height="1" fill="#FFF7E4" />
<rect x="29" y="42" width="1" height="1" fill="#FFF7E4" />
<rect x="30" y="42" width="1" height="1" fill="#FFF7E4" />
<rect x="31" y="42" width="1" height="1" fill="#FFF7E4" />
<rect x="32" y="42" width="1" height="1" fill="#FFF7E4" />
<rect x="49" y="42" width="1" height="1" fill="#FFF7E4" />
<rect x="50" y="42" width="1" height="1" fill="#FFF7E4" />
<rect x="51" y="42" width="1" height="1" fill="#FFF7E4" />
<rect x="52" y="42" width="1" height="1" fill="#FFF7E4" />
<rect x="53" y="42" width="1" height="1" fill="#FFF7E4" />
<rect x="25" y="43" width="1" height="1" fill="#FFF7E4" />
<rect x="26" y="43" width="1" height="1" fill="#FFF7E4" />
<rect x="27" y="43" width="1" height="1" fill="#FFF7E4" />
<rect x="28" y="43" width="1" height="1" fill="#FFF7E4" />
<rect x="29" y="43" width="1" height="1" fill="#FFF7E4" />
<rect x="30" y="43" width="1" height="1" fill="#FFF7E4" />
<rect x="31" y="43" width="1" height="1" fill="#FFF7E4" />
<rect x="48" y="43" width="1" height="1" fill="#FFF7E4" />
<rect x="49" y="43" width="1" height="1" fill="#FFF7E4" />
<rect x="50" y="43" width="1" height="1" fill="#FFF7E4" />
<rect x="51" y="43" width="1" height="1" fill="#FFF7E4" />
<rect x="52" y="43" width="1" height="1" fill="#FFF7E4" />
<rect x="53" y="43" width="1" height="1" fill="#FFF7E4" />
<rect x="54" y="43" width="1" height="1" fill="#FFF7E4" />
<rect x="25" y="44" width="1" height="1" fill="#FFF7E4" />
<rect x="26" y="44" width="1" height="1" fill="#FFF7E4" />
<rect x="27" y="44" width="1" height="1" fill="#FFF7E4" />
<rect x="28" y="44" width="1" height="1" fill="#FFF7E4" />
<rect x="29" y="44" width="1" height="1" fill="#FFF7E4" />
<rect x="30" y="44" width="1" height="1" fill="#FFF7E4" />
<rect x="31" y="44" width="1" height="1" fill="#FFF7E4" />
<rect x="47" y="44" width="1" height="1" fill="#FFF7E4" />
<rect x="48" y="44" width="1" height="1" fill="#FFF7E4" />
<rect x="49" y="44" width="1" height="1" fill="#FFF7E4" />
<rect x="50" y="44" width="1" height="1" fill="#FFF7E4" />
<rect x="52" y="44" width="1" height="1" fill="#FFF7E4" />
<rect x="53" y="44" width="1" height="1" fill="#FFF7E4" />
<rect x="54" y="44" width="1" height="1" fill="#FFF7E4" />
<rect x="55" y="44" width="1" height="1" fill="#FFF7E4" />
<rect x="25" y="45" width="1" height="1" fill="#FFF7E4" />
<rect x="26" y="45" width="1" height="1" fill="#FFF7E4" />
<rect x="27" y="45" width="1" height="1" fill="#FFF7E4" />
<rect x="28" y="45" width="1" height="1" fill="#FFF7E4" />
<rect x="29" y="45" width="1" height="1" fill="#FFF7E4" />
<rect x="30" y="45" width="1" height="1" fill="#FFF7E4" />
<rect x="46" y="45" width="1" height="1" fill="#FFF7E4" />
<rect x="47" y="45" width="1" height="1" fill="#FFF7E4" />
<rect x="48" y="45" width="1" height="1" fill="#FFF7E4" />
<rect x="49" y="45" width="1" height="1" fill="#FFF7E4" />
<rect x="53" y="45" width="1" height="1" fill="#FFF7E4" />
<rect x="54" y="45" width="1" height="1" fill="#FFF7E4" />
<rect x="55" y="45" width="1" height="1" fill="#FFF7E4" />
<rect x="56" y="45" width="1" height="1" fill="#FFF7E4" />
<rect x="26" y="46" width="1" height="1" fill="#FFF7E4" />
<rect x="27" y="46" width="1" height="1" fill="#FFF7E4" />
<rect x="28" y="46" width="1" height="1" fill="#FFF7E4" />
<rect x="29" y="46" width="1" height="1" fill="#FFF7E4" />
<rect x="30" y="46" width="1" height="1" fill="#FFF7E4" />
<rect x="44" y="46" width="1" height="1" fill="#FFF7E4" />
<rect x="45" y="46" width="1" height="1" fill="#FFF7E4" />
<rect x="46" y="46" width="1" height="1" fill="#FFF7E4" />
<rect x="47" y="46" width="1" height="1" fill="#FFF7E4" />
<rect x="48" y="46" width="1" height="1" fill="#FFF7E4" />
<rect x="49" y="46" width="1" height="1" fill="#FFF7E4" />
<rect x="53" y="46" width="1" height="1" fill="#FFF7E4" />
<rect x="54" y="46" width="1" height="1" fill="#FFF7E4" />
<rect x="55" y="46" width="1" height="1" fill="#FFF7E4" />
<rect x="56" y="46" width="1" height="1" fill="#FFF7E4" />
<rect x="57" y="46" width="1" height="1" fill="#FFF7E4" />
<rect x="58" y="46" width="1" height="1" fill="#FFF7E4" />
<rect x="26" y="47" width="1" height="1" fill="#FFF7E4" />
<rect x="27" y="47" width="1" height="1" fill="#FFF7E4" />
<rect x="28" y="47" width="1" height="1" fill="#FFF7E4" />
<rect x="29" y="47" width="1" height="1" fill="#FFF7E4" />
<rect x="30" y="47" width="1" height="1" fill="#FFF7E4" />
<rect x="39" y="47" width="1" height="1" fill="#FFF7E4" />
<rect x="40" y="47" width="1" height="1" fill="#FFF7E4" />
<rect x="41" y="47" width="1" height="1" fill="#FFF7E4" />
<rect x="42" y="47" width="1" height="1" fill="#FFF7E4" />
<rect x="43" y="47" width="1" height="1" fill="#FFF7E4" />
<rect x="44" y="47" width="1" height="1" fill="#FFF7E4" />
<rect x="45" y="47" width="1" height="1" fill="#FFF7E4" />
<rect x="46" y="47" width="1" height="1" fill="#FFF7E4" />
<rect x="47" y="47" width="1" height="1" fill="#FFF7E4" />
<rect x="55" y="47" width="1" height="1" fill="#FFF7E4" />
<rect x="56" y="47" width="1" height="1" fill="#FFF7E4" />
<rect x="57" y="47" width="1" height="1" fill="#FFF7E4" />
<rect x="58" y="47" width="1" height="1" fill="#FFF7E4" />
<rect x="59" y="47" width="1" height="1" fill="#FFF7E4" />
<rect x="60" y="47" width="1" height="1" fill="#FFF7E4" />
<rect x="61" y="47" width="1" height="1" fill="#FFF7E4" />
<rect x="62" y="47" width="1" height="1" fill="#FFF7E4" />
<rect x="63" y="47" width="1" height="1" fill="#FFF7E4" />
<rect x="26" y="48" width="1" height="1" fill="#FFF7E4" />
<rect x="27" y="48" width="1" height="1" fill="#FFF7E4" />
<rect x="28" y="48" width="1" height="1" fill="#FFF7E4" />
<rect x="29" y="48" width="1" height="1" fill="#FFF7E4" />
<rect x="39" y="48" width="1" height="1" fill="#FFF7E4" />
<rect x="40" y="48" width="1" height="1" fill="#FFF7E4" />
<rect x="41" y="48" width="1" height="1" fill="#FFF7E4" />
<rect x="42" y="48" width="1" height="1" fill="#FFF7E4" />
<rect x="43" y="48" width="1" height="1" fill="#FFF7E4" />
<rect x="44" y="48" width="1" height="1" fill="#FFF7E4" />
<rect x="45" y="48" width="1" height="1" fill="#FFF7E4" />
<rect x="46" y="48" width="1" height="1" fill="#FFF7E4" />
<rect x="56" y="48" width="1" height="1" fill="#FFF7E4" />
<rect x="57" y="48" width="1" height="1" fill="#FFF7E4" />
<rect x="58" y="48" width="1" height="1" fill="#FFF7E4" />
<rect x="59" y="48" width="1" height="1" fill="#FFF7E4" />
<rect x="60" y="48" width="1" height="1" fill="#FFF7E4" />
<rect x="61" y="48" width="1" height="1" fill="#FFF7E4" />
<rect x="62" y="48" width="1" height="1" fill="#FFF7E4" />
<rect x="63" y="48" width="1" height="1" fill="#FFF7E4" />
<rect x="26" y="49" width="1" height="1" fill="#FFF7E4" />
<rect x="27" y="49" width="1" height="1" fill="#FFF7E4" />
<rect x="28" y="49" width="1" height="1" fill="#FFF7E4" />
<rect x="29" y="49" width="1" height="1" fill="#FFF7E4" />
<rect x="39" y="49" width="1" height="1" fill="#FFF7E4" />
<rect x="40" y="49" width="1" height="1" fill="#FFF7E4" />
<rect x="41" y="49" width="1" height="1" fill="#FFF7E4" />
<rect x="42" y="49" width="1" height="1" fill="#FFF7E4" />
<rect x="43" y="49" width="1" height="1" fill="#FFF7E4" />
<rect x="44" y="49" width="1" height="1" fill="#FFF7E4" />
<rect x="45" y="49" width="1" height="1" fill="#FFF7E4" />
<rect x="46" y="49" width="1" height="1" fill="#FFF7E4" />
<rect x="56" y="49" width="1" height="1" fill="#FFF7E4" />
<rect x="57" y="49" width="1" height="1" fill="#FFF7E4" />
<rect x="58" y="49" width="1" height="1" fill="#FFF7E4" />
<rect x="59" y="49" width="1" height="1" fill="#FFF7E4" />
<rect x="60" y="49" width="1" height="1" fill="#FFF7E4" />
<rect x="61" y="49" width="1" height="1" fill="#FFF7E4" />
<rect x="62" y="49" width="1" height="1" fill="#FFF7E4" />
<rect x="63" y="49" width="1" height="1" fill="#FFF7E4" />
<rect x="27" y="50" width="1" height="1" fill="#FFF7E4" />
<rect x="28" y="50" width="1" height="1" fill="#FFF7E4" />
<rect x="29" y="50" width="1" height="1" fill="#FFF7E4" />
<rect x="40" y="50" width="1" height="1" fill="#FFF7E4" />
<rect x="41" y="50" width="1" height="1" fill="#FFF7E4" />
<rect x="42" y="50" width="1" height="1" fill="#FFF7E4" />
<rect x="43" y="50" width="1" height="1" fill="#FFF7E4" />
<rect x="44" y="50" width="1" height="1" fill="#FFF7E4" />
<rect x="45" y="50" width="1" height="1" fill="#FFF7E4" />
<rect x="46" y="50" width="1" height="1" fill="#FFF7E4" />
<rect x="47" y="50" width="1" height="1" fill="#FFF7E4" />
<rect x="48" y="50" width="1" height="1" fill="#FFF7E4" />
<rect x="54" y="50" width="1" height="1" fill="#FFF7E4" />
<rect x="55" y="50" width="1" height="1" fill="#FFF7E4" />
<rect x="56" y="50" width="1" height="1" fill="#FFF7E4" />
<rect x="57" y="50" width="1" height="1" fill="#FFF7E4" />
<rect x="58" y="50" width="1" height="1" fill="#FFF7E4" />
<rect x="59" y="50" width="1" height="1" fill="#FFF7E4" />
<rect x="60" y="50" width="1" height="1" fill="#FFF7E4" />
<rect x="61" y="50" width="1" height="1" fill="#FFF7E4" />
<rect x="62" y="50" width="1" height="1" fill="#FFF7E4" />
<rect x="27" y="51" width="1" height="1" fill="#FFF7E4" />
<rect x="28" y="51" width="1" height="1" fill="#FFF7E4" />
<rect x="29" y="51" width="1" height="1" fill="#FFF7E4" />
<rect x="44" y="51" width="1" height="1" fill="#FFF7E4" />
<rect x="45" y="51" width="1" height="1" fill="#FFF7E4" />
<rect x="46" y="51" width="1" height="1" fill="#FFF7E4" />
<rect x="47" y="51" width="1" height="1" fill="#FFF7E4" />
<rect x="48" y="51" width="1" height="1" fill="#FFF7E4" />
<rect x="49" y="51" width="1" height="1" fill="#FFF7E4" />
<rect x="53" y="51" width="1" height="1" fill="#FFF7E4" />
<rect x="54" y="51" width="1" height="1" fill="#FFF7E4" />
<rect x="55" y="51" width="1" height="1" fill="#FFF7E4" />
<rect x="56" y="51" width="1" height="1" fill="#FFF7E4" />
<rect x="57" y="51" width="1" height="1" fill="#FFF7E4" />
<rect x="58" y="51" width="1" height="1" fill="#FFF7E4" />
<rect x="27" y="52" width="1" height="1" fill="#FFF7E4" />
<rect x="28" y="52" width="1" height="1" fill="#FFF7E4" />
<rect x="29" y="52" width="1" height="1" fill="#FFF7E4" />
<rect x="46" y="52" width="1" height="1" fill="#FFF7E4" />
<rect x="47" y="52" width="1" height="1" fill="#FFF7E4" />
<rect x="48" y="52" width="1" height="1" fill="#FFF7E4" />
<rect x="49" y="52" width="1" height="1" fill="#FFF7E4" />
<rect x="50" y="52" width="1" height="1" fill="#FFF7E4" />
<rect x="52" y="52" width="1" height="1" fill="#FFF7E4" />
<rect x="53" y="52" width="1" height="1" fill="#FFF7E4" />
<rect x="54" y="52" width="1" height="1" fill="#FFF7E4" />
<rect x="55" y="52" width="1" height="1" fill="#FFF7E4" />
<rect x="56" y="52" width="1" height="1" fill="#FFF7E4" />
<rect x="27" y="53" width="1" height="1" fill="#FFF7E4" />
<rect x="28" y="53" width="1" height="1" fill="#FFF7E4" />
<rect x="29" y="53" width="1" height="1" fill="#FFF7E4" />
<rect x="47" y="53" width="1" height="1" fill="#FFF7E4" />
<rect x="48" y="53" width="1" height="1" fill="#FFF7E4" />
<rect x="49" y="53" width="1" height="1" fill="#FFF7E4" />
<rect x="50" y="53" width="1" height="1" fill="#FFF7E4" />
<rect x="52" y="53" width="1" height="1" fill="#FFF7E4" />
<rect x="53" y="53" width="1" height="1" fill="#FFF7E4" />
<rect x="54" y="53" width="1" height="1" fill="#FFF7E4" />
<rect x="55" y="53" width="1" height="1" fill="#FFF7E4" />
<rect x="48" y="54" width="1" height="1" fill="#FFF7E4" />
<rect x="49" y="54" width="1" height="1" fill="#FFF7E4" />
<rect x="50" y="54" width="1" height="1" fill="#FFF7E4" />
<rect x="51" y="54" width="1" height="1" fill="#FFF7E4" />
<rect x="52" y="54" width="1" height="1" fill="#FFF7E4" />
<rect x="53" y="54" width="1" height="1" fill="#FFF7E4" />
<rect x="54" y="54" width="1" height="1" fill="#FFF7E4" />
<rect x="49" y="55" width="1" height="1" fill="#FFF7E4" />
<rect x="50" y="55" width="1" height="1" fill="#FFF7E4" />
<rect x="51" y="55" width="1" height="1" fill="#FFF7E4" />
<rect x="52" y="55" width="1" height="1" fill="#FFF7E4" />
<rect x="53" y="55" width="1" height="1" fill="#FFF7E4" />
<rect x="49" y="56" width="1" height="1" fill="#FFF7E4" />
<rect x="50" y="56" width="1" height="1" fill="#FFF7E4" />
<rect x="51" y="56" width="1" height="1" fill="#FFF7E4" />
<rect x="52" y="56" width="1" height="1" fill="#FFF7E4" />
<rect x="53" y="56" width="1" height="1" fill="#FFF7E4" />
<rect x="49" y="57" width="1" height="1" fill="#FFF7E4" />
<rect x="50" y="57" width="1" height="1" fill="#FFF7E4" />
<rect x="51" y="57" width="1" height="1" fill="#FFF7E4" />
<rect x="52" y="57" width="1" height="1" fill="#FFF7E4" />
<rect x="53" y="57" width="1" height="1" fill="#FFF7E4" />
<rect x="50" y="58" width="1" height="1" fill="#FFF7E4" />
<rect x="51" y="58" width="1" height="1" fill="#FFF7E4" />
<rect x="52" y="58" width="1" height="1" fill="#FFF7E4" />
<rect x="50" y="59" width="1" height="1" fill="#FFF7E4" />
<rect x="51" y="59" width="1" height="1" fill="#FFF7E4" />
<rect x="52" y="59" width="1" height="1" fill="#FFF7E4" />
<rect x="50" y="60" width="1" height="1" fill="#FFF7E4" />
<rect x="51" y="60" width="1" height="1" fill="#FFF7E4" />
<rect x="52" y="60" width="1" height="1" fill="#FFF7E4" />
<rect x="51" y="61" width="1" height="1" fill="#FFF7E4" />
</svg>