<svg id="Capa_1" data-name="Capa 1" xmlns="http://www.w3.org/2000/svg" xmlns:xlink="http://www.w3.org/1999/xlink" viewBox="0 0 1570 1177"><defs><style>.cls-1,.cls-5{fill:none;}.cls-2{clip-path:url(#clip-path);}.cls-3{fill:#eddec8;}.cls-4{clip-path:url(#clip-path-2);}.cls-5{stroke:#fff;stroke-width:9.11px;}.cls-12,.cls-13,.cls-14,.cls-15,.cls-16,.cls-17,.cls-18,.cls-19,.cls-5,.cls-55,.cls-6,.cls-7{stroke-miterlimit:10;}.cls-13,.cls-17,.cls-6{fill:#ff457e;}.cls-12,.cls-13,.cls-14,.cls-15,.cls-16,.cls-17,.cls-18,.cls-19,.cls-55,.cls-6,.cls-7{stroke:#010101;}.cls-6,.cls-7{stroke-width:2.63px;}.cls-55,.cls-7{fill:#4691ca;}.cls-8{font-size:68px;letter-spacing:0.06em;}.cls-20,.cls-31,.cls-39,.cls-50,.cls-8{font-family:BebasKai, Bebas Kai;}.cls-9{letter-spacing:0.06em;}.cls-10{letter-spacing:0.05em;}.cls-11{letter-spacing:0.06em;}.cls-12,.cls-18{fill:#25295c;}.cls-12,.cls-13,.cls-14,.cls-15{stroke-width:2.21px;}.cls-14,.cls-16{fill:#fdc206;}.cls-15,.cls-31,.cls-49,.cls-50{fill:#fff;}.cls-16,.cls-17,.cls-18,.cls-19{stroke-width:3.68px;}.cls-19{fill:#f4f3f4;}.cls-20{font-size:34.13px;fill:#010101;letter-spacing:0.04em;}.cls-21{letter-spacing:0.04em;}.cls-22{letter-spacing:0.04em;}.cls-23{letter-spacing:0.04em;}.cls-24{letter-spacing:0.03em;}.cls-25{letter-spacing:0.04em;}.cls-26{letter-spacing:0.05em;}.cls-27{letter-spacing:0.03em;}.cls-28{letter-spacing:0.04em;}.cls-29{letter-spacing:0.04em;}.cls-30{letter-spacing:0.03em;}.cls-31{font-size:87px;letter-spacing:0.06em;}.cls-32{letter-spacing:-0.02em;}.cls-33{font-size:67px;letter-spacing:0.06em;}.cls-34{letter-spacing:0.05em;}.cls-35{letter-spacing:0em;}.cls-36{letter-spacing:0.07em;}.cls-37{letter-spacing:0.06em;}.cls-38{letter-spacing:0.02em;}.cls-39{font-size:60px;}.cls-40{letter-spacing:-0.01em;}.cls-41{letter-spacing:0em;}.cls-42{letter-spacing:0em;}.cls-43{letter-spacing:-0.01em;}.cls-44{letter-spacing:-0.01em;}.cls-45{letter-spacing:0em;}.cls-46{letter-spacing:0em;}.cls-47{letter-spacing:-0.03em;}.cls-48{letter-spacing:-0.02em;}.cls-50{font-size:75px;}.cls-51{letter-spacing:0em;}.cls-52{letter-spacing:-0.03em;}.cls-53{letter-spacing:-0.01em;}.cls-54{letter-spacing:-0.01em;}.cls-55{stroke-width:0.7px;}</style><clipPath id="clip-path"><rect class="cls-1" x="-0.02" y="-0.45" width="1567.02" height="1177.45"/></clipPath><clipPath id="clip-path-2"><rect class="cls-1" x="-980.02" y="-77.45" width="3240" height="1350"/></clipPath></defs><title>WebENJM</title><g class="cls-2"><rect class="cls-3" x="-980.02" y="-77.45" width="3240" height="1350"/><g class="cls-4"><path class="cls-5" d="M72.35,16.38q0,3.07.35,9.49t.51,12.21q.17,5.82.25,12.9A110.46,110.46,0,0,1,73,63.8a86.21,86.21,0,0,1-1.79,10.76,17.38,17.38,0,0,1-3.68,7.78,7.87,7.87,0,0,1-6.06,2.73H-16.5q-8.2-6.31-8.2-47.16,0-14.86.17-35.79t.17-29.82v-12c0-1-.08-3-.25-5.9a56.67,56.67,0,0,1-.09-6.75Q-31.54-27.53-41.44,18.6T-55.11,80.29q-1.71,4.78-15.72,4.78h-60.49q-11.12,0-13-5.81l-16.4-71.42q-2.22-10.93-4.87-22.73t-6.24-26.82q-3.59-15-5.29-22.21-2.05,54.68-2,83.38V49.53q0,20.16.34,30.42c-.69,2.5-1.94,3.76-3.76,3.76h-16.06q-10.1,0-29.56.17t-29.56.17Q-267,84.05-267,81V-172.6a4.59,4.59,0,0,1,.77-2.65,4.81,4.81,0,0,1,2.39-1.7,24.86,24.86,0,0,1,3.16-.94,22.47,22.47,0,0,1,3.93-.43c1.6-.06,2.91-.11,3.93-.17s2.34-.06,3.93,0,2.62.08,3.08.08h20.16q48.69,0,68.6,1.37t30.5,1.37q4.11,22.89,13,68l13,68,27.33-138.06a21.31,21.31,0,0,0,3.42.68q18.29,0,54-.51t54-.51H63.47q4.78.51,4.78,9.56Q72-2.93,72.35,16.38Z"/><path class="cls-5" d="M72.35,334.39q0,3.08.35,9.48t.51,12.22q.17,5.81.25,12.9A110.19,110.19,0,0,1,73,381.8a86.37,86.37,0,0,1-1.79,10.77,17.39,17.39,0,0,1-3.68,7.77,7.88,7.88,0,0,1-6.06,2.74H-16.5q-8.2-6.33-8.2-47.16,0-14.87.17-35.8t.17-29.82v-12c0-1-.08-3-.25-5.89a56.68,56.68,0,0,1-.09-6.75q-6.84,24.78-16.74,70.91t-13.67,61.68q-1.71,4.79-15.72,4.79h-60.49q-11.12,0-13-5.81l-16.4-71.43q-2.22-10.92-4.87-22.72t-6.24-26.83q-3.59-15-5.29-22.21-2.05,54.67-2,83.38v30.08q0,20.16.34,30.41-1,3.76-3.76,3.76h-16.06q-10.1,0-29.56.17t-29.56.17q-9.23,0-9.23-3.07V145.41a4.55,4.55,0,0,1,.77-2.65,4.83,4.83,0,0,1,2.39-1.71,24.86,24.86,0,0,1,3.16-.94,22.47,22.47,0,0,1,3.93-.43c1.6-.05,2.91-.11,3.93-.17s2.34,0,3.93,0,2.62.09,3.08.09h20.16q48.69,0,68.6,1.37t30.5,1.36q4.11,22.9,13,68l13,68,27.33-138.06a20.64,20.64,0,0,0,3.42.69q18.29,0,54-.52t54-.51H63.47q4.78.51,4.78,9.57Q72,315.08,72.35,334.39Z"/><path class="cls-5" d="M72.35,652.39q0,3.08.35,9.49t.51,12.21q.17,5.82.25,12.9A110.46,110.46,0,0,1,73,699.81a86.21,86.21,0,0,1-1.79,10.76,17.49,17.49,0,0,1-3.68,7.78,7.87,7.87,0,0,1-6.06,2.73H-16.5q-8.2-6.32-8.2-47.16,0-14.86.17-35.79t.17-29.82v-12c0-1-.08-3-.25-5.9a56.67,56.67,0,0,1-.09-6.75q-6.84,24.78-16.74,70.91T-55.11,716.3q-1.71,4.79-15.72,4.78h-60.49q-11.12,0-13-5.81l-16.4-71.42q-2.22-10.94-4.87-22.73t-6.24-26.82q-3.59-15-5.29-22.22-2.05,54.69-2,83.39v30.07q0,20.16.34,30.42c-.69,2.5-1.94,3.76-3.76,3.76h-16.06q-10.1,0-29.56.17t-29.56.17q-9.23,0-9.23-3.08V463.41a4.59,4.59,0,0,1,.77-2.65,4.81,4.81,0,0,1,2.39-1.7,23.33,23.33,0,0,1,3.16-.94,22.47,22.47,0,0,1,3.93-.43c1.6-.06,2.91-.11,3.93-.17s2.34-.06,3.93,0,2.62.08,3.08.08h20.16q48.69,0,68.6,1.37t30.5,1.37q4.11,22.89,13,68l13,68,27.33-138.06a21.31,21.31,0,0,0,3.42.68q18.29,0,54-.51t54-.52H63.47q4.78.53,4.78,9.57Q72,633.08,72.35,652.39Z"/><path class="cls-5" d="M72.35,970.4q0,3.08.35,9.48t.51,12.22q.17,5.8.25,12.9a110.19,110.19,0,0,1-.51,12.81,86.37,86.37,0,0,1-1.79,10.77,17.39,17.39,0,0,1-3.68,7.77,7.88,7.88,0,0,1-6.06,2.74H-16.5q-8.2-6.33-8.2-47.16,0-14.86.17-35.8t.17-29.82v-12c0-1-.08-3-.25-5.89a56.69,56.69,0,0,1-.09-6.75q-6.84,24.78-16.74,70.91t-13.67,61.68q-1.71,4.79-15.72,4.79h-60.49q-11.12,0-13-5.81l-16.4-71.43q-2.22-10.92-4.87-22.72t-6.24-26.83q-3.59-15-5.29-22.21-2.05,54.67-2,83.38v30.08q0,20.16.34,30.41-1,3.76-3.76,3.76h-16.06q-10.1,0-29.56.17t-29.56.17q-9.23,0-9.23-3.07V781.42a4.55,4.55,0,0,1,.77-2.65,4.83,4.83,0,0,1,2.39-1.71,24.86,24.86,0,0,1,3.16-.94,22.47,22.47,0,0,1,3.93-.43c1.6-.05,2.91-.11,3.93-.17s2.34,0,3.93,0,2.62.09,3.08.09h20.16q48.69,0,68.6,1.36t30.5,1.37q4.11,22.9,13,68l13,68,27.33-138.06a20.16,20.16,0,0,0,3.42.68q18.29,0,54-.51t54-.51H63.47q4.78.51,4.78,9.57Q72,951.09,72.35,970.4Z"/><path class="cls-5" d="M72.35,1286.58q0,3.08.35,9.48t.51,12.22q.17,5.81.25,12.9A110.46,110.46,0,0,1,73,1334a86.52,86.52,0,0,1-1.79,10.76,17.49,17.49,0,0,1-3.68,7.78,7.87,7.87,0,0,1-6.06,2.73H-16.5q-8.2-6.33-8.2-47.16,0-14.86.17-35.8t.17-29.81v-12c0-1-.08-3-.25-5.9a56.67,56.67,0,0,1-.09-6.75q-6.84,24.78-16.74,70.91t-13.67,61.68q-1.71,4.79-15.72,4.79h-60.49q-11.12,0-13-5.81l-16.4-71.42q-2.22-10.93-4.87-22.73t-6.24-26.83q-3.59-15-5.29-22.21-2.05,54.69-2,83.39v30.07q0,20.16.34,30.41-1,3.77-3.76,3.76h-16.06q-10.1,0-29.56.17t-29.56.17q-9.23,0-9.23-3.07V1097.6a4.55,4.55,0,0,1,.77-2.65,4.83,4.83,0,0,1,2.39-1.71,24.86,24.86,0,0,1,3.16-.94,22.59,22.59,0,0,1,3.93-.42q2.4-.09,3.93-.18t3.93,0c1.6.06,2.62.09,3.08.09h20.16q48.69,0,68.6,1.37t30.5,1.36q4.11,22.9,13,68l13,68,27.33-138.07a20.64,20.64,0,0,0,3.42.69q18.29,0,54-.52t54-.51H63.47q4.78.51,4.78,9.57Q72,1267.27,72.35,1286.58Z"/><path class="cls-5" d="M92.67,74.14v-6.5q0-29.22.68-86.28T94-104.93v-70.74H292.93v61.34c0,.46-.06,1.28-.17,2.48a6.33,6.33,0,0,1-.6,2.47c-.29.46-.68,1.12-1.2,2a4.51,4.51,0,0,1-1.79,1.79,13,13,0,0,1-2.73.94,15.29,15.29,0,0,1-3.76.43h-4.79q-44.25,0-80.65-1.37-.35,2.75-1.11,8.46t-1.19,10.08q-.44,4.36-.43,8.46h81.33q5.13,0,6.84,1.37a5.38,5.38,0,0,1,1.71,4.44q0,.86-.18,2.73c-.11,1.26-.17,2.17-.17,2.74q0,8.21.52,24.26t.51,24.26c-.34,2.28-1.26,3.42-2.74,3.42a2.31,2.31,0,0,1-1.7-.68q-54,2.73-80,2.73h-4.44V11.26q15.19,0,44-1.37t43.14-1.37q11.28,0,13,4.79v13q0,8.21.34,24.27T297,74.82q0,8.55-6.84,8.54-8.88,0-27.33-.17t-28-.17q-24.6,0-70.39,1.28t-66.3,1.46l-4.79-5.47A59.81,59.81,0,0,1,92.67,74.14Z"/><path class="cls-5" d="M313.77,81V3.74q-.33-42.37,2.74-161.64v-14c0-2.51.45-4,1.37-4.45H435.43q1.71,0,6.92,13T455-130q7.42,20.43,10.51,28.11l23.92,62.54v-66.3q0-8.53.42-31.35t.26-35.63q0-4.78,27.34-4.78,8.53,0,23.41.34t18.28.34h13c1.82,0,2.73.34,2.73,1q1,47.5,1,136V78.92q-1.2,4.44-10.94,4.44h-4.44q-8.89,0-26.14.35t-26.15.34H458q-2.4-.85-9.91-21.53-8-22.38-23.92-64.76T406.39-49.57q0,10.08-.18,30.07T406,10.57q0,7.53.35,22.56t.34,22.55V77.21q0,7.86-6.84,7.86h-78.6Z"/><path class="cls-5" d="M701.65,89.86A222.3,222.3,0,0,1,667,87.38,124.7,124.7,0,0,1,637,78.66a77.24,77.24,0,0,1-24.35-16.14q-9.9-9.92-15.8-25.8T590.92,0q0-9.23,5.47-9.23h77.92q5.3,0,7.86,2.57a10.67,10.67,0,0,1,3.07,6.32c.34,2.5.66,5,.94,7.52a11.77,11.77,0,0,0,2.56,6.32Q690.89,16,695.49,16a10.13,10.13,0,0,0,6.92-2.31,12.79,12.79,0,0,0,3.76-6.92,51.3,51.3,0,0,0,1.37-8c.17-2.27.26-5.18.26-8.71V-11.3q-.18-12.3-.94-47.5t-.77-55v-58.09q0-5,7.17-5.81,5.47,0,16.41.17t16.4.17q8.2,0,24.26-.17t24.27-.17h16.06q3.93,0,5.47,4.78a68.47,68.47,0,0,0-.26,8.37q.09,5.31-.08,8.38v8.54Q814.08-95.19,814.08-54V-.36A91,91,0,0,1,810,27.49,73,73,0,0,1,799,49.36a85.21,85.21,0,0,1-16.32,16.32,95.51,95.51,0,0,1-19.56,11.7,140,140,0,0,1-21.28,7.35,152.82,152.82,0,0,1-21,4A171.21,171.21,0,0,1,701.65,89.86Z"/><path class="cls-5" d="M1191.35,16.38q0,3.07.35,9.49t.51,12.21q.16,5.82.25,12.9A110.46,110.46,0,0,1,1192,63.8a86.21,86.21,0,0,1-1.79,10.76,17.38,17.38,0,0,1-3.68,7.78,7.87,7.87,0,0,1-6.06,2.73H1102.5q-8.2-6.31-8.2-47.16,0-14.86.17-35.79t.17-29.82v-12c0-1-.08-3-.25-5.9a56.67,56.67,0,0,1-.09-6.75q-6.84,24.78-16.74,70.91t-13.67,61.69q-1.71,4.78-15.72,4.78H987.68q-11.11,0-13-5.81L958.29,7.84q-2.22-10.93-4.87-22.73t-6.24-26.82q-3.58-15-5.29-22.21-2.05,54.68-2,83.38V49.53q0,20.16.34,30.42c-.69,2.5-1.94,3.76-3.76,3.76H920.36q-10.1,0-29.56.17t-29.56.17Q852,84.05,852,81V-172.6a4.59,4.59,0,0,1,.77-2.65,4.81,4.81,0,0,1,2.39-1.7,24.86,24.86,0,0,1,3.16-.94,22.47,22.47,0,0,1,3.93-.43c1.6-.06,2.91-.11,3.93-.17s2.34-.06,3.93,0,2.62.08,3.08.08h20.16q48.69,0,68.6,1.37t30.5,1.37q4.11,22.89,13,68l13,68,27.33-138.06a21.31,21.31,0,0,0,3.42.68q18.29,0,54-.51t54-.51h25.29q4.79.51,4.78,9.56Q1191-2.93,1191.35,16.38Z"/><path class="cls-5" d="M92.67,392.14v-6.49q0-29.22.68-86.29T94,213.07V142.33H292.93v61.34c0,.46-.06,1.29-.17,2.48a6.39,6.39,0,0,1-.6,2.48c-.29.46-.68,1.11-1.2,2a4.48,4.48,0,0,1-1.79,1.8,14.22,14.22,0,0,1-2.73.94,15.78,15.78,0,0,1-3.76.43h-4.79q-44.25,0-80.65-1.37-.35,2.73-1.11,8.46t-1.19,10.08q-.44,4.35-.43,8.46h81.33q5.13,0,6.84,1.36a5.38,5.38,0,0,1,1.71,4.44c0,.58-.06,1.49-.18,2.74s-.17,2.16-.17,2.73q0,8.21.52,24.27t.51,24.26c-.34,2.28-1.26,3.42-2.74,3.42a2.28,2.28,0,0,1-1.7-.69q-54,2.74-80,2.74h-4.44v24.6q15.19,0,44-1.36t43.14-1.37q11.28,0,13,4.78v13q0,8.2.34,24.26t.34,24.27q0,8.54-6.84,8.54-8.88,0-27.33-.17t-28-.17q-24.6,0-70.39,1.28t-66.3,1.45l-4.79-5.47A59.81,59.81,0,0,1,92.67,392.14Z"/><path class="cls-5" d="M313.77,399V321.74q-.33-42.37,2.74-161.64v-14c0-2.5.45-4,1.37-4.44H435.43q1.71,0,6.92,13T455,188q7.42,20.42,10.51,28.11l23.92,62.54v-66.3q0-8.55.42-31.36t.26-35.62q0-4.78,27.34-4.79,8.53,0,23.41.35t18.28.34h13q2.73,0,2.73,1,1,47.5,1,136V396.93q-1.2,4.44-10.94,4.44h-4.44q-8.89,0-26.14.34t-26.15.34H458q-2.4-.85-9.91-21.53-8-22.38-23.92-64.76t-17.77-47.33q0,10.08-.18,30.08T406,328.58q0,7.51.35,22.55t.34,22.56v21.53q0,7.86-6.84,7.86h-78.6Z"/><path class="cls-5" d="M701.65,407.86A222.3,222.3,0,0,1,667,405.38,124.68,124.68,0,0,1,637,396.67a77.43,77.43,0,0,1-24.35-16.15q-9.9-9.9-15.8-25.8T590.92,318q0-9.23,5.47-9.22h77.92q5.3,0,7.86,2.56a10.73,10.73,0,0,1,3.07,6.32c.34,2.51.66,5,.94,7.52a11.74,11.74,0,0,0,2.56,6.32q2.14,2.56,6.75,2.57a10.13,10.13,0,0,0,6.92-2.31,12.83,12.83,0,0,0,3.76-6.92,51.5,51.5,0,0,0,1.37-8c.17-2.28.26-5.18.26-8.72v-1.36q-.18-12.3-.94-47.5t-.77-55v-58.1q0-5,7.17-5.81,5.47,0,16.41.17t16.4.17q8.2,0,24.26-.17t24.27-.17h16.06q3.93,0,5.47,4.79a68.47,68.47,0,0,0-.26,8.37q.09,5.3-.08,8.37v8.54q-1.71,52.47-1.71,93.64v53.65a91,91,0,0,1-4.1,27.85A72.9,72.9,0,0,1,799,367.37a85.45,85.45,0,0,1-16.32,16.31,95.12,95.12,0,0,1-19.56,11.71,140,140,0,0,1-21.28,7.35,152.71,152.71,0,0,1-21,4A171.21,171.21,0,0,1,701.65,407.86Z"/><path class="cls-5" d="M1191.35,334.39q0,3.08.35,9.48t.51,12.22q.16,5.81.25,12.9a110.19,110.19,0,0,1-.51,12.81,86.37,86.37,0,0,1-1.79,10.77,17.39,17.39,0,0,1-3.68,7.77,7.88,7.88,0,0,1-6.06,2.74H1102.5q-8.2-6.33-8.2-47.16,0-14.87.17-35.8t.17-29.82v-12c0-1-.08-3-.25-5.89a56.68,56.68,0,0,1-.09-6.75q-6.84,24.78-16.74,70.91t-13.67,61.68q-1.71,4.79-15.72,4.79H987.68q-11.11,0-13-5.81l-16.4-71.43q-2.22-10.92-4.87-22.72t-6.24-26.83q-3.58-15-5.29-22.21-2.05,54.67-2,83.38v30.08q0,20.16.34,30.41-1,3.76-3.76,3.76H920.36q-10.1,0-29.56.17t-29.56.17q-9.22,0-9.23-3.07V145.41a4.55,4.55,0,0,1,.77-2.65,4.83,4.83,0,0,1,2.39-1.71,24.86,24.86,0,0,1,3.16-.94,22.47,22.47,0,0,1,3.93-.43c1.6-.05,2.91-.11,3.93-.17s2.34,0,3.93,0,2.62.09,3.08.09h20.16q48.69,0,68.6,1.37t30.5,1.36q4.11,22.9,13,68l13,68,27.33-138.06a20.64,20.64,0,0,0,3.42.69q18.29,0,54-.52t54-.51h25.29q4.79.51,4.78,9.57Q1191,315.08,1191.35,334.39Z"/><path class="cls-5" d="M92.67,710.15v-6.5q0-29.22.68-86.29T94,531.08V460.34H292.93v61.34c0,.45-.06,1.28-.17,2.48a6.33,6.33,0,0,1-.6,2.47c-.29.46-.68,1.11-1.2,2a4.51,4.51,0,0,1-1.79,1.79,13.56,13.56,0,0,1-2.73.94,15.29,15.29,0,0,1-3.76.43h-4.79q-44.25,0-80.65-1.37-.35,2.75-1.11,8.46t-1.19,10.08q-.44,4.37-.43,8.46h81.33q5.13,0,6.84,1.37a5.38,5.38,0,0,1,1.71,4.44q0,.85-.18,2.73c-.11,1.26-.17,2.17-.17,2.74q0,8.21.52,24.26t.51,24.26c-.34,2.28-1.26,3.42-2.74,3.42a2.31,2.31,0,0,1-1.7-.68q-54,2.73-80,2.73h-4.44v24.61q15.19,0,44-1.37t43.14-1.37q11.28,0,13,4.79v13q0,8.21.34,24.27t.34,24.26q0,8.53-6.84,8.54-8.88,0-27.33-.17t-28-.17q-24.6,0-70.39,1.28t-66.3,1.46l-4.79-5.47A59.81,59.81,0,0,1,92.67,710.15Z"/><path class="cls-5" d="M313.77,717V639.75q-.33-42.37,2.74-161.64v-14c0-2.51.45-4,1.37-4.45H435.43q1.71,0,6.92,13T455,506q7.42,20.43,10.51,28.11l23.92,62.54v-66.3q0-8.53.42-31.35t.26-35.63q0-4.79,27.34-4.78,8.53,0,23.41.34t18.28.34h13c1.82,0,2.73.34,2.73,1q1,47.51,1,136V714.93q-1.2,4.44-10.94,4.44h-4.44q-8.89,0-26.14.35t-26.15.34H458q-2.4-.85-9.91-21.53-8-22.38-23.92-64.76t-17.77-47.33q0,10.08-.18,30.07T406,646.58q0,7.53.35,22.56t.34,22.55v21.53q0,7.86-6.84,7.86h-78.6Z"/><path class="cls-5" d="M701.65,725.87A222.3,222.3,0,0,1,667,723.39,124.7,124.7,0,0,1,637,714.67a77.41,77.41,0,0,1-24.35-16.14q-9.9-9.91-15.8-25.8T590.92,636q0-9.22,5.47-9.23h77.92q5.3,0,7.86,2.57a10.67,10.67,0,0,1,3.07,6.32c.34,2.5.66,5,.94,7.52a11.77,11.77,0,0,0,2.56,6.32q2.14,2.57,6.75,2.56a10.13,10.13,0,0,0,6.92-2.31,12.79,12.79,0,0,0,3.76-6.92,51.3,51.3,0,0,0,1.37-8c.17-2.27.26-5.18.26-8.71v-1.37q-.18-12.3-.94-47.5t-.77-55V464.1q0-5,7.17-5.81,5.47,0,16.41.17t16.4.17q8.2,0,24.26-.17t24.27-.17h16.06q3.93,0,5.47,4.78a68.47,68.47,0,0,0-.26,8.37q.09,5.31-.08,8.38v8.54q-1.71,52.46-1.71,93.64v53.65A91,91,0,0,1,810,663.5,73,73,0,0,1,799,685.37a85.21,85.21,0,0,1-16.32,16.32,95.51,95.51,0,0,1-19.56,11.7,140,140,0,0,1-21.28,7.35,152.82,152.82,0,0,1-21,4A171.21,171.21,0,0,1,701.65,725.87Z"/><path class="cls-5" d="M1191.35,652.39q0,3.08.35,9.49t.51,12.21q.16,5.82.25,12.9a110.46,110.46,0,0,1-.51,12.82,86.21,86.21,0,0,1-1.79,10.76,17.49,17.49,0,0,1-3.68,7.78,7.87,7.87,0,0,1-6.06,2.73H1102.5q-8.2-6.32-8.2-47.16,0-14.86.17-35.79t.17-29.82v-12c0-1-.08-3-.25-5.9a56.67,56.67,0,0,1-.09-6.75q-6.84,24.78-16.74,70.91t-13.67,61.69q-1.71,4.79-15.72,4.78H987.68q-11.11,0-13-5.81l-16.4-71.42q-2.22-10.94-4.87-22.73t-6.24-26.82q-3.58-15-5.29-22.22-2.05,54.69-2,83.39v30.07q0,20.16.34,30.42c-.69,2.5-1.94,3.76-3.76,3.76H920.36q-10.1,0-29.56.17t-29.56.17q-9.22,0-9.23-3.08V463.41a4.59,4.59,0,0,1,.77-2.65,4.81,4.81,0,0,1,2.39-1.7,23.33,23.33,0,0,1,3.16-.94,22.47,22.47,0,0,1,3.93-.43c1.6-.06,2.91-.11,3.93-.17s2.34-.06,3.93,0,2.62.08,3.08.08h20.16q48.69,0,68.6,1.37t30.5,1.37q4.11,22.89,13,68l13,68,27.33-138.06a21.31,21.31,0,0,0,3.42.68q18.29,0,54-.51t54-.52h25.29q4.79.53,4.78,9.57Q1191,633.08,1191.35,652.39Z"/><path class="cls-5" d="M92.67,1028.15v-6.49q0-29.22.68-86.29T94,849.08V778.34H292.93v61.34c0,.46-.06,1.28-.17,2.48a6.39,6.39,0,0,1-.6,2.48c-.29.45-.68,1.11-1.2,2a4.48,4.48,0,0,1-1.79,1.8,14.22,14.22,0,0,1-2.73.94,15.8,15.8,0,0,1-3.76.42h-4.79q-44.25,0-80.65-1.36-.35,2.73-1.11,8.46t-1.19,10.08q-.44,4.35-.43,8.45h81.33q5.13,0,6.84,1.37a5.38,5.38,0,0,1,1.71,4.44c0,.58-.06,1.49-.18,2.74s-.17,2.16-.17,2.73q0,8.21.52,24.27t.51,24.26c-.34,2.28-1.26,3.42-2.74,3.42a2.28,2.28,0,0,1-1.7-.69q-54,2.75-80,2.74h-4.44v24.6q15.19,0,44-1.37t43.14-1.36q11.28,0,13,4.78v13q0,8.21.34,24.26t.34,24.26q0,8.55-6.84,8.55-8.88,0-27.33-.17t-28-.17q-24.6,0-70.39,1.28t-66.3,1.45l-4.79-5.47A59.81,59.81,0,0,1,92.67,1028.15Z"/><path class="cls-5" d="M313.77,1035V957.75q-.33-42.37,2.74-161.64v-14c0-2.5.45-4,1.37-4.44H435.43q1.71,0,6.92,13T455,824.05q7.42,20.41,10.51,28.11l23.92,62.53V848.4q0-8.55.42-31.36t.26-35.62q0-4.78,27.34-4.79,8.53,0,23.41.34t18.28.35h13q2.73,0,2.73,1,1,47.51,1,136v118.59q-1.2,4.44-10.94,4.44h-4.44q-8.89,0-26.14.34t-26.15.34H458q-2.4-.86-9.91-21.53-8-22.38-23.92-64.76t-17.77-47.33q0,10.08-.18,30.08T406,964.59q0,7.51.35,22.55t.34,22.56v21.53q0,7.86-6.84,7.86h-78.6Z"/><path class="cls-5" d="M701.65,1043.87a222.3,222.3,0,0,1-34.61-2.48,124.68,124.68,0,0,1-30.07-8.71,77.43,77.43,0,0,1-24.35-16.15q-9.9-9.9-15.8-25.8T590.92,954q0-9.22,5.47-9.22h77.92q5.3,0,7.86,2.56a10.73,10.73,0,0,1,3.07,6.32c.34,2.51.66,5,.94,7.52a11.74,11.74,0,0,0,2.56,6.32q2.14,2.57,6.75,2.57a10.13,10.13,0,0,0,6.92-2.31,12.87,12.87,0,0,0,3.76-6.92,51.5,51.5,0,0,0,1.37-8c.17-2.28.26-5.18.26-8.72v-1.36q-.18-12.3-.94-47.5t-.77-55V782.1q0-5,7.17-5.81,5.47,0,16.41.17t16.4.17q8.2,0,24.26-.17t24.27-.17h16.06q3.93,0,5.47,4.79a68.47,68.47,0,0,0-.26,8.37q.09,5.29-.08,8.37v8.54q-1.71,52.47-1.71,93.64v53.65A91,91,0,0,1,810,981.5,72.9,72.9,0,0,1,799,1003.38a85.45,85.45,0,0,1-16.32,16.31,95.12,95.12,0,0,1-19.56,11.71,140,140,0,0,1-21.28,7.35,152.71,152.71,0,0,1-21,4A171.21,171.21,0,0,1,701.65,1043.87Z"/><path class="cls-5" d="M1191.35,970.4q0,3.08.35,9.48t.51,12.22q.16,5.8.25,12.9a110.19,110.19,0,0,1-.51,12.81,86.37,86.37,0,0,1-1.79,10.77,17.39,17.39,0,0,1-3.68,7.77,7.88,7.88,0,0,1-6.06,2.74H1102.5q-8.2-6.33-8.2-47.16,0-14.86.17-35.8t.17-29.82v-12c0-1-.08-3-.25-5.89a56.69,56.69,0,0,1-.09-6.75q-6.84,24.78-16.74,70.91t-13.67,61.68q-1.71,4.79-15.72,4.79H987.68q-11.11,0-13-5.81l-16.4-71.43q-2.22-10.92-4.87-22.72t-6.24-26.83q-3.58-15-5.29-22.21-2.05,54.67-2,83.38v30.08q0,20.16.34,30.41-1,3.76-3.76,3.76H920.36q-10.1,0-29.56.17t-29.56.17q-9.22,0-9.23-3.07V781.42a4.55,4.55,0,0,1,.77-2.65,4.83,4.83,0,0,1,2.39-1.71,24.86,24.86,0,0,1,3.16-.94,22.47,22.47,0,0,1,3.93-.43c1.6-.05,2.91-.11,3.93-.17s2.34,0,3.93,0,2.62.09,3.08.09h20.16q48.69,0,68.6,1.36t30.5,1.37q4.11,22.9,13,68l13,68,27.33-138.06a20.16,20.16,0,0,0,3.42.68q18.29,0,54-.51t54-.51h25.29q4.79.51,4.78,9.57Q1191,951.09,1191.35,970.4Z"/><path class="cls-5" d="M92.67,1344.33v-6.49q0-29.22.68-86.29t.69-86.29v-70.74H292.93v61.35c0,.45-.06,1.28-.17,2.47a6.34,6.34,0,0,1-.6,2.48c-.29.46-.68,1.11-1.2,2a4.51,4.51,0,0,1-1.79,1.79,13.56,13.56,0,0,1-2.73.94,15.29,15.29,0,0,1-3.76.43h-4.79q-44.25,0-80.65-1.37-.35,2.73-1.11,8.46c-.51,3.82-.91,7.17-1.19,10.08s-.43,5.72-.43,8.46h81.33q5.13,0,6.84,1.36a5.41,5.41,0,0,1,1.71,4.45q0,.85-.18,2.73c-.11,1.25-.17,2.17-.17,2.73q0,8.2.52,24.27t.51,24.26c-.34,2.28-1.26,3.42-2.74,3.42a2.31,2.31,0,0,1-1.7-.68q-54,2.73-80,2.73h-4.44v24.6q15.19,0,44-1.36t43.14-1.37q11.28,0,13,4.78v13q0,8.21.34,24.26T297,1345q0,8.54-6.84,8.54-8.88,0-27.33-.17t-28-.17q-24.6,0-70.39,1.28T98.14,1356l-4.79-5.47A59.24,59.24,0,0,1,92.67,1344.33Z"/><path class="cls-5" d="M313.77,1351.17v-77.23q-.33-42.37,2.74-161.65v-14c0-2.5.45-4,1.37-4.44H435.43q1.71,0,6.92,13t12.65,33.4q7.42,20.41,10.51,28.11l23.92,62.54v-66.3q0-8.53.42-31.35t.26-35.63q0-4.78,27.34-4.78,8.53,0,23.41.34t18.28.34h13q2.73,0,2.73,1,1,47.51,1,136v118.58q-1.2,4.44-10.94,4.44h-4.44q-8.89,0-26.14.34t-26.15.34H458q-2.4-.85-9.91-21.53-8-22.38-23.92-64.75t-17.77-47.34q0,10.1-.18,30.08t-.17,30.07q0,7.51.35,22.56t.34,22.55v21.53q0,7.86-6.84,7.86h-78.6Z"/><path class="cls-5" d="M701.65,1360.05a222.36,222.36,0,0,1-34.61-2.47,125.15,125.15,0,0,1-30.07-8.72,77.43,77.43,0,0,1-24.35-16.15q-9.9-9.9-15.8-25.8t-5.9-36.73q0-9.23,5.47-9.23h77.92q5.3,0,7.86,2.56a10.73,10.73,0,0,1,3.07,6.32c.34,2.51.66,5,.94,7.52a11.77,11.77,0,0,0,2.56,6.33c1.43,1.7,3.68,2.56,6.75,2.56a10.13,10.13,0,0,0,6.92-2.31,12.83,12.83,0,0,0,3.76-6.92,51.3,51.3,0,0,0,1.37-8q.26-3.42.26-8.71v-1.37q-.18-12.3-.94-47.5t-.77-55v-58.1q0-5,7.17-5.81,5.47,0,16.41.17t16.4.18q8.2,0,24.26-.18t24.27-.17h16.06q3.93,0,5.47,4.79a68.47,68.47,0,0,0-.26,8.37q.09,5.3-.08,8.37v8.55q-1.71,52.46-1.71,93.63v53.65a91.11,91.11,0,0,1-4.1,27.86A73,73,0,0,1,799,1319.56a85.5,85.5,0,0,1-16.32,16.32,95.51,95.51,0,0,1-19.56,11.7,140,140,0,0,1-21.28,7.35,152.71,152.71,0,0,1-21,4A171.21,171.21,0,0,1,701.65,1360.05Z"/><path class="cls-5" d="M1191.35,1286.58q0,3.08.35,9.48t.51,12.22q.16,5.81.25,12.9A110.46,110.46,0,0,1,1192,1334a86.52,86.52,0,0,1-1.79,10.76,17.49,17.49,0,0,1-3.68,7.78,7.87,7.87,0,0,1-6.06,2.73H1102.5q-8.2-6.33-8.2-47.16,0-14.86.17-35.8t.17-29.81v-12c0-1-.08-3-.25-5.9a56.67,56.67,0,0,1-.09-6.75q-6.84,24.78-16.74,70.91t-13.67,61.68q-1.71,4.79-15.72,4.79H987.68q-11.11,0-13-5.81L958.29,1278q-2.22-10.93-4.87-22.73t-6.24-26.83q-3.58-15-5.29-22.21-2.05,54.69-2,83.39v30.07q0,20.16.34,30.41-1,3.77-3.76,3.76H920.36q-10.1,0-29.56.17t-29.56.17q-9.22,0-9.23-3.07V1097.6a4.55,4.55,0,0,1,.77-2.65,4.83,4.83,0,0,1,2.39-1.71,24.86,24.86,0,0,1,3.16-.94,22.59,22.59,0,0,1,3.93-.42q2.4-.09,3.93-.18t3.93,0c1.6.06,2.62.09,3.08.09h20.16q48.69,0,68.6,1.37t30.5,1.36q4.11,22.9,13,68l13,68,27.33-138.07a20.64,20.64,0,0,0,3.42.69q18.29,0,54-.52t54-.51h25.29q4.79.51,4.78,9.57Q1191,1267.27,1191.35,1286.58Z"/><path class="cls-5" d="M1211.67,74.14v-6.5q0-29.22.68-86.28t.69-86.29v-70.74h198.89v61.34c0,.46-.06,1.28-.17,2.48a6.33,6.33,0,0,1-.6,2.47c-.29.46-.68,1.12-1.2,2a4.51,4.51,0,0,1-1.79,1.79,13,13,0,0,1-2.73.94,15.29,15.29,0,0,1-3.76.43h-4.79q-44.25,0-80.65-1.37-.35,2.75-1.11,8.46t-1.19,10.08q-.43,4.36-.43,8.46h81.33q5.13,0,6.84,1.37a5.38,5.38,0,0,1,1.71,4.44q0,.86-.18,2.73c-.11,1.26-.17,2.17-.17,2.74q0,8.21.52,24.26t.51,24.26c-.34,2.28-1.26,3.42-2.74,3.42a2.31,2.31,0,0,1-1.7-.68q-54,2.73-80,2.73h-4.44V11.26q15.19,0,44-1.37t43.14-1.37q11.28,0,13,4.79v13q0,8.21.34,24.27t.34,24.26q0,8.55-6.84,8.54-8.88,0-27.33-.17t-28-.17q-24.6,0-70.39,1.28t-66.3,1.46l-4.79-5.47A59.81,59.81,0,0,1,1211.67,74.14Z"/><path class="cls-5" d="M1432.77,81V3.74q-.33-42.37,2.74-161.64v-14c0-2.51.45-4,1.37-4.45h117.55q1.71,0,6.92,13T1574-130q7.43,20.43,10.51,28.11l23.92,62.54v-66.3q0-8.53.42-31.35t.26-35.63q0-4.78,27.34-4.78,8.54,0,23.41.34t18.28.34h13c1.82,0,2.73.34,2.73,1q1,47.5,1,136V78.92q-1.2,4.44-10.94,4.44h-4.44q-8.9,0-26.14.35t-26.15.34H1577q-2.4-.85-9.91-21.53-8-22.38-23.92-64.76t-17.77-47.33q0,10.08-.18,30.07T1525,10.57q0,7.53.35,22.56t.34,22.55V77.21q0,7.86-6.84,7.86h-78.6Z"/><path class="cls-5" d="M1211.67,392.14v-6.49q0-29.22.68-86.29t.69-86.29V142.33h198.89v61.34c0,.46-.06,1.29-.17,2.48a6.39,6.39,0,0,1-.6,2.48c-.29.46-.68,1.11-1.2,2a4.48,4.48,0,0,1-1.79,1.8,14.22,14.22,0,0,1-2.73.94,15.78,15.78,0,0,1-3.76.43h-4.79q-44.25,0-80.65-1.37-.35,2.73-1.11,8.46t-1.19,10.08q-.43,4.35-.43,8.46h81.33q5.13,0,6.84,1.36a5.38,5.38,0,0,1,1.71,4.44c0,.58-.06,1.49-.18,2.74s-.17,2.16-.17,2.73q0,8.21.52,24.27t.51,24.26c-.34,2.28-1.26,3.42-2.74,3.42a2.28,2.28,0,0,1-1.7-.69q-54,2.74-80,2.74h-4.44v24.6q15.19,0,44-1.36t43.14-1.37q11.28,0,13,4.78v13q0,8.2.34,24.26t.34,24.27q0,8.54-6.84,8.54-8.88,0-27.33-.17t-28-.17q-24.6,0-70.39,1.28t-66.3,1.45l-4.79-5.47A59.81,59.81,0,0,1,1211.67,392.14Z"/><path class="cls-5" d="M1432.77,399V321.74q-.33-42.37,2.74-161.64v-14c0-2.5.45-4,1.37-4.44h117.55q1.71,0,6.92,13T1574,188q7.43,20.42,10.51,28.11l23.92,62.54v-66.3q0-8.55.42-31.36t.26-35.62q0-4.78,27.34-4.79,8.54,0,23.41.35t18.28.34h13q2.73,0,2.73,1,1,47.5,1,136V396.93q-1.2,4.44-10.94,4.44h-4.44q-8.9,0-26.14.34t-26.15.34H1577q-2.4-.85-9.91-21.53-8-22.38-23.92-64.76t-17.77-47.33q0,10.08-.18,30.08t-.17,30.07q0,7.51.35,22.55t.34,22.56v21.53q0,7.86-6.84,7.86h-78.6Z"/><path class="cls-5" d="M1211.67,710.15v-6.5q0-29.22.68-86.29t.69-86.28V460.34h198.89v61.34c0,.45-.06,1.28-.17,2.48a6.33,6.33,0,0,1-.6,2.47c-.29.46-.68,1.11-1.2,2a4.51,4.51,0,0,1-1.79,1.79,13.56,13.56,0,0,1-2.73.94,15.29,15.29,0,0,1-3.76.43h-4.79q-44.25,0-80.65-1.37-.35,2.75-1.11,8.46t-1.19,10.08q-.43,4.37-.43,8.46h81.33q5.13,0,6.84,1.37a5.38,5.38,0,0,1,1.71,4.44q0,.85-.18,2.73c-.11,1.26-.17,2.17-.17,2.74q0,8.21.52,24.26t.51,24.26c-.34,2.28-1.26,3.42-2.74,3.42a2.31,2.31,0,0,1-1.7-.68q-54,2.73-80,2.73h-4.44v24.61q15.19,0,44-1.37t43.14-1.37q11.28,0,13,4.79v13q0,8.21.34,24.27t.34,24.26q0,8.53-6.84,8.54-8.88,0-27.33-.17t-28-.17q-24.6,0-70.39,1.28t-66.3,1.46l-4.79-5.47A59.81,59.81,0,0,1,1211.67,710.15Z"/><path class="cls-5" d="M1432.77,717V639.75q-.33-42.37,2.74-161.64v-14c0-2.51.45-4,1.37-4.45h117.55q1.71,0,6.92,13T1574,506q7.43,20.43,10.51,28.11l23.92,62.54v-66.3q0-8.53.42-31.35t.26-35.63q0-4.79,27.34-4.78,8.54,0,23.41.34t18.28.34h13c1.82,0,2.73.34,2.73,1q1,47.51,1,136V714.93q-1.2,4.44-10.94,4.44h-4.44q-8.9,0-26.14.35t-26.15.34H1577q-2.4-.85-9.91-21.53-8-22.38-23.92-64.76t-17.77-47.33q0,10.08-.18,30.07t-.17,30.07q0,7.53.35,22.56t.34,22.55v21.53q0,7.86-6.84,7.86h-78.6Z"/><path class="cls-5" d="M1211.67,1028.15v-6.49q0-29.22.68-86.29t.69-86.29V778.34h198.89v61.34c0,.46-.06,1.28-.17,2.48a6.39,6.39,0,0,1-.6,2.48c-.29.45-.68,1.11-1.2,2a4.48,4.48,0,0,1-1.79,1.8,14.22,14.22,0,0,1-2.73.94,15.8,15.8,0,0,1-3.76.42h-4.79q-44.25,0-80.65-1.36-.35,2.73-1.11,8.46t-1.19,10.08q-.43,4.35-.43,8.45h81.33q5.13,0,6.84,1.37a5.38,5.38,0,0,1,1.71,4.44c0,.58-.06,1.49-.18,2.74s-.17,2.16-.17,2.73q0,8.21.52,24.27t.51,24.26c-.34,2.28-1.26,3.42-2.74,3.42a2.28,2.28,0,0,1-1.7-.69q-54,2.75-80,2.74h-4.44v24.6q15.19,0,44-1.37t43.14-1.36q11.28,0,13,4.78v13q0,8.21.34,24.26t.34,24.26q0,8.55-6.84,8.55-8.88,0-27.33-.17t-28-.17q-24.6,0-70.39,1.28t-66.3,1.45l-4.79-5.47A59.81,59.81,0,0,1,1211.67,1028.15Z"/><path class="cls-5" d="M1432.77,1035V957.75q-.33-42.37,2.74-161.64v-14c0-2.5.45-4,1.37-4.44h117.55q1.71,0,6.92,13T1574,824.05q7.43,20.41,10.51,28.11l23.92,62.53V848.4q0-8.55.42-31.36t.26-35.62q0-4.78,27.34-4.79,8.54,0,23.41.34t18.28.35h13q2.73,0,2.73,1,1,47.51,1,136v118.59q-1.2,4.44-10.94,4.44h-4.44q-8.9,0-26.14.34t-26.15.34H1577q-2.4-.86-9.91-21.53-8-22.38-23.92-64.76t-17.77-47.33q0,10.08-.18,30.08t-.17,30.07q0,7.51.35,22.55t.34,22.56v21.53q0,7.86-6.84,7.86h-78.6Z"/><path class="cls-5" d="M1211.67,1344.33v-6.49q0-29.22.68-86.29t.69-86.29v-70.74h198.89v61.35c0,.45-.06,1.28-.17,2.47a6.34,6.34,0,0,1-.6,2.48c-.29.46-.68,1.11-1.2,2a4.51,4.51,0,0,1-1.79,1.79,13.56,13.56,0,0,1-2.73.94,15.29,15.29,0,0,1-3.76.43h-4.79q-44.25,0-80.65-1.37-.35,2.73-1.11,8.46c-.51,3.82-.91,7.17-1.19,10.08s-.43,5.72-.43,8.46h81.33q5.13,0,6.84,1.36a5.41,5.41,0,0,1,1.71,4.45q0,.85-.18,2.73c-.11,1.25-.17,2.17-.17,2.73q0,8.2.52,24.27t.51,24.26c-.34,2.28-1.26,3.42-2.74,3.42a2.31,2.31,0,0,1-1.7-.68q-54,2.73-80,2.73h-4.44v24.6q15.19,0,44-1.36t43.14-1.37q11.28,0,13,4.78v13q0,8.21.34,24.26T1416,1345q0,8.54-6.84,8.54-8.88,0-27.33-.17t-28-.17q-24.6,0-70.39,1.28t-66.3,1.45l-4.79-5.47A59.24,59.24,0,0,1,1211.67,1344.33Z"/><path class="cls-5" d="M1432.77,1351.17v-77.23q-.33-42.37,2.74-161.65v-14c0-2.5.45-4,1.37-4.44h117.55q1.71,0,6.92,13t12.65,33.4q7.43,20.41,10.51,28.11l23.92,62.54v-66.3q0-8.53.42-31.35t.26-35.63q0-4.78,27.34-4.78,8.54,0,23.41.34t18.28.34h13q2.73,0,2.73,1,1,47.51,1,136v118.58q-1.2,4.44-10.94,4.44h-4.44q-8.9,0-26.14.34t-26.15.34H1577q-2.4-.85-9.91-21.53-8-22.38-23.92-64.75t-17.77-47.34q0,10.1-.18,30.08t-.17,30.07q0,7.51.35,22.56t.34,22.55v21.53q0,7.86-6.84,7.86h-78.6Z"/></g></g><path class="cls-6" d="M1409.53,1050.5H160A25.47,25.47,0,0,1,134.5,1025V151.47A25.47,25.47,0,0,1,160,126H1409.53A25.47,25.47,0,0,1,1435,151.47V1025A25.47,25.47,0,0,1,1409.53,1050.5Z"/><path class="cls-7" d="M758.53,1050.5H160A25.47,25.47,0,0,1,134.5,1025V151.47A25.47,25.47,0,0,1,160,126H758.53A25.47,25.47,0,0,1,784,151.47V1025A25.47,25.47,0,0,1,758.53,1050.5Z"/><text class="cls-8" transform="translate(258.04 243.94)">P<tspan class="cls-9" x="31.48" y="0">R</tspan><tspan class="cls-10" x="64.33" y="0">O</tspan><tspan class="cls-11" x="97.04" y="0">XIMAMENTE:</tspan></text><path class="cls-12" d="M250.72,739.94V737.2q0-12.32.29-36.36t.29-36.37V634.66h83.82v25.85c0,.2,0,.54-.07,1a2.6,2.6,0,0,1-.26,1l-.5.83a2,2,0,0,1-.76.76,5.85,5.85,0,0,1-1.15.39,6.53,6.53,0,0,1-1.58.18h-2q-18.64,0-34-.57c-.09.76-.25,1.95-.47,3.56s-.38,3-.5,4.25-.18,2.41-.18,3.56h34.28a5,5,0,0,1,2.88.58,2.25,2.25,0,0,1,.72,1.87c0,.24,0,.63-.08,1.15s-.07.92-.07,1.16q0,3.45.22,10.22c.14,4.51.22,7.92.22,10.23-.15,1-.53,1.44-1.16,1.44a1,1,0,0,1-.72-.29q-22.76,1.16-33.7,1.15h-1.87v10.37q6.4,0,18.54-.58t18.18-.57q4.76,0,5.48,2v5.48q0,3.45.14,10.22c.1,4.52.15,7.92.15,10.23s-1,3.6-2.88,3.6c-2.5,0-6.34,0-11.53-.07s-9.12-.08-11.81-.08q-10.36,0-29.66.54t-27.94.62l-2-2.31A25.45,25.45,0,0,1,250.72,739.94Z"/><path class="cls-12" d="M343.9,742.82V710.27q-.13-17.85,1.15-68.12v-5.9c0-1.06.2-1.68.58-1.88h49.54c.48,0,1.46,1.83,2.92,5.48s3.24,8.34,5.33,14.07,3.56,9.69,4.43,11.85l10.08,26.36V664.19q0-3.6.18-13.22t.11-15q0-2,11.52-2,3.6,0,9.86.15t7.71.14h5.47c.77,0,1.15.14,1.15.43q.44,20,.44,57.32v50c-.34,1.24-1.88,1.87-4.61,1.87h-1.88q-3.74,0-11,.14t-11,.15H404.68q-1-.36-4.18-9.08-3.37-9.43-10.08-27.29t-7.49-20q0,4.26-.07,12.68t-.07,12.67c0,2.12,0,5.28.14,9.51s.15,7.39.15,9.5v9.08c0,2.2-1,3.31-2.88,3.31H347.07Z"/><path class="cls-12" d="M507.36,746.56a93.13,93.13,0,0,1-14.58-1,52.78,52.78,0,0,1-12.67-3.67A32.37,32.37,0,0,1,469.85,735a29.56,29.56,0,0,1-6.66-10.87,44.29,44.29,0,0,1-2.49-15.48q0-3.88,2.31-3.89h32.83a4.12,4.12,0,0,1,4.61,3.74c.15,1.06.28,2.12.4,3.17a4.93,4.93,0,0,0,1.08,2.67,3.5,3.5,0,0,0,2.84,1.08,4.3,4.3,0,0,0,2.92-1,5.41,5.41,0,0,0,1.58-2.91,21.89,21.89,0,0,0,.58-3.39c.07-1,.11-2.18.11-3.67v-.57q-.07-5.19-.4-20t-.32-23.19V636.25c0-1.4,1-2.21,3-2.45q2.31,0,6.91.07c3.08,0,5.38.07,6.92.07q3.45,0,10.22-.07t10.23-.07h6.77c1.1,0,1.87.67,2.3,2a29.37,29.37,0,0,0-.11,3.53c0,1.49,0,2.67,0,3.53v3.6q-.72,22.11-.72,39.46v22.61A38.38,38.38,0,0,1,553,720.28a30.74,30.74,0,0,1-4.61,9.22,35.86,35.86,0,0,1-6.88,6.88,40.29,40.29,0,0,1-8.24,4.93,58.12,58.12,0,0,1-9,3.09,64.54,64.54,0,0,1-8.85,1.7A72.84,72.84,0,0,1,507.36,746.56Z"/><path class="cls-12" d="M713.74,715.6c0,.86,0,2.2.15,4s.17,3.51.21,5.15.09,3.44.11,5.43a47.29,47.29,0,0,1-.21,5.4,37.35,37.35,0,0,1-.76,4.54,7.33,7.33,0,0,1-1.55,3.28,3.35,3.35,0,0,1-2.56,1.15H676.3q-3.46-2.67-3.46-19.88,0-6.25.07-15.08T673,697v-5c0-.43,0-1.26-.11-2.48a23.63,23.63,0,0,1,0-2.85q-2.88,10.44-7.05,29.89t-5.77,26c-.48,1.35-2.68,2-6.62,2H627.91c-3.12,0-4.95-.82-5.47-2.45L615.52,712c-.62-3.07-1.31-6.26-2-9.58s-1.62-7.08-2.63-11.3l-2.23-9.36q-.87,23-.86,35.14v12.67q0,8.5.14,12.82c-.29,1.05-.82,1.58-1.58,1.58h-6.77q-4.26,0-12.46.07t-12.46.08c-2.59,0-3.89-.44-3.89-1.3V636a1.9,1.9,0,0,1,.33-1.12,2,2,0,0,1,1-.72,9.12,9.12,0,0,1,1.34-.39,8.63,8.63,0,0,1,1.65-.18l1.66-.08c.43,0,1,0,1.66,0l1.29,0h8.5q20.52,0,28.91.58t12.85.57q1.74,9.66,5.48,28.66L640.87,692l11.52-58.18a9.08,9.08,0,0,0,1.44.29q7.71,0,22.76-.22t22.75-.22H710c1.34.15,2,1.49,2,4Q713.6,707.46,713.74,715.6Z"/><path class="cls-13" d="M236,739.94V737.2q0-12.32.29-36.36t.29-36.37V634.66h83.82v25.85c0,.2,0,.54-.07,1a2.63,2.63,0,0,1-.25,1l-.51.83a2,2,0,0,1-.75.76,6.22,6.22,0,0,1-1.16.39,6.47,6.47,0,0,1-1.58.18h-2q-18.64,0-34-.57c-.09.76-.25,1.95-.46,3.56s-.39,3-.51,4.25-.18,2.41-.18,3.56h34.28a5,5,0,0,1,2.88.58,2.25,2.25,0,0,1,.72,1.87c0,.24,0,.63-.07,1.15s-.07.92-.07,1.16q0,3.45.21,10.22t.22,10.23c-.15,1-.53,1.44-1.15,1.44a1,1,0,0,1-.72-.29q-22.77,1.16-33.71,1.15h-1.87v10.37q6.4,0,18.54-.58t18.19-.57q4.76,0,5.47,2v5.48q0,3.45.14,10.22c.1,4.52.15,7.92.15,10.23s-1,3.6-2.88,3.6c-2.5,0-6.34,0-11.52-.07s-9.13-.08-11.81-.08q-10.38,0-29.67.54t-27.94.62l-2-2.31A25.45,25.45,0,0,1,236,739.94Z"/><path class="cls-13" d="M329.16,742.82V710.27q-.15-17.85,1.15-68.12v-5.9c0-1.06.19-1.68.57-1.88h49.55q.72,0,2.91,5.48t5.33,14.07q3.13,8.61,4.43,11.85l10.08,26.36V664.19q0-3.6.18-13.22t.11-15q0-2,11.52-2,3.6,0,9.87.15t7.7.14H438c.77,0,1.16.14,1.16.43q.42,20,.43,57.32v50c-.34,1.24-1.87,1.87-4.61,1.87h-1.87q-3.75,0-11,.14t-11,.15H389.93q-1-.36-4.18-9.08-3.37-9.43-10.08-27.29t-7.49-20q0,4.26-.07,12.68T368,713.15c0,2.12,0,5.28.14,9.51s.15,7.39.15,9.5v9.08c0,2.2-1,3.31-2.88,3.31H332.32Z"/><path class="cls-13" d="M492.62,746.56a93.26,93.26,0,0,1-14.59-1,52.92,52.92,0,0,1-12.67-3.67A32.37,32.37,0,0,1,455.1,735a29.83,29.83,0,0,1-6.66-10.87A44.29,44.29,0,0,1,446,708.69q0-3.88,2.31-3.89H481.1a4.12,4.12,0,0,1,4.6,3.74c.15,1.06.28,2.12.4,3.17a4.93,4.93,0,0,0,1.08,2.67,3.5,3.5,0,0,0,2.84,1.08,4.28,4.28,0,0,0,2.92-1,5.41,5.41,0,0,0,1.58-2.91,20.75,20.75,0,0,0,.58-3.39c.07-1,.11-2.18.11-3.67v-.57q-.07-5.19-.4-20t-.32-23.19V636.25c0-1.4,1-2.21,3-2.45,1.54,0,3.84,0,6.92.07s5.37.07,6.91.07q3.45,0,10.22-.07t10.23-.07h6.77c1.1,0,1.87.67,2.3,2a29.74,29.74,0,0,0-.1,3.53c0,1.49,0,2.67,0,3.53v3.6q-.72,22.11-.72,39.46v22.61a38.38,38.38,0,0,1-1.73,11.74,30.74,30.74,0,0,1-4.61,9.22,36.09,36.09,0,0,1-6.87,6.88,40.63,40.63,0,0,1-8.25,4.93,57.76,57.76,0,0,1-9,3.09,64.54,64.54,0,0,1-8.85,1.7A72.53,72.53,0,0,1,492.62,746.56Z"/><path class="cls-13" d="M699,715.6c0,.86,0,2.2.14,4s.17,3.51.22,5.15.08,3.44.1,5.43a45.1,45.1,0,0,1-.21,5.4,35.5,35.5,0,0,1-.76,4.54,7.23,7.23,0,0,1-1.55,3.28,3.32,3.32,0,0,1-2.55,1.15H661.55q-3.45-2.67-3.46-19.88,0-6.25.08-15.08t.07-12.57v-5c0-.43,0-1.26-.11-2.48a25.94,25.94,0,0,1,0-2.85q-2.88,10.44-7.05,29.89t-5.76,26q-.72,2-6.63,2H613.16q-4.68,0-5.47-2.45L600.77,712q-.93-4.61-2-9.58t-2.63-11.3c-1-4.23-1.75-7.35-2.23-9.36q-.86,23-.86,35.14v12.67q0,8.5.14,12.82c-.29,1.05-.81,1.58-1.58,1.58h-6.77q-4.24,0-12.46.07t-12.46.08c-2.59,0-3.88-.44-3.88-1.3V636a1.89,1.89,0,0,1,.32-1.12,2.06,2.06,0,0,1,1-.72,9,9,0,0,1,1.33-.39,8.65,8.65,0,0,1,1.66-.18l1.65-.08c.43,0,1,0,1.66,0l1.29,0h8.5q20.52,0,28.91.58t12.86.57q1.73,9.66,5.47,28.66L626.12,692l11.52-58.18a9.08,9.08,0,0,0,1.44.29q7.71,0,22.76-.22t22.75-.22h10.66c1.35.15,2,1.49,2,4Q698.85,707.46,699,715.6Z"/><path class="cls-14" d="M221.23,739.94V737.2q0-12.32.29-36.36t.28-36.37V634.66h83.82v25.85c0,.2,0,.54-.07,1a2.63,2.63,0,0,1-.25,1l-.51.83a1.89,1.89,0,0,1-.75.76,6.09,6.09,0,0,1-1.15.39,6.55,6.55,0,0,1-1.59.18h-2q-18.66,0-34-.57c-.1.76-.26,1.95-.47,3.56s-.39,3-.51,4.25-.18,2.41-.18,3.56h34.28a5,5,0,0,1,2.88.58A2.25,2.25,0,0,1,302,678c0,.24,0,.63-.07,1.15s-.07.92-.07,1.16q0,3.45.21,10.22t.22,10.23c-.14,1-.53,1.44-1.15,1.44a1,1,0,0,1-.72-.29q-22.76,1.16-33.7,1.15h-1.88v10.37q6.42,0,18.55-.58t18.18-.57q4.76,0,5.47,2v5.48q0,3.45.15,10.22c.09,4.52.14,7.92.14,10.23s-1,3.6-2.88,3.6c-2.5,0-6.34,0-11.52-.07s-9.12-.08-11.81-.08q-10.36,0-29.67.54t-27.94.62l-2-2.31A22.7,22.7,0,0,1,221.23,739.94Z"/><path class="cls-14" d="M314.41,742.82V710.27q-.15-17.85,1.15-68.12v-5.9c0-1.06.19-1.68.58-1.88h49.54q.72,0,2.91,5.48t5.33,14.07q3.13,8.61,4.43,11.85l10.08,26.36V664.19q0-3.6.18-13.22t.11-15q0-2,11.52-2,3.6,0,9.87.15t7.7.14h5.48c.76,0,1.15.14,1.15.43q.44,20,.43,57.32v50c-.34,1.24-1.87,1.87-4.61,1.87h-1.87q-3.75,0-11,.14t-11,.15H375.18q-1-.36-4.17-9.08-3.39-9.43-10.08-27.29t-7.49-20q0,4.26-.08,12.68t-.07,12.67c0,2.12,0,5.28.15,9.51s.14,7.39.14,9.5v9.08c0,2.2-1,3.31-2.88,3.31H317.58Z"/><path class="cls-14" d="M477.87,746.56a93,93,0,0,1-14.58-1,52.86,52.86,0,0,1-12.68-3.67A32.6,32.6,0,0,1,440.35,735a29.83,29.83,0,0,1-6.66-10.87,44.53,44.53,0,0,1-2.48-15.48q0-3.88,2.3-3.89h32.84a4.5,4.5,0,0,1,3.31,1.08,4.57,4.57,0,0,1,1.3,2.66c.14,1.06.27,2.12.39,3.17a4.93,4.93,0,0,0,1.08,2.67,3.5,3.5,0,0,0,2.85,1.08,4.25,4.25,0,0,0,2.91-1,5.41,5.41,0,0,0,1.59-2.91,21.73,21.73,0,0,0,.57-3.39c.08-1,.11-2.18.11-3.67v-.57q-.07-5.19-.39-20t-.33-23.19V636.25c0-1.4,1-2.21,3-2.45,1.53,0,3.84,0,6.91.07s5.37.07,6.91.07c2.31,0,5.71,0,10.23-.07s7.92-.07,10.22-.07h6.77c1.11,0,1.87.67,2.31,2a27.41,27.41,0,0,0-.11,3.53c0,1.49,0,2.67,0,3.53v3.6q-.72,22.11-.72,39.46v22.61a38.07,38.07,0,0,1-1.73,11.74,30.74,30.74,0,0,1-4.61,9.22,36.09,36.09,0,0,1-6.87,6.88,40.63,40.63,0,0,1-8.25,4.93,58,58,0,0,1-9,3.09,65,65,0,0,1-8.86,1.7A72.53,72.53,0,0,1,477.87,746.56Z"/><path class="cls-14" d="M684.25,715.6c0,.86,0,2.2.14,4s.17,3.51.22,5.15.08,3.44.11,5.43a47.13,47.13,0,0,1-.22,5.4,35.5,35.5,0,0,1-.76,4.54,7.32,7.32,0,0,1-1.54,3.28,3.35,3.35,0,0,1-2.56,1.15H646.8q-3.45-2.67-3.45-19.88,0-6.25.07-15.08t.07-12.57v-5c0-.43,0-1.26-.11-2.48a23.23,23.23,0,0,1,0-2.85q-2.88,10.44-7.06,29.89t-5.76,26q-.72,2-6.63,2H598.41q-4.68,0-5.47-2.45L586,712q-.94-4.61-2-9.58t-2.63-11.3l-2.24-9.36q-.86,23-.86,35.14v12.67q0,8.5.14,12.82c-.28,1.05-.81,1.58-1.58,1.58H570q-4.24,0-12.46.07t-12.45.08c-2.6,0-3.89-.44-3.89-1.3V636a2,2,0,0,1,.32-1.12,2.06,2.06,0,0,1,1-.72,9.38,9.38,0,0,1,1.33-.39,8.74,8.74,0,0,1,1.66-.18l1.65-.08c.44,0,1,0,1.66,0l1.3,0h8.49q20.54,0,28.92.58t12.85.57q1.73,9.66,5.47,28.66L611.37,692,622.9,633.8a8.67,8.67,0,0,0,1.44.29q7.7,0,22.75-.22t22.76-.22H680.5c1.35.15,2,1.49,2,4Q684.11,707.46,684.25,715.6Z"/><path class="cls-14" d="M221.23,739.94V737.2q0-12.32.29-36.36t.28-36.37V634.66h83.82v25.85c0,.2,0,.54-.07,1a2.63,2.63,0,0,1-.25,1l-.51.83a1.89,1.89,0,0,1-.75.76,6.09,6.09,0,0,1-1.15.39,6.55,6.55,0,0,1-1.59.18h-2q-18.66,0-34-.57c-.1.76-.26,1.95-.47,3.56s-.39,3-.51,4.25-.18,2.41-.18,3.56h34.28a5,5,0,0,1,2.88.58A2.25,2.25,0,0,1,302,678c0,.24,0,.63-.07,1.15s-.07.92-.07,1.16q0,3.45.21,10.22t.22,10.23c-.14,1-.53,1.44-1.15,1.44a1,1,0,0,1-.72-.29q-22.76,1.16-33.7,1.15h-1.88v10.37q6.42,0,18.55-.58t18.18-.57q4.76,0,5.47,2v5.48q0,3.45.15,10.22c.09,4.52.14,7.92.14,10.23s-1,3.6-2.88,3.6c-2.5,0-6.34,0-11.52-.07s-9.12-.08-11.81-.08q-10.36,0-29.67.54t-27.94.62l-2-2.31A22.7,22.7,0,0,1,221.23,739.94Z"/><path class="cls-14" d="M314.41,742.82V710.27q-.15-17.85,1.15-68.12v-5.9c0-1.06.19-1.68.58-1.88h49.54q.72,0,2.91,5.48t5.33,14.07q3.13,8.61,4.43,11.85l10.08,26.36V664.19q0-3.6.18-13.22t.11-15q0-2,11.52-2,3.6,0,9.87.15t7.7.14h5.48c.76,0,1.15.14,1.15.43q.44,20,.43,57.32v50c-.34,1.24-1.87,1.87-4.61,1.87h-1.87q-3.75,0-11,.14t-11,.15H375.18q-1-.36-4.17-9.08-3.39-9.43-10.08-27.29t-7.49-20q0,4.26-.08,12.68t-.07,12.67c0,2.12,0,5.28.15,9.51s.14,7.39.14,9.5v9.08c0,2.2-1,3.31-2.88,3.31H317.58Z"/><path class="cls-14" d="M477.87,746.56a93,93,0,0,1-14.58-1,52.86,52.86,0,0,1-12.68-3.67A32.6,32.6,0,0,1,440.35,735a29.83,29.83,0,0,1-6.66-10.87,44.53,44.53,0,0,1-2.48-15.48q0-3.88,2.3-3.89h32.84a4.5,4.5,0,0,1,3.31,1.08,4.57,4.57,0,0,1,1.3,2.66c.14,1.06.27,2.12.39,3.17a4.93,4.93,0,0,0,1.08,2.67,3.5,3.5,0,0,0,2.85,1.08,4.25,4.25,0,0,0,2.91-1,5.41,5.41,0,0,0,1.59-2.91,21.73,21.73,0,0,0,.57-3.39c.08-1,.11-2.18.11-3.67v-.57q-.07-5.19-.39-20t-.33-23.19V636.25c0-1.4,1-2.21,3-2.45,1.53,0,3.84,0,6.91.07s5.37.07,6.91.07c2.31,0,5.71,0,10.23-.07s7.92-.07,10.22-.07h6.77c1.11,0,1.87.67,2.31,2a27.41,27.41,0,0,0-.11,3.53c0,1.49,0,2.67,0,3.53v3.6q-.72,22.11-.72,39.46v22.61a38.07,38.07,0,0,1-1.73,11.74,30.74,30.74,0,0,1-4.61,9.22,36.09,36.09,0,0,1-6.87,6.88,40.63,40.63,0,0,1-8.25,4.93,58,58,0,0,1-9,3.09,65,65,0,0,1-8.86,1.7A72.53,72.53,0,0,1,477.87,746.56Z"/><path class="cls-14" d="M684.25,715.6c0,.86,0,2.2.14,4s.17,3.51.22,5.15.08,3.44.11,5.43a47.13,47.13,0,0,1-.22,5.4,35.5,35.5,0,0,1-.76,4.54,7.32,7.32,0,0,1-1.54,3.28,3.35,3.35,0,0,1-2.56,1.15H646.8q-3.45-2.67-3.45-19.88,0-6.25.07-15.08t.07-12.57v-5c0-.43,0-1.26-.11-2.48a23.23,23.23,0,0,1,0-2.85q-2.88,10.44-7.06,29.89t-5.76,26q-.72,2-6.63,2H598.41q-4.68,0-5.47-2.45L586,712q-.94-4.61-2-9.58t-2.63-11.3l-2.24-9.36q-.86,23-.86,35.14v12.67q0,8.5.14,12.82c-.28,1.05-.81,1.58-1.58,1.58H570q-4.24,0-12.46.07t-12.45.08c-2.6,0-3.89-.44-3.89-1.3V636a2,2,0,0,1,.32-1.12,2.06,2.06,0,0,1,1-.72,9.38,9.38,0,0,1,1.33-.39,8.74,8.74,0,0,1,1.66-.18l1.65-.08c.44,0,1,0,1.66,0l1.3,0h8.49q20.54,0,28.92.58t12.85.57q1.73,9.66,5.47,28.66L611.37,692,622.9,633.8a8.67,8.67,0,0,0,1.44.29q7.7,0,22.75-.22t22.76-.22H680.5c1.35.15,2,1.49,2,4Q684.11,707.46,684.25,715.6Z"/><path class="cls-15" d="M206.48,739.94V737.2q0-12.32.29-36.36t.29-36.37V634.66h83.81v25.85c0,.2,0,.54-.07,1a2.63,2.63,0,0,1-.25,1c-.12.19-.29.47-.5.83a2,2,0,0,1-.76.76,6.09,6.09,0,0,1-1.15.39,6.55,6.55,0,0,1-1.59.18h-2q-18.66,0-34-.57c-.1.76-.25,1.95-.47,3.56s-.38,3-.5,4.25-.18,2.41-.18,3.56h34.27a5,5,0,0,1,2.88.58,2.25,2.25,0,0,1,.72,1.87c0,.24,0,.63-.07,1.15s-.07.92-.07,1.16q0,3.45.22,10.22t.21,10.23c-.14,1-.53,1.44-1.15,1.44a1,1,0,0,1-.72-.29q-22.76,1.16-33.7,1.15h-1.87v10.37q6.4,0,18.54-.58t18.18-.57q4.76,0,5.47,2v5.48q0,3.45.15,10.22c.09,4.52.14,7.92.14,10.23s-1,3.6-2.88,3.6c-2.49,0-6.33,0-11.52-.07s-9.12-.08-11.81-.08q-10.36,0-29.67.54t-27.94.62l-2-2.31A25.45,25.45,0,0,1,206.48,739.94Z"/><path class="cls-15" d="M299.66,742.82V710.27q-.15-17.85,1.15-68.12v-5.9c0-1.06.19-1.68.58-1.88h49.54q.72,0,2.92,5.48t5.33,14.07q3.12,8.61,4.42,11.85l10.09,26.36V664.19q0-3.6.18-13.22t.1-15q0-2,11.53-2c2.4,0,5.68,0,9.86.15s6.75.14,7.71.14h5.47c.77,0,1.15.14,1.15.43q.44,20,.43,57.32v50c-.33,1.24-1.87,1.87-4.61,1.87h-1.87c-2.49,0-6.17,0-11,.14s-8.52.15-11,.15H360.44q-1-.36-4.18-9.08-3.39-9.43-10.08-27.29t-7.49-20q0,4.26-.07,12.68t-.07,12.67c0,2.12,0,5.28.14,9.51s.14,7.39.14,9.5v9.08c0,2.2-1,3.31-2.88,3.31H302.83Z"/><path class="cls-15" d="M463.12,746.56a93,93,0,0,1-14.58-1,52.78,52.78,0,0,1-12.67-3.67A32.53,32.53,0,0,1,425.6,735a29.83,29.83,0,0,1-6.66-10.87,44.53,44.53,0,0,1-2.48-15.48q0-3.88,2.3-3.89H451.6a4.5,4.5,0,0,1,3.31,1.08,4.57,4.57,0,0,1,1.3,2.66c.14,1.06.27,2.12.39,3.17a4.93,4.93,0,0,0,1.08,2.67,3.5,3.5,0,0,0,2.85,1.08,4.3,4.3,0,0,0,2.92-1,5.41,5.41,0,0,0,1.58-2.91,23.16,23.16,0,0,0,.58-3.39c.07-1,.1-2.18.1-3.67v-.57q-.06-5.19-.39-20T465,660.73V636.25c0-1.4,1-2.21,3-2.45,1.53,0,3.84,0,6.91.07s5.38.07,6.91.07q3.46,0,10.23-.07t10.22-.07h6.77q1.67,0,2.31,2a29.37,29.37,0,0,0-.11,3.53c0,1.49,0,2.67,0,3.53v3.6q-.72,22.11-.72,39.46v22.61a38.38,38.38,0,0,1-1.72,11.74,31,31,0,0,1-4.61,9.22,36.15,36.15,0,0,1-6.88,6.88,40.09,40.09,0,0,1-8.25,4.93,58,58,0,0,1-9,3.09,64.66,64.66,0,0,1-8.86,1.7A72.53,72.53,0,0,1,463.12,746.56Z"/><path class="cls-15" d="M669.5,715.6c0,.86,0,2.2.14,4s.17,3.51.22,5.15.08,3.44.11,5.43a47.13,47.13,0,0,1-.22,5.4,37.39,37.39,0,0,1-.75,4.54,7.44,7.44,0,0,1-1.55,3.28,3.35,3.35,0,0,1-2.56,1.15H632.06q-3.46-2.67-3.46-19.88,0-6.25.07-15.08t.07-12.57v-5c0-.43,0-1.26-.1-2.48a21.71,21.71,0,0,1,0-2.85q-2.88,10.44-7.06,29.89t-5.76,26q-.72,2-6.62,2H583.67c-3.13,0-4.95-.82-5.48-2.45L571.28,712c-.62-3.07-1.31-6.26-2-9.58s-1.62-7.08-2.63-11.3l-2.23-9.36q-.87,23-.87,35.14v12.67q0,8.5.15,12.82c-.29,1.05-.82,1.58-1.59,1.58h-6.77q-4.24,0-12.45.07t-12.46.08c-2.59,0-3.89-.44-3.89-1.3V636a2,2,0,0,1,.32-1.12,2.11,2.11,0,0,1,1-.72,9.38,9.38,0,0,1,1.33-.39,8.84,8.84,0,0,1,1.66-.18l1.66-.08q.64,0,1.65,0l1.3,0h8.5q20.52,0,28.91.58t12.85.57q1.73,9.66,5.47,28.66L596.63,692l11.52-58.18a9.08,9.08,0,0,0,1.44.29q7.71,0,22.75-.22t22.76-.22h10.66c1.34.15,2,1.49,2,4Q669.36,707.46,669.5,715.6Z"/><path class="cls-16" d="M706.69,476.2a63.88,63.88,0,0,0-10.29-14.32A122.44,122.44,0,0,0,708,436.83a123.85,123.85,0,0,0,6.26-39.47,111.3,111.3,0,0,0-10.29-47.61,108.41,108.41,0,0,0-27.72-36.68,134.47,134.47,0,0,0-35.05-21.42,171.78,171.78,0,0,0-37.68-11.06,222.17,222.17,0,0,0-37.92-3.16,211.4,211.4,0,0,0-49.75,5.47,144.09,144.09,0,0,0-46,20,112.42,112.42,0,0,0-28.1,26.82c0-.26-.08-.53-.13-.79l0-.12A55,55,0,0,0,424,297.12l-.1-.1c-8.3-7.34-30.53-13.47-30.53-13.47-4.3-.54-97.7-.8-97.7-.8s-54.27,43.9-56.46,45.21l-1.46.92a66.09,66.09,0,0,0-28.26,38.47l-.1.37c-1.91,7.43-2.94,69-2.94,69l.1,1.59a55.3,55.3,0,0,0,44.49,51.66c-.31,24.13-.47,43.15-.47,56.61,0,18.11,30.9,62.22,30.9,62.22l364.92.23,19.69-.7a60,60,0,0,0,27.25-11.66l.07,0a55.63,55.63,0,0,0,20.07-30.5S713.12,488.42,706.69,476.2Z"/><path class="cls-17" d="M291.88,589.23c-11.75-18-21.38-36.74-21.76-42.81,0-13.26.17-32.22.48-56.23l.21-16.15L255,470.8a36.93,36.93,0,0,1-14.69-6.54,36.5,36.5,0,0,1-14.23-27.18l0-.83c.46-26.43,1.5-57.9,2.43-64.09a46.58,46.58,0,0,1,19.82-26.81l1.21-.75c1.43-.88,5.14-3.53,53.1-42.29,32.13.1,77.55.34,87.59.63,8.73,2.6,18.28,6.57,20.81,8.7l0,0a35.78,35.78,0,0,1,11.35,20.63l.11.67,7.71,45.18,27.25-36.86a93,93,0,0,1,23.22-22.18,124.73,124.73,0,0,1,39.79-17.23A192.07,192.07,0,0,1,565.56,297a202.53,202.53,0,0,1,34.58,2.88,151.67,151.67,0,0,1,33.39,9.79,115.13,115.13,0,0,1,30,18.28A89.07,89.07,0,0,1,686.25,358a91.91,91.91,0,0,1,8.43,39.32,104.34,104.34,0,0,1-5.24,33.26,103,103,0,0,1-9.69,21.05l-7.88,12.83,10.41,10.89a43.58,43.58,0,0,1,6.81,9.33c2.66,8.53,4.61,46.66,4.87,78.72a36.44,36.44,0,0,1-12.53,17.72A40.3,40.3,0,0,1,664,588.82l-18,.64Z"/><path class="cls-18" d="M302.68,569.71c-7.49-12.37-11.87-21.66-13-25.17,0-13.14.17-31.32.47-54.1l.43-32.3-31.65-6.48a17.55,17.55,0,0,1-6.89-3,17,17,0,0,1-6.45-12.76v-.06c.49-27.81,1.46-53.17,2.09-59.74a27.16,27.16,0,0,1,11.14-14.27l1-.6c2.3-1.41,4.56-2.88,49.71-39.35,31.18.11,65.54.32,77.53.54a92.86,92.86,0,0,1,11.86,4.66,16.51,16.51,0,0,1,4.26,8.6l.09.59,15.44,90.36,54.48-73.72a73.69,73.69,0,0,1,18.36-17.54,105.2,105.2,0,0,1,33.57-14.5,172.8,172.8,0,0,1,40.51-4.36,182.82,182.82,0,0,1,31.24,2.59,133.07,133.07,0,0,1,29.11,8.53,95.7,95.7,0,0,1,24.91,15.14,69.7,69.7,0,0,1,17.74,23.57,72.69,72.69,0,0,1,6.59,31,85,85,0,0,1-4.22,27.05,83.36,83.36,0,0,1-7.83,17l-15.75,25.67,20.82,21.76a23.19,23.19,0,0,1,2.58,3.22c1.41,8.32,3.26,35.23,3.64,67.74a17.43,17.43,0,0,1-5,5.9,20,20,0,0,1-7.78,3.61l-15.92.57Z"/><path class="cls-19" d="M258.49,414.23v-4.79q0-23.65,1.31-28.73a13.8,13.8,0,0,1,6.24-8.13q1.44-.87,5.37-2.76l7.4-4.06q6.22-2.61,13.13-5.95a141.54,141.54,0,0,0,17.41-10.59q10.53-7.26,14.73-13.94,34.83.59,52.24.59a80.12,80.12,0,0,0,11.32-.59,3.29,3.29,0,0,1,1.82.73,3.83,3.83,0,0,1,.94,2.18,24.55,24.55,0,0,1,.36,3c.05,1,.08,2.57.08,4.79v77.5q0,21.62.87,64.65t.87,64.79q-.74,5.22-20.9,5.22-2.91,0-7.84-.14c-3.28-.1-5.51-.15-6.67-.15q-4.07,0-11.46.15t-10.89.14q-9,0-27-.58l-3.77-4.93q-1.46-1.45-1.45-6.09,0-22.07.58-63.86V419.45q-21.35,14.08-39.77,19.74a6,6,0,0,1-3.62-.87,4.07,4.07,0,0,1-1.31-3.19Z"/><path class="cls-19" d="M659.6,397.39a71.61,71.61,0,0,1-3.55,22.93,65.42,65.42,0,0,1-9,18,112.67,112.67,0,0,1-13.64,15.09,166.57,166.57,0,0,1-15.89,13.28q-7.69,5.58-17.49,13.42a205.44,205.44,0,0,0-16.76,14.8q9.87,0,30.26-.58t31-.58q10,0,13.57,6.75t3.55,19.37q0,3.93-.43,13.28t-.44,14.3v2.61a14.31,14.31,0,0,1-.29,3.34,4.09,4.09,0,0,1-1.59,2.17A8.72,8.72,0,0,1,655,557H644.51q-11-.28-47-1.16-58.05,0-126.83,2.32v-2.9q-2.18-1.31-3.56-5.22a26.09,26.09,0,0,1-1.37-8.71V499q0-3.35,9.86-9.87,39.92-27,57.18-39.18l9-7q31.34-24.37,31.34-43.53,0-6.1-3.55-9.58A15.08,15.08,0,0,0,552,388.62a11.3,11.3,0,0,0-4.07,5.51,55.33,55.33,0,0,0-1.74,6.6,27.92,27.92,0,0,1-1.88,6.1,5.4,5.4,0,0,1-3.7,3.34H473.27q-8.13,0-8.13-4.36,2.19-20.9,10-35.91a62.68,62.68,0,0,1,20.89-23.73,91.64,91.64,0,0,1,29.46-12.7,159.11,159.11,0,0,1,37.44-4,170.26,170.26,0,0,1,29,2.39,118.89,118.89,0,0,1,26.26,7.7,82,82,0,0,1,21.55,13.06,56.34,56.34,0,0,1,14.44,19.22A59.51,59.51,0,0,1,659.6,397.39Z"/><text class="cls-20" transform="translate(202.36 790.14)">ENCUENT<tspan class="cls-21" x="108.97" y="0">R</tspan><tspan x="125.05" y="0">O N</tspan><tspan class="cls-22" x="166.51" y="0">A</tspan><tspan class="cls-23" x="182.01" y="0">CIONA</tspan><tspan class="cls-24" x="255.55" y="0">L</tspan><tspan class="cls-25" x="268.52" y="0" xml:space="preserve"> DE JUEG</tspan><tspan class="cls-26" x="374.01" y="0">O</tspan><tspan class="cls-27" x="390.46" y="0">S</tspan><tspan class="cls-25" x="403.84" y="0" xml:space="preserve"> DE M</tspan><tspan class="cls-28" x="471.48" y="0">E</tspan><tspan class="cls-29" x="486.19" y="0">S</tspan><tspan class="cls-30" x="499.95" y="0">A</tspan></text><text class="cls-31" transform="translate(172.43 905.18)">2<tspan class="cls-32" x="38.02" y="0">7</tspan><tspan x="66.38" y="0">,28,29 OCTUBRE</tspan><tspan class="cls-33"><tspan x="1.49" y="69">USin</tspan><tspan class="cls-34" x="114.79" y="69">a</tspan><tspan x="145.67" y="69" xml:space="preserve"> cu</tspan><tspan class="cls-35" x="225.74" y="69">l</tspan><tspan x="249.39" y="69">tura</tspan><tspan class="cls-36" x="373.4" y="69">l</tspan><tspan x="401.68" y="69">,</tspan><tspan class="cls-34" x="420.57" y="69"> </tspan><tspan class="cls-37" x="436.38" y="69">s</tspan><tspan x="464.19" y="69">a</tspan><tspan class="cls-35" x="495.74" y="69">l</tspan><tspan class="cls-38" x="519.4" y="69">t</tspan><tspan class="cls-34" x="544.52" y="69">a</tspan></tspan></text><text class="cls-39" transform="translate(890.88 398.91)">¡<tspan class="cls-40" x="13.56" y="0"> </tspan><tspan class="cls-41" x="24.36" y="0">S</tspan><tspan class="cls-42" x="45.96" y="0">UM</tspan><tspan class="cls-43" x="105.54" y="0">Á</tspan><tspan class="cls-44" x="129.84" y="0"> </tspan><tspan x="140.34" y="0">TU P</tspan><tspan class="cls-45" x="223.19" y="0">R</tspan><tspan x="248.81" y="0">O</tspan><tspan class="cls-46" x="274.85" y="0">P</tspan><tspan x="299.39" y="0">U</tspan><tspan class="cls-45" x="325.19" y="0">ES</tspan><tspan class="cls-47" x="369.83" y="0">T</tspan><tspan class="cls-40" x="388.97" y="0">A</tspan><tspan x="413.27" y="0" xml:space="preserve"> !</tspan></text><text class="cls-39" transform="translate(927.09 605.91)">¿Qué<tspan class="cls-40" x="97.26" y="0"> </tspan><tspan x="108.06" y="0">se regi</tspan><tspan class="cls-45" x="251.63" y="0">s</tspan><tspan x="273.05" y="0">tr</tspan><tspan class="cls-48" x="319.97" y="0">a</tspan><tspan x="343.67" y="0">?</tspan></text><path class="cls-49" d="M981.37,636a7.47,7.47,0,0,1,1.92,5.45v2.78l-4.5.22V641.9q0-3.58-2.65-3.58a2.48,2.48,0,0,0-2,.8,3.53,3.53,0,0,0-.68,2.34v16.86a3.53,3.53,0,0,0,.68,2.34,2.48,2.48,0,0,0,2,.8c1.77,0,2.65-1.2,2.65-3.58v-3.44l4.5.22v3.71a7.47,7.47,0,0,1-1.92,5.45,7.15,7.15,0,0,1-5.36,2,7,7,0,0,1-5.3-1.94,7.47,7.47,0,0,1-1.9-5.47v-17a7.47,7.47,0,0,1,1.9-5.47,7,7,0,0,1,5.3-2A7.16,7.16,0,0,1,981.37,636Z"/><path class="cls-49" d="M1002.19,665.34h-4.68V651.88h-5.57v13.46h-4.68v-30.9h4.68v13h5.57v-13h4.68Z"/><path class="cls-49" d="M1022.19,665.34h-4.77l-1-7h-5.16l-1,7h-4.68l5.34-30.9h6Zm-8.44-24.28-1.89,13h3.93l-1.9-13Z"/><path class="cls-49" d="M1036.09,665.34l-3.7-13.07h-2.17v13.07h-4.68v-30.9h6.76a7.8,7.8,0,0,1,5.78,2,7.91,7.91,0,0,1,2,5.81v2.21c0,3.27-1.11,5.53-3.31,6.8l4.28,14.08Zm-5.87-26.58V648h1.9a3.07,3.07,0,0,0,2.47-.93,4.35,4.35,0,0,0,.8-2.87v-1.59a4.33,4.33,0,0,0-.8-2.87,3.07,3.07,0,0,0-2.47-.93Z"/><path class="cls-49" d="M1049.12,660.93h7.81v4.41h-12.49v-30.9h4.68Z"/><path class="cls-49" d="M1074.9,665.34h-4.77l-1-7H1064l-1,7h-4.68l5.34-30.9h6Zm-8.43-24.28-1.9,13h3.93l-1.9-13Z"/><path class="cls-49" d="M1088.94,635.8a6.94,6.94,0,0,1,1.81,5.13v.79l-4.5.44V641a2.89,2.89,0,0,0-.62-2,2.6,2.6,0,0,0-3.53,0,2.84,2.84,0,0,0-.62,2v.4a5.17,5.17,0,0,0,.84,2.76,15.44,15.44,0,0,0,3.09,3.25,21.6,21.6,0,0,1,4.55,4.94,9.45,9.45,0,0,1,1.32,4.95v1.54a6.77,6.77,0,0,1-1.88,5.12,8.84,8.84,0,0,1-10.72,0,6.73,6.73,0,0,1-1.88-5.12v-2.07l4.5-.45v2.21c0,1.94.89,2.92,2.65,2.92s2.65-1,2.65-2.92v-1a5.11,5.11,0,0,0-.88-2.85,17.2,17.2,0,0,0-3.18-3.29,20.39,20.39,0,0,1-4.46-4.88,9.6,9.6,0,0,1-1.28-4.92v-.66a6.94,6.94,0,0,1,1.81-5.13,8.27,8.27,0,0,1,10.33,0Z"/><path class="cls-49" d="M1104.17,667.55h-3.8l11.13-35.32h3.8Z"/><path class="cls-49" d="M1139,638.85h-5v26.49h-4.68V638.85h-5v-4.41H1139Z"/><path class="cls-49" d="M1155.43,665.34h-4.77l-1-7h-5.17l-1,7h-4.68l5.35-30.9h6ZM1147,641.06l-1.9,13H1149l-1.9-13Z"/><path class="cls-49" d="M1163.46,660.93h7.82v4.41h-12.5v-30.9h4.68Z"/><path class="cls-49" d="M1179,660.93h7.82v4.41h-12.5v-30.9H1179Z"/><path class="cls-49" d="M1202.93,638.76h-8.47v8.74h6.84v4.33h-6.84V661h8.47v4.33h-13.15v-30.9h13.15Z"/><path class="cls-49" d="M1217.46,665.34l-3.71-13.07h-2.16v13.07h-4.68v-30.9h6.75a7.84,7.84,0,0,1,5.79,2,7.94,7.94,0,0,1,2,5.81v2.21c0,3.27-1.1,5.53-3.31,6.8l4.28,14.08Zm-5.87-26.58V648h1.89A3.09,3.09,0,0,0,1216,647a4.35,4.35,0,0,0,.79-2.87v-1.59a4.33,4.33,0,0,0-.79-2.87,3.09,3.09,0,0,0-2.48-.93Z"/><path class="cls-49" d="M1239,638.76h-8.48v8.74h6.85v4.33h-6.85V661H1239v4.33H1225.8v-30.9H1239Z"/><path class="cls-49" d="M1253.53,635.8a7,7,0,0,1,1.81,5.13v.79l-4.5.44V641a2.89,2.89,0,0,0-.62-2,2.62,2.62,0,0,0-3.54,0,2.88,2.88,0,0,0-.61,2v.4a5.17,5.17,0,0,0,.84,2.76,14.93,14.93,0,0,0,3.09,3.25,21.52,21.52,0,0,1,4.54,4.94,9.37,9.37,0,0,1,1.33,4.95v1.54A6.77,6.77,0,0,1,1254,664a8.86,8.86,0,0,1-10.73,0,6.77,6.77,0,0,1-1.87-5.12v-2.07l4.5-.45v2.21c0,1.94.88,2.92,2.65,2.92s2.65-1,2.65-2.92v-1a5.19,5.19,0,0,0-.88-2.85,17.2,17.2,0,0,0-3.18-3.29,20.39,20.39,0,0,1-4.46-4.88,9.5,9.5,0,0,1-1.28-4.92v-.66a6.31,6.31,0,0,1,7-6.94A7,7,0,0,1,1253.53,635.8Z"/><path class="cls-49" d="M923.27,711H918.5l-1-7h-5.17l-1,7h-4.68l5.34-30.9h6Zm-8.43-24.28-1.9,13h3.93l-1.9-13Z"/><path class="cls-49" d="M938.48,681.61a7.47,7.47,0,0,1,1.92,5.45v2.78l-4.5.23v-2.52c0-2.39-.89-3.58-2.65-3.58a2.46,2.46,0,0,0-2,.8,3.53,3.53,0,0,0-.68,2.34V704a3.53,3.53,0,0,0,.68,2.34,2.46,2.46,0,0,0,2,.8c1.76,0,2.65-1.19,2.65-3.58v-3.44l4.5.22V704a7.47,7.47,0,0,1-1.92,5.45,7.15,7.15,0,0,1-5.36,2,7,7,0,0,1-5.3-1.94,7.47,7.47,0,0,1-1.9-5.47v-17a7.47,7.47,0,0,1,1.9-5.47,7,7,0,0,1,5.3-1.94A7.15,7.15,0,0,1,938.48,681.61Z"/><path class="cls-49" d="M957,684.5h-5V711h-4.68V684.5h-5v-4.41H957Z"/><path class="cls-49" d="M964.68,711H960v-30.9h4.68Z"/><path class="cls-49" d="M979.3,711h-6L968,680.09h4.77l3.48,23.57h.09l3.44-23.57h4.68Z"/><path class="cls-49" d="M992.54,711h-4.68v-30.9h4.68Z"/><path class="cls-49" d="M1010.07,682.1a7.92,7.92,0,0,1,2,5.8v15.28a7.92,7.92,0,0,1-2,5.8,7.81,7.81,0,0,1-5.79,2h-6.71v-30.9h6.71A7.81,7.81,0,0,1,1010.07,682.1Zm-7.82,2.31v22.26h1.86a3.08,3.08,0,0,0,2.47-.93,4.35,4.35,0,0,0,.79-2.87V688.21a4.35,4.35,0,0,0-.79-2.87,3.08,3.08,0,0,0-2.47-.93Z"/><path class="cls-49" d="M1031.35,711h-4.77l-1-7h-5.16l-1,7h-4.68l5.35-30.9h6Zm-8.43-24.28-1.9,13H1025l-1.9-13Z"/><path class="cls-49" d="M1047.2,682.1a7.92,7.92,0,0,1,2,5.8v15.28a7.92,7.92,0,0,1-2,5.8,7.81,7.81,0,0,1-5.79,2h-6.71v-30.9h6.71A7.81,7.81,0,0,1,1047.2,682.1Zm-7.82,2.31v22.26h1.86a3.08,3.08,0,0,0,2.47-.93,4.35,4.35,0,0,0,.79-2.87V688.21a4.35,4.35,0,0,0-.79-2.87,3.08,3.08,0,0,0-2.47-.93Z"/><path class="cls-49" d="M1066.89,684.41h-8.48v8.74h6.84v4.33h-6.84v9.19h8.48V711h-13.16v-30.9h13.16Z"/><path class="cls-49" d="M1081.46,681.46a6.94,6.94,0,0,1,1.81,5.12v.79l-4.51.44v-1.15a2.88,2.88,0,0,0-.61-2,2.62,2.62,0,0,0-3.54,0,2.88,2.88,0,0,0-.61,2v.4a5.21,5.21,0,0,0,.83,2.76,15.28,15.28,0,0,0,3.1,3.25,21.52,21.52,0,0,1,4.54,4.94,9.37,9.37,0,0,1,1.33,5v1.54a6.77,6.77,0,0,1-1.88,5.12,8.86,8.86,0,0,1-10.73,0,6.77,6.77,0,0,1-1.87-5.12v-2.07l4.5-.44v2.2c0,1.95.88,2.92,2.65,2.92s2.65-1,2.65-2.92v-1a5.12,5.12,0,0,0-.89-2.85,17.09,17.09,0,0,0-3.17-3.29,20.2,20.2,0,0,1-4.46-4.88,9.48,9.48,0,0,1-1.28-4.92v-.66a6.31,6.31,0,0,1,7-6.93A7,7,0,0,1,1081.46,681.46Z"/><path class="cls-49" d="M1107.11,682.1a7.92,7.92,0,0,1,2,5.8v2.47a7.93,7.93,0,0,1-2,5.81,7.81,7.81,0,0,1-5.79,2h-2.07V711h-4.68v-30.9h6.75A7.81,7.81,0,0,1,1107.11,682.1Zm-7.86,2.31v9.45h1.9a3.07,3.07,0,0,0,2.47-.93,4.3,4.3,0,0,0,.79-2.86v-1.86a4.35,4.35,0,0,0-.79-2.87,3.07,3.07,0,0,0-2.47-.93Z"/><path class="cls-49" d="M1126.09,711h-4.77l-1-7h-5.17l-1,7h-4.68l5.34-30.9h6Zm-8.43-24.28-1.9,13h3.93l-1.9-13Z"/><path class="cls-49" d="M1140,711l-3.71-13.07h-2.16V711h-4.68v-30.9h6.75a7.81,7.81,0,0,1,5.79,2,7.92,7.92,0,0,1,2,5.8v2.21c0,3.27-1.1,5.53-3.31,6.8l4.28,14.08Zm-5.87-26.58v9.19H1136a3.09,3.09,0,0,0,2.48-.93,4.33,4.33,0,0,0,.79-2.87v-1.59a4.35,4.35,0,0,0-.79-2.87,3.09,3.09,0,0,0-2.48-.93Z"/><path class="cls-49" d="M1163.31,711h-4.77l-1-7h-5.17l-1,7h-4.67l5.34-30.9h6Zm-8.43-24.28-1.9,13h3.93l-1.9-13Z"/><path class="cls-49" d="M1179.29,711h-4.68v-30.9h4.68Z"/><path class="cls-49" d="M1199.56,711H1195l-6.13-20.48h-.09V711h-4.42v-30.9h5.21l5.52,18.41h.09V680.09h4.42Z"/><path class="cls-49" d="M1217.52,684.41h-8.25v8.74h6.62v4.33h-6.62V711h-4.68v-30.9h12.93Z"/><path class="cls-49" d="M1234.21,711h-4.77l-1-7h-5.17l-1,7h-4.68l5.34-30.9h6Zm-8.43-24.28-1.9,13h3.93l-1.9-13Z"/><path class="cls-49" d="M1252.8,711h-4.59l-6.14-20.48H1242V711h-4.41v-30.9h5.21l5.52,18.41h.09V680.09h4.41Z"/><path class="cls-49" d="M1269.91,681.61a7.47,7.47,0,0,1,1.92,5.45v2.78l-4.5.23v-2.52c0-2.39-.89-3.58-2.65-3.58a2.46,2.46,0,0,0-2,.8,3.48,3.48,0,0,0-.68,2.34V704a3.48,3.48,0,0,0,.68,2.34,2.46,2.46,0,0,0,2,.8c1.76,0,2.65-1.19,2.65-3.58v-3.44l4.5.22V704a7.47,7.47,0,0,1-1.92,5.45,7.16,7.16,0,0,1-5.37,2,7,7,0,0,1-5.29-1.94,7.47,7.47,0,0,1-1.9-5.47v-17a7.47,7.47,0,0,1,1.9-5.47,7,7,0,0,1,5.29-1.94A7.16,7.16,0,0,1,1269.91,681.61Z"/><path class="cls-49" d="M1280.48,711h-4.68v-30.9h4.68Z"/><path class="cls-49" d="M1300.48,711h-4.77l-1-7h-5.17l-1,7h-4.68l5.34-30.9h6Zm-8.43-24.28-1.9,13h3.93l-1.9-13Z"/><path class="cls-49" d="M1314.52,681.46a6.9,6.9,0,0,1,1.81,5.12v.79l-4.5.44v-1.15a2.89,2.89,0,0,0-.62-2,2.6,2.6,0,0,0-3.53,0,2.84,2.84,0,0,0-.62,2v.4a5.14,5.14,0,0,0,.84,2.76,15.44,15.44,0,0,0,3.09,3.25,21.6,21.6,0,0,1,4.55,4.94,9.45,9.45,0,0,1,1.32,5v1.54a6.77,6.77,0,0,1-1.88,5.12,8.84,8.84,0,0,1-10.72,0,6.73,6.73,0,0,1-1.88-5.12v-2.07l4.5-.44v2.2c0,1.95.89,2.92,2.65,2.92s2.65-1,2.65-2.92v-1a5.11,5.11,0,0,0-.88-2.85,17.2,17.2,0,0,0-3.18-3.29,20.2,20.2,0,0,1-4.46-4.88,9.57,9.57,0,0,1-1.28-4.92v-.66a6.9,6.9,0,0,1,1.81-5.12,8.27,8.27,0,0,1,10.33,0Z"/><path class="cls-49" d="M906.14,727.11a6.9,6.9,0,0,1,1.81,5.12V733l-4.5.44v-1.14a2.9,2.9,0,0,0-.62-2,2.6,2.6,0,0,0-3.53,0,2.9,2.9,0,0,0-.62,2v.39a5.17,5.17,0,0,0,.84,2.76,15.44,15.44,0,0,0,3.09,3.25,21.6,21.6,0,0,1,4.55,4.94,9.45,9.45,0,0,1,1.32,5v1.54a6.73,6.73,0,0,1-1.88,5.12,8.84,8.84,0,0,1-10.72,0,6.73,6.73,0,0,1-1.88-5.12v-2.07l4.5-.44v2.2c0,1.95.89,2.92,2.65,2.92s2.65-1,2.65-2.92v-1a5.11,5.11,0,0,0-.88-2.85,17.2,17.2,0,0,0-3.18-3.29,20.2,20.2,0,0,1-4.46-4.88,9.6,9.6,0,0,1-1.28-4.92v-.66a6.9,6.9,0,0,1,1.81-5.12,8.27,8.27,0,0,1,10.33,0Z"/><path class="cls-49" d="M923.89,730.15h-5v26.49h-4.68V730.15h-5v-4.41h14.66Z"/><path class="cls-49" d="M940.31,756.64h-4.77l-1-7h-5.17l-1,7h-4.68l5.34-30.9h6Zm-8.43-24.28-1.9,13h3.93l-1.9-13Z"/><path class="cls-49" d="M958.9,756.64h-4.59l-6.14-20.48h-.09v20.48h-4.41v-30.9h5.21l5.52,18.41h.08V725.74h4.42Z"/><path class="cls-49" d="M976.43,727.75a7.92,7.92,0,0,1,2,5.8v15.28a7.92,7.92,0,0,1-2,5.8,7.81,7.81,0,0,1-5.79,2h-6.71v-30.9h6.71A7.81,7.81,0,0,1,976.43,727.75Zm-7.82,2.31v22.26h1.86a3.07,3.07,0,0,0,2.47-.93,4.35,4.35,0,0,0,.79-2.87V733.86a4.35,4.35,0,0,0-.79-2.87,3.07,3.07,0,0,0-2.47-.93Z"/><path class="cls-49" d="M993.78,727.11a6.94,6.94,0,0,1,1.81,5.12V733l-4.51.44v-1.14a2.89,2.89,0,0,0-.61-2,2.62,2.62,0,0,0-3.54,0,2.89,2.89,0,0,0-.61,2v.39a5.17,5.17,0,0,0,.84,2.76,14.93,14.93,0,0,0,3.09,3.25,21.52,21.52,0,0,1,4.54,4.94,9.37,9.37,0,0,1,1.33,5v1.54a6.77,6.77,0,0,1-1.88,5.12,8.86,8.86,0,0,1-10.73,0,6.77,6.77,0,0,1-1.87-5.12v-2.07l4.5-.44v2.2c0,1.95.88,2.92,2.65,2.92s2.65-1,2.65-2.92v-1a5.12,5.12,0,0,0-.89-2.85,16.78,16.78,0,0,0-3.17-3.29,20.2,20.2,0,0,1-4.46-4.88,9.5,9.5,0,0,1-1.28-4.92v-.66a6.31,6.31,0,0,1,7-6.93A7,7,0,0,1,993.78,727.11Z"/><path class="cls-49" d="M1019.38,727.75a7.88,7.88,0,0,1,2,5.8v15.28a7.88,7.88,0,0,1-2,5.8,7.77,7.77,0,0,1-5.78,2h-6.71v-30.9h6.71A7.77,7.77,0,0,1,1019.38,727.75Zm-7.81,2.31v22.26h1.85a3.09,3.09,0,0,0,2.48-.93,4.35,4.35,0,0,0,.79-2.87V733.86a4.35,4.35,0,0,0-.79-2.87,3.09,3.09,0,0,0-2.48-.93Z"/><path class="cls-49" d="M1039.07,730.06h-8.47v8.75h6.84v4.32h-6.84v9.19h8.47v4.32h-13.15v-30.9h13.15Z"/><path class="cls-49" d="M1060.58,756.64h-6l-5.21-30.9h4.77l3.48,23.57h.09l3.44-23.57h4.68Z"/><path class="cls-49" d="M1082.3,730.06h-8.48v8.75h6.84v4.32h-6.84v9.19h8.48v4.32h-13.16v-30.9h13.16Z"/><path class="cls-49" d="M1101.5,756.64h-4.59l-6.14-20.48h-.09v20.48h-4.41v-30.9h5.21l5.52,18.41h.09V725.74h4.41Z"/><path class="cls-49" d="M1119.16,730.15h-5v26.49h-4.68V730.15h-5v-4.41h14.66Z"/><path class="cls-49" d="M1135.58,756.64h-4.76l-1-7h-5.16l-1,7h-4.68l5.34-30.9h6Zm-8.43-24.28-1.9,13h3.93l-1.9-13Z"/><path class="cls-49" d="M1149,758.85h-3.8l11.12-35.32h3.8Z"/><path class="cls-49" d="M1185,730.06h-8.48v8.75h6.85v4.32h-6.85v9.19H1185v4.32h-13.15v-30.9H1185Z"/><path class="cls-49" d="M1198.32,740.79l5.92,15.85h-5l-3.84-10.86h-.09l-3.62,10.86h-4.85l5.91-16-5.56-14.88h4.94l3.45,9.84h.09l3.31-9.84h4.85Z"/><path class="cls-49" d="M1222.07,756.64h-4.68V743.18h-5.56v13.46h-4.68v-30.9h4.68v13h5.56v-13h4.68Z"/><path class="cls-49" d="M1231.79,756.64h-4.68v-30.9h4.68Z"/><path class="cls-49" d="M1248.89,727.75a8.07,8.07,0,0,1,1.92,5.8v.58a8.73,8.73,0,0,1-.84,4.15,4.55,4.55,0,0,1-2.64,2.16v.09a5.19,5.19,0,0,1,3.15,2.4,9.89,9.89,0,0,1,1,4.84v1.06a7.92,7.92,0,0,1-2,5.8,7.79,7.79,0,0,1-5.79,2h-6.88v-30.9h6.53A7.29,7.29,0,0,1,1248.89,727.75Zm-7.39,2.31v8.44H1243a3,3,0,0,0,2.43-.91,4.42,4.42,0,0,0,.75-2.85v-1a4.44,4.44,0,0,0-.7-2.78,2.71,2.71,0,0,0-2.25-.89Zm0,12.76v9.5h2a3.07,3.07,0,0,0,2.47-.93,4.35,4.35,0,0,0,.8-2.87V746.8a4.63,4.63,0,0,0-.82-3,3.37,3.37,0,0,0-2.67-.95Z"/><path class="cls-49" d="M1259.91,756.64h-4.68v-30.9h4.68Z"/><path class="cls-49" d="M1277,727.26a7.47,7.47,0,0,1,1.92,5.45v2.78l-4.51.22V733.2q0-3.59-2.65-3.58a2.44,2.44,0,0,0-2,.8,3.48,3.48,0,0,0-.69,2.34v16.86a3.48,3.48,0,0,0,.69,2.34,2.44,2.44,0,0,0,2,.8c1.77,0,2.65-1.2,2.65-3.58v-3.44l4.51.22v3.71a7.47,7.47,0,0,1-1.92,5.45,7.18,7.18,0,0,1-5.37,2,7.05,7.05,0,0,1-5.3-1.94,7.52,7.52,0,0,1-1.9-5.47v-17a7.52,7.52,0,0,1,1.9-5.47,7.05,7.05,0,0,1,5.3-1.94A7.18,7.18,0,0,1,1277,727.26Z"/><path class="cls-49" d="M1287.59,756.64h-4.68v-30.9h4.68Z"/><path class="cls-49" d="M1305.23,727.39a7.93,7.93,0,0,1,2,5.72v16.16a7.93,7.93,0,0,1-2,5.72,8.4,8.4,0,0,1-11.09,0,8,8,0,0,1-2-5.72V733.11a8,8,0,0,1,2-5.72,8.4,8.4,0,0,1,11.09,0Zm-7.69,3.14a4.13,4.13,0,0,0-.72,2.62v16.07a4.14,4.14,0,0,0,.72,2.63,3,3,0,0,0,4.29,0,4.14,4.14,0,0,0,.73-2.63V733.15a4.13,4.13,0,0,0-.73-2.62,3,3,0,0,0-4.29,0Zm3.34-6.56h-3.45l2.56-4.86h4.73Z"/><path class="cls-49" d="M1327,756.64h-4.59l-6.13-20.48h-.09v20.48h-4.42v-30.9H1317l5.52,18.41h.09V725.74H1327Z"/><path class="cls-49" d="M965.43,775.8h-5v26.49h-4.68V775.8h-5v-4.41h14.65Z"/><path class="cls-49" d="M981.59,775.71h-8.48v8.75H980v4.32h-6.85V798h8.48v4.32H968.44v-30.9h13.15Z"/><path class="cls-49" d="M996.16,772.76a6.9,6.9,0,0,1,1.81,5.12v.79l-4.5.44V778a2.9,2.9,0,0,0-.62-2,2.6,2.6,0,0,0-3.53,0,2.85,2.85,0,0,0-.62,2v.39a5.12,5.12,0,0,0,.84,2.76,15.44,15.44,0,0,0,3.09,3.25,21.6,21.6,0,0,1,4.55,4.94,9.45,9.45,0,0,1,1.32,5v1.54a6.77,6.77,0,0,1-1.88,5.12,8.84,8.84,0,0,1-10.72,0A6.73,6.73,0,0,1,984,795.8v-2.07l4.5-.44v2.2c0,2,.89,2.92,2.65,2.92s2.65-1,2.65-2.92v-1a5.11,5.11,0,0,0-.88-2.85,17.2,17.2,0,0,0-3.18-3.29,20.2,20.2,0,0,1-4.46-4.88,9.55,9.55,0,0,1-1.28-4.92v-.66a6.9,6.9,0,0,1,1.81-5.12,8.27,8.27,0,0,1,10.33,0Z"/><path class="cls-49" d="M1013.91,775.8h-5v26.49h-4.68V775.8h-5v-4.41h14.66Z"/><path class="cls-49" d="M1030.07,775.71h-8.48v8.75h6.84v4.32h-6.84V798h8.48v4.32h-13.16v-30.9h13.16Z"/><path class="cls-49" d="M1046.65,773a8,8,0,0,1,2,5.72v16.16a8,8,0,0,1-2,5.72,8.4,8.4,0,0,1-11.09,0,7.93,7.93,0,0,1-2-5.72V778.76a7.93,7.93,0,0,1,2-5.72,8.4,8.4,0,0,1,11.09,0Zm-7.69,3.14a4.13,4.13,0,0,0-.73,2.62v16.08a4.13,4.13,0,0,0,.73,2.62,3,3,0,0,0,4.29,0,4.13,4.13,0,0,0,.72-2.62V778.8a4.13,4.13,0,0,0-.72-2.62,3,3,0,0,0-4.29,0Z"/><path class="cls-49" d="M1074.08,773.4a7.88,7.88,0,0,1,2,5.8v15.28a7.88,7.88,0,0,1-2,5.8,7.77,7.77,0,0,1-5.78,2h-6.71v-30.9h6.71A7.77,7.77,0,0,1,1074.08,773.4Zm-7.81,2.31V798h1.85a3.09,3.09,0,0,0,2.48-.93,4.35,4.35,0,0,0,.79-2.87V779.51a4.35,4.35,0,0,0-.79-2.87,3.09,3.09,0,0,0-2.48-.93Z"/><path class="cls-49" d="M1093.77,775.71h-8.47v8.75h6.84v4.32h-6.84V798h8.47v4.32h-13.15v-30.9h13.15Z"/><path class="cls-49" d="M1118.67,773.4a7.88,7.88,0,0,1,2,5.8v2.47a7.89,7.89,0,0,1-2,5.81,7.77,7.77,0,0,1-5.78,2h-2.08v12.8h-4.68v-30.9h6.76A7.77,7.77,0,0,1,1118.67,773.4Zm-7.86,2.31v9.45h1.9a3.12,3.12,0,0,0,2.48-.92,4.35,4.35,0,0,0,.79-2.87v-1.86a4.35,4.35,0,0,0-.79-2.87,3.09,3.09,0,0,0-2.48-.93Z"/><path class="cls-49" d="M1134.66,802.29,1131,789.22h-2.17v13.07h-4.68v-30.9h6.76a7.77,7.77,0,0,1,5.78,2,7.88,7.88,0,0,1,2,5.8v2.21c0,3.27-1.1,5.53-3.31,6.8l4.28,14.08Zm-5.88-26.58v9.19h1.9a3.07,3.07,0,0,0,2.47-.93,4.33,4.33,0,0,0,.8-2.87v-1.59a4.35,4.35,0,0,0-.8-2.87,3.07,3.07,0,0,0-2.47-.93Z"/><path class="cls-49" d="M1155.56,773a7.93,7.93,0,0,1,2,5.72v16.16a7.93,7.93,0,0,1-2,5.72,8.39,8.39,0,0,1-11.08,0,7.93,7.93,0,0,1-2-5.72V778.76a7.93,7.93,0,0,1,2-5.72,8.39,8.39,0,0,1,11.08,0Zm-7.68,3.14a4.07,4.07,0,0,0-.73,2.62v16.08a4.07,4.07,0,0,0,.73,2.62,3,3,0,0,0,4.28,0,4.07,4.07,0,0,0,.73-2.62V778.8a4.07,4.07,0,0,0-.73-2.62,3,3,0,0,0-4.28,0Z"/><path class="cls-49" d="M1174.61,775.8h-5v26.49h-4.68V775.8h-5v-4.41h14.66Z"/><path class="cls-49" d="M1190.09,773a8,8,0,0,1,2,5.72v16.16a8,8,0,0,1-2,5.72,8.4,8.4,0,0,1-11.09,0,7.93,7.93,0,0,1-2-5.72V778.76a7.93,7.93,0,0,1,2-5.72,8.4,8.4,0,0,1,11.09,0Zm-7.69,3.14a4.13,4.13,0,0,0-.72,2.62v16.08a4.13,4.13,0,0,0,.72,2.62,3,3,0,0,0,4.29,0,4.13,4.13,0,0,0,.72-2.62V778.8a4.13,4.13,0,0,0-.72-2.62,3,3,0,0,0-4.29,0Z"/><path class="cls-49" d="M1209.14,775.8h-5v26.49h-4.68V775.8h-5v-4.41h14.66Z"/><path class="cls-49" d="M1216.82,802.29h-4.68v-30.9h4.68Z"/><path class="cls-49" d="M1234.39,773.4a7.92,7.92,0,0,1,2,5.8v2.47a7.93,7.93,0,0,1-2,5.81,7.78,7.78,0,0,1-5.78,2h-2.08v12.8h-4.68v-30.9h6.76A7.78,7.78,0,0,1,1234.39,773.4Zm-7.86,2.31v9.45h1.9a3.1,3.1,0,0,0,2.47-.92,4.35,4.35,0,0,0,.8-2.87v-1.86a4.35,4.35,0,0,0-.8-2.87,3.07,3.07,0,0,0-2.47-.93Z"/><path class="cls-49" d="M1252.64,773a7.93,7.93,0,0,1,2,5.72v16.16a7.93,7.93,0,0,1-2,5.72,8.39,8.39,0,0,1-11.08,0,7.93,7.93,0,0,1-2-5.72V778.76a7.93,7.93,0,0,1,2-5.72,8.39,8.39,0,0,1,11.08,0Zm-7.68,3.14a4.13,4.13,0,0,0-.73,2.62v16.08a4.13,4.13,0,0,0,.73,2.62,3,3,0,0,0,4.28,0,4.07,4.07,0,0,0,.73-2.62V778.8a4.07,4.07,0,0,0-.73-2.62,3,3,0,0,0-4.28,0Z"/><path class="cls-49" d="M1270,772.76a6.94,6.94,0,0,1,1.81,5.12v.79l-4.51.44V778a2.89,2.89,0,0,0-.61-2,2.28,2.28,0,0,0-1.77-.69,2.25,2.25,0,0,0-1.77.69,2.89,2.89,0,0,0-.61,2v.39a5.1,5.1,0,0,0,.83,2.76,15.44,15.44,0,0,0,3.09,3.25,21.37,21.37,0,0,1,4.55,4.94,9.46,9.46,0,0,1,1.33,5v1.54a6.77,6.77,0,0,1-1.88,5.12,8.86,8.86,0,0,1-10.73,0,6.77,6.77,0,0,1-1.87-5.12v-2.07l4.5-.44v2.2c0,2,.88,2.92,2.65,2.92s2.65-1,2.65-2.92v-1a5.12,5.12,0,0,0-.89-2.85,16.89,16.89,0,0,0-3.18-3.29,20.34,20.34,0,0,1-4.45-4.88,9.45,9.45,0,0,1-1.28-4.92v-.66a6.31,6.31,0,0,1,7-6.93A7,7,0,0,1,1270,772.76Z"/><path class="cls-49" d="M948.24,821.45h-5v26.49h-4.68V821.45h-5V817h14.66Z"/><path class="cls-49" d="M963.71,818.69a7.93,7.93,0,0,1,2,5.72v16.16a7.93,7.93,0,0,1-2,5.72,8.39,8.39,0,0,1-11.08,0,7.93,7.93,0,0,1-2-5.72V824.41a7.93,7.93,0,0,1,2-5.72,8.39,8.39,0,0,1,11.08,0ZM956,821.83a4.08,4.08,0,0,0-.73,2.63v16.07a4.07,4.07,0,0,0,.73,2.62,3,3,0,0,0,4.28,0,4.07,4.07,0,0,0,.73-2.62V824.46a4.08,4.08,0,0,0-.73-2.63,3,3,0,0,0-4.28,0Z"/><path class="cls-49" d="M980.82,847.94l-3.71-13.07H975v13.07h-4.68V817H977a7.81,7.81,0,0,1,5.79,2,7.92,7.92,0,0,1,2,5.8v2.21c0,3.27-1.1,5.53-3.31,6.8l4.28,14.08ZM975,821.37v9.18h1.9a3.08,3.08,0,0,0,2.47-.93,4.33,4.33,0,0,0,.79-2.87v-1.59a4.35,4.35,0,0,0-.79-2.87,3.08,3.08,0,0,0-2.47-.92Z"/><path class="cls-49" d="M1004.4,847.94h-4.6l-6.13-20.48h-.09v20.48h-4.42V817h5.21l5.52,18.41h.09V817h4.42Z"/><path class="cls-49" d="M1022.59,821.37h-8.48v8.74H1021v4.32h-6.84v9.19h8.48v4.32h-13.16V817h13.16Z"/><path class="cls-49" d="M1039.16,818.69a7.93,7.93,0,0,1,2,5.72v16.16a7.93,7.93,0,0,1-2,5.72,8.39,8.39,0,0,1-11.08,0,7.93,7.93,0,0,1-2-5.72V824.41a7.93,7.93,0,0,1,2-5.72,8.39,8.39,0,0,1,11.08,0Zm-7.68,3.14a4.14,4.14,0,0,0-.73,2.63v16.07a4.13,4.13,0,0,0,.73,2.62,3,3,0,0,0,4.28,0,4.07,4.07,0,0,0,.73-2.62V824.46a4.08,4.08,0,0,0-.73-2.63,3,3,0,0,0-4.28,0Z"/><path class="cls-49" d="M1056.54,818.41a6.94,6.94,0,0,1,1.81,5.12v.79l-4.51.44v-1.14a2.85,2.85,0,0,0-.62-2,2.6,2.6,0,0,0-3.53,0,2.9,2.9,0,0,0-.62,2V824a5.12,5.12,0,0,0,.84,2.76A15.44,15.44,0,0,0,1053,830a21.37,21.37,0,0,1,4.55,4.94,9.48,9.48,0,0,1,1.33,4.95v1.54a6.77,6.77,0,0,1-1.88,5.12,8.86,8.86,0,0,1-10.73,0,6.77,6.77,0,0,1-1.88-5.12v-2.07l4.51-.44v2.2c0,2,.88,2.92,2.65,2.92s2.65-1,2.65-2.92v-1a5.12,5.12,0,0,0-.89-2.85,17.2,17.2,0,0,0-3.18-3.29,20.41,20.41,0,0,1-4.46-4.88,9.55,9.55,0,0,1-1.28-4.92v-.66a7.33,7.33,0,0,1,12.15-5.12Z"/><path class="cls-49" d="M1071.77,850.15H1068l11.13-35.32h3.79Z"/><path class="cls-49" d="M1114.46,847.94h-4.68V826.49h-.09l-3.88,17H1103l-3.88-17h-.09v21.45h-4.41V817h6.13l3.67,16.6h.08l3.63-16.6h6.31Z"/><path class="cls-49" d="M1132.65,821.37h-8.48v8.74H1131v4.32h-6.84v9.19h8.48v4.32h-13.16V817h13.16Z"/><path class="cls-49" d="M1147.22,818.41a6.94,6.94,0,0,1,1.81,5.12v.79l-4.51.44v-1.14a2.89,2.89,0,0,0-.61-2,2.62,2.62,0,0,0-3.54,0,2.89,2.89,0,0,0-.61,2V824a5.12,5.12,0,0,0,.84,2.76,14.93,14.93,0,0,0,3.09,3.25,21.52,21.52,0,0,1,4.54,4.94,9.39,9.39,0,0,1,1.33,4.95v1.54a6.77,6.77,0,0,1-1.88,5.12,8.86,8.86,0,0,1-10.73,0,6.77,6.77,0,0,1-1.87-5.12v-2.07l4.5-.44v2.2c0,2,.88,2.92,2.65,2.92s2.65-1,2.65-2.92v-1a5.12,5.12,0,0,0-.89-2.85,16.78,16.78,0,0,0-3.17-3.29,20.2,20.2,0,0,1-4.46-4.88,9.45,9.45,0,0,1-1.28-4.92v-.66a6.31,6.31,0,0,1,7-6.93A7,7,0,0,1,1147.22,818.41Z"/><path class="cls-49" d="M1167.39,847.94h-4.77l-1-7h-5.17l-1,7h-4.68l5.34-30.9h6ZM1159,823.66l-1.9,13H1161l-1.9-13Z"/><path class="cls-49" d="M1181.43,818.41a6.9,6.9,0,0,1,1.81,5.12v.79l-4.5.44v-1.14a2.9,2.9,0,0,0-.62-2,2.6,2.6,0,0,0-3.53,0,2.9,2.9,0,0,0-.62,2V824a5.12,5.12,0,0,0,.84,2.76,15.44,15.44,0,0,0,3.09,3.25,21.6,21.6,0,0,1,4.55,4.94,9.48,9.48,0,0,1,1.32,4.95v1.54a6.77,6.77,0,0,1-1.87,5.12,8.86,8.86,0,0,1-10.73,0,6.77,6.77,0,0,1-1.88-5.12v-2.07l4.5-.44v2.2c0,2,.89,2.92,2.65,2.92s2.65-1,2.65-2.92v-1a5.11,5.11,0,0,0-.88-2.85A17.2,17.2,0,0,0,1175,834a20.2,20.2,0,0,1-4.46-4.88,9.55,9.55,0,0,1-1.28-4.92v-.66a6.9,6.9,0,0,1,1.81-5.12,8.27,8.27,0,0,1,10.33,0Z"/><path class="cls-49" d="M1207,819.05a7.92,7.92,0,0,1,2,5.8v15.28a7.9,7.9,0,0,1-2,5.8,7.79,7.79,0,0,1-5.79,2h-6.71V817h6.71A7.79,7.79,0,0,1,1207,819.05Zm-7.82,2.32v22.25h1.86a3.07,3.07,0,0,0,2.47-.93,4.33,4.33,0,0,0,.79-2.87V825.16a4.35,4.35,0,0,0-.79-2.87,3.07,3.07,0,0,0-2.47-.92Z"/><path class="cls-49" d="M1226.73,821.37h-8.48v8.74h6.85v4.32h-6.85v9.19h8.48v4.32h-13.16V817h13.16Z"/><path class="cls-49" d="M1249.64,847.94l-3.71-13.07h-2.16v13.07h-4.68V817h6.75a7.79,7.79,0,0,1,5.79,2,7.92,7.92,0,0,1,2,5.8v2.21c0,3.27-1.11,5.53-3.32,6.8l4.29,14.08Zm-5.87-26.57v9.18h1.9a3.07,3.07,0,0,0,2.47-.93,4.33,4.33,0,0,0,.79-2.87v-1.59a4.35,4.35,0,0,0-.79-2.87,3.07,3.07,0,0,0-2.47-.92Z"/><path class="cls-49" d="M1270.55,818.69a7.93,7.93,0,0,1,2,5.72v16.16a7.93,7.93,0,0,1-2,5.72,8.4,8.4,0,0,1-11.09,0,8,8,0,0,1-2-5.72V824.41a8,8,0,0,1,2-5.72,8.4,8.4,0,0,1,11.09,0Zm-7.69,3.14a4.14,4.14,0,0,0-.72,2.63v16.07a4.13,4.13,0,0,0,.72,2.62,3,3,0,0,0,4.29,0,4.13,4.13,0,0,0,.73-2.62V824.46a4.14,4.14,0,0,0-.73-2.63,3,3,0,0,0-4.29,0Z"/><path class="cls-49" d="M1281.78,843.53h7.82v4.41h-12.5V817h4.68Z"/><path class="cls-49" d="M1001.16,893.59h-4.68V872.14h-.08l-3.89,17h-2.78l-3.89-17h-.09v21.45h-4.41v-30.9h6.14l3.66,16.6h.09l3.62-16.6h6.31Z"/><path class="cls-49" d="M1019.35,867h-8.47v8.75h6.84v4.32h-6.84v9.19h8.47v4.32H1006.2v-30.9h13.15Z"/><path class="cls-49" d="M1033.92,864.06a6.9,6.9,0,0,1,1.81,5.12V870l-4.5.44v-1.14a2.9,2.9,0,0,0-.62-2,2.6,2.6,0,0,0-3.53,0,2.9,2.9,0,0,0-.62,2v.39a5.12,5.12,0,0,0,.84,2.76,15.44,15.44,0,0,0,3.09,3.25,21.6,21.6,0,0,1,4.55,4.94,9.45,9.45,0,0,1,1.32,4.95v1.54a6.77,6.77,0,0,1-1.87,5.12,8.86,8.86,0,0,1-10.73,0,6.77,6.77,0,0,1-1.88-5.12V885l4.5-.44v2.2c0,2,.89,2.92,2.65,2.92s2.65-1,2.65-2.92v-1a5.11,5.11,0,0,0-.88-2.85,17.2,17.2,0,0,0-3.18-3.29,20.2,20.2,0,0,1-4.46-4.88,9.55,9.55,0,0,1-1.28-4.92v-.66a6.9,6.9,0,0,1,1.81-5.12,8.27,8.27,0,0,1,10.33,0Z"/><path class="cls-49" d="M1054.1,893.59h-4.77l-1-7h-5.16l-1,7h-4.68l5.35-30.9h6Zm-8.44-24.28-1.89,13h3.93l-1.9-13Z"/><path class="cls-49" d="M1068.14,864.06a6.94,6.94,0,0,1,1.81,5.12V870l-4.51.44v-1.14a2.89,2.89,0,0,0-.61-2,2.28,2.28,0,0,0-1.77-.69,2.25,2.25,0,0,0-1.77.69,2.89,2.89,0,0,0-.61,2v.39a5.1,5.1,0,0,0,.83,2.76,15.44,15.44,0,0,0,3.09,3.25,21.37,21.37,0,0,1,4.55,4.94,9.46,9.46,0,0,1,1.33,4.95v1.54a6.77,6.77,0,0,1-1.88,5.12,8.86,8.86,0,0,1-10.73,0,6.77,6.77,0,0,1-1.87-5.12V885l4.5-.44v2.2c0,2,.88,2.92,2.65,2.92s2.65-1,2.65-2.92v-1a5.12,5.12,0,0,0-.89-2.85,16.89,16.89,0,0,0-3.18-3.29,20.34,20.34,0,0,1-4.45-4.88,9.45,9.45,0,0,1-1.28-4.92v-.66a6.31,6.31,0,0,1,7-6.93A7,7,0,0,1,1068.14,864.06Z"/><path class="cls-49" d="M1093.74,864.7a7.88,7.88,0,0,1,2,5.8v15.28a7.86,7.86,0,0,1-2,5.8,7.77,7.77,0,0,1-5.78,2h-6.71v-30.9H1088A7.77,7.77,0,0,1,1093.74,864.7Zm-7.81,2.31v22.26h1.85a3.07,3.07,0,0,0,2.47-.93,4.35,4.35,0,0,0,.8-2.87V870.81a4.35,4.35,0,0,0-.8-2.87,3.07,3.07,0,0,0-2.47-.93Z"/><path class="cls-49" d="M1113.43,867H1105v8.75h6.84v4.32H1105v9.19h8.47v4.32h-13.15v-30.9h13.15Z"/><path class="cls-49" d="M1137.76,867.1h-5v26.49h-4.68V867.1h-5v-4.41h14.66Z"/><path class="cls-49" d="M1152.7,864.21a7.47,7.47,0,0,1,1.92,5.45v2.79l-4.5.22v-2.52c0-2.38-.88-3.58-2.65-3.58a2.44,2.44,0,0,0-2,.8,3.48,3.48,0,0,0-.69,2.34v16.86a3.48,3.48,0,0,0,.69,2.34,2.44,2.44,0,0,0,2,.8q2.65,0,2.65-3.58v-3.44l4.5.22v3.71a7.47,7.47,0,0,1-1.92,5.45,7.15,7.15,0,0,1-5.36,2,7.05,7.05,0,0,1-5.3-1.94,7.52,7.52,0,0,1-1.9-5.47v-17a7.52,7.52,0,0,1,1.9-5.47,7.05,7.05,0,0,1,5.3-1.94A7.15,7.15,0,0,1,1152.7,864.21Z"/><path class="cls-49" d="M1170.92,864.19a7.41,7.41,0,0,1,1.94,5.47v2.12l-4.51.22v-1.85c0-2.38-.91-3.58-2.73-3.58a2.57,2.57,0,0,0-2.06.8,3.53,3.53,0,0,0-.68,2.34v16.86c0,2.09.9,3.14,2.69,3.14a2.4,2.4,0,0,0,2-.86,4.42,4.42,0,0,0,.67-2.72v-5.3h-2.65v-4.32h7.24v10.11a6.74,6.74,0,0,1-7.38,7.41,7.15,7.15,0,0,1-5.38-1.94,7.47,7.47,0,0,1-1.9-5.47v-17a7.47,7.47,0,0,1,1.9-5.47,7.15,7.15,0,0,1,5.38-1.94A7.34,7.34,0,0,1,1170.92,864.19Z"/><path class="cls-49" d="M1179.39,895.8h-3.8l11.13-35.32h3.8Z"/><path class="cls-49" d="M1198.55,889.18h7.82v4.41h-12.5v-30.9h4.68Z"/><path class="cls-49" d="M1221.36,864.21a7.47,7.47,0,0,1,1.92,5.45v2.79l-4.51.22v-2.52c0-2.38-.88-3.58-2.65-3.58a2.45,2.45,0,0,0-2,.8,3.48,3.48,0,0,0-.68,2.34v16.86a3.48,3.48,0,0,0,.68,2.34,2.45,2.45,0,0,0,2,.8q2.66,0,2.65-3.58v-3.44l4.51.22v3.71a7.47,7.47,0,0,1-1.92,5.45,7.16,7.16,0,0,1-5.37,2,7.05,7.05,0,0,1-5.3-1.94,7.51,7.51,0,0,1-1.89-5.47v-17a7.51,7.51,0,0,1,1.89-5.47,7.05,7.05,0,0,1,5.3-1.94A7.16,7.16,0,0,1,1221.36,864.21Z"/><path class="cls-49" d="M1239.57,864.19a7.41,7.41,0,0,1,1.94,5.47v2.12l-4.5.22v-1.85c0-2.38-.92-3.58-2.74-3.58a2.55,2.55,0,0,0-2,.8,3.48,3.48,0,0,0-.69,2.34v16.86c0,2.09.9,3.14,2.7,3.14a2.42,2.42,0,0,0,2-.86,4.5,4.5,0,0,0,.66-2.72v-5.3h-2.65v-4.32h7.24v10.11a7.41,7.41,0,0,1-1.94,5.47,7.33,7.33,0,0,1-5.43,1.94,7.18,7.18,0,0,1-5.39-1.94,7.47,7.47,0,0,1-1.9-5.47v-17a7.47,7.47,0,0,1,1.9-5.47,7.18,7.18,0,0,1,5.39-1.94A7.33,7.33,0,0,1,1239.57,864.19Z"/><path class="cls-49" d="M927.39,939.24h-4.77l-1-7h-5.17l-1,7h-4.68l5.35-30.9h6ZM919,915l-1.9,13H921l-1.9-13Z"/><path class="cls-49" d="M942.6,909.86a7.47,7.47,0,0,1,1.92,5.45v2.79l-4.5.22V915.8c0-2.38-.89-3.58-2.65-3.58a2.46,2.46,0,0,0-2,.8,3.48,3.48,0,0,0-.68,2.34v16.86a3.48,3.48,0,0,0,.68,2.34,2.46,2.46,0,0,0,2,.8c1.76,0,2.65-1.19,2.65-3.58v-3.44l4.5.22v3.71a7.47,7.47,0,0,1-1.92,5.45,7.17,7.17,0,0,1-5.37,2,7,7,0,0,1-5.29-2,7.47,7.47,0,0,1-1.9-5.47v-17a7.49,7.49,0,0,1,1.9-5.47,7.07,7.07,0,0,1,5.29-1.94A7.16,7.16,0,0,1,942.6,909.86Z"/><path class="cls-49" d="M961.12,912.75h-5v26.49h-4.68V912.75h-5v-4.41h14.66Z"/><path class="cls-49" d="M968.8,939.24h-4.68v-30.9h4.68Z"/><path class="cls-49" d="M983.41,939.24h-6l-5.21-30.9h4.76l3.49,23.57h.09l3.44-23.57h4.68Z"/><path class="cls-49" d="M996.66,939.24H992v-30.9h4.68Z"/><path class="cls-49" d="M1014.19,910.35a7.92,7.92,0,0,1,2,5.8v15.28a7.9,7.9,0,0,1-2,5.8,7.77,7.77,0,0,1-5.79,2h-6.71v-30.9h6.71A7.81,7.81,0,0,1,1014.19,910.35Zm-7.82,2.32v22.25h1.86a3.08,3.08,0,0,0,2.47-.93,4.33,4.33,0,0,0,.79-2.87V916.46a4.35,4.35,0,0,0-.79-2.87,3.11,3.11,0,0,0-2.47-.92Z"/><path class="cls-49" d="M1035.47,939.24h-4.77l-1-7h-5.16l-1,7h-4.68l5.34-30.9h6ZM1027,915l-1.9,13h3.93l-1.89-13Z"/><path class="cls-49" d="M1051.32,910.35a7.92,7.92,0,0,1,2,5.8v15.28a7.9,7.9,0,0,1-2,5.8,7.77,7.77,0,0,1-5.79,2h-6.71v-30.9h6.71A7.81,7.81,0,0,1,1051.32,910.35Zm-7.82,2.32v22.25h1.86a3.08,3.08,0,0,0,2.47-.93,4.33,4.33,0,0,0,.79-2.87V916.46a4.35,4.35,0,0,0-.79-2.87,3.11,3.11,0,0,0-2.47-.92Z"/><path class="cls-49" d="M1071,912.67h-8.48v8.74h6.84v4.32h-6.84v9.19H1071v4.32h-13.16v-30.9H1071Z"/><path class="cls-49" d="M1085.58,909.71a6.94,6.94,0,0,1,1.81,5.12v.79l-4.51.44v-1.14a2.85,2.85,0,0,0-.62-2,2.6,2.6,0,0,0-3.53,0,2.9,2.9,0,0,0-.62,2v.39a5.12,5.12,0,0,0,.84,2.76,15.44,15.44,0,0,0,3.09,3.25,21.37,21.37,0,0,1,4.55,4.94,9.48,9.48,0,0,1,1.33,5v1.54a6.77,6.77,0,0,1-1.88,5.12,8.82,8.82,0,0,1-10.73,0,6.77,6.77,0,0,1-1.88-5.12v-2.07l4.51-.44v2.2c0,1.95.88,2.92,2.65,2.92s2.65-1,2.65-2.92v-1a5.12,5.12,0,0,0-.89-2.85,17.2,17.2,0,0,0-3.18-3.29,20.41,20.41,0,0,1-4.46-4.88,9.55,9.55,0,0,1-1.28-4.92v-.66a7.33,7.33,0,0,1,12.15-5.12Z"/><path class="cls-49" d="M1111.23,910.35a7.92,7.92,0,0,1,2,5.8v2.48a7.92,7.92,0,0,1-2,5.8,7.81,7.81,0,0,1-5.79,2h-2.07v12.8h-4.68v-30.9h6.75A7.81,7.81,0,0,1,1111.23,910.35Zm-7.86,2.32v9.44h1.9a3.11,3.11,0,0,0,2.47-.92,4.35,4.35,0,0,0,.79-2.87v-1.86a4.35,4.35,0,0,0-.79-2.87,3.11,3.11,0,0,0-2.47-.92Z"/><path class="cls-49" d="M1130.21,939.24h-4.77l-1-7h-5.17l-1,7h-4.68l5.34-30.9h6ZM1121.78,915l-1.9,13h3.93l-1.9-13Z"/><path class="cls-49" d="M1144.12,939.24l-3.71-13.06h-2.16v13.06h-4.68v-30.9h6.75a7.77,7.77,0,0,1,5.78,2,7.88,7.88,0,0,1,2,5.8v2.21q0,4.9-3.31,6.8l4.28,14.08Zm-5.87-26.57v9.18h1.89a3.09,3.09,0,0,0,2.48-.93,4.33,4.33,0,0,0,.79-2.87v-1.59a4.35,4.35,0,0,0-.79-2.87,3.12,3.12,0,0,0-2.48-.92Z"/><path class="cls-49" d="M1167.43,939.24h-4.77l-1-7h-5.16l-1,7h-4.68l5.35-30.9h6ZM1159,915l-1.9,13H1161l-1.9-13Z"/><path class="cls-49" d="M1190.28,909.91a7.75,7.75,0,0,1,1.92,5.58v1.77c0,2.94-1.14,4.87-3.4,5.78v.09q3.71,1.5,3.7,6.62v2.34a7.65,7.65,0,0,1-2,5.59,7.4,7.4,0,0,1-5.54,2,7.53,7.53,0,0,1-5.54-2,7.34,7.34,0,0,1-2-5.47v-1.9l4.51-.22v1.54a4.47,4.47,0,0,0,.7,2.79,3.09,3.09,0,0,0,4.37-.05,4.12,4.12,0,0,0,.75-2.65V929.4a4.65,4.65,0,0,0-.81-3,3.25,3.25,0,0,0-2.58-.94h-2V921.1h2a2.85,2.85,0,0,0,2.36-.91,4.54,4.54,0,0,0,.73-2.84v-1.68a4,4,0,0,0-.71-2.56,2.5,2.5,0,0,0-2.08-.89,2.37,2.37,0,0,0-2,.89,4.66,4.66,0,0,0-.66,2.78v1.54l-4.5-.22v-1.9a7.46,7.46,0,0,1,1.92-5.47,7.28,7.28,0,0,1,5.41-1.94A7.15,7.15,0,0,1,1190.28,909.91Z"/><path class="cls-49" d="M1206.94,939.24l-3.71-13.06h-2.16v13.06h-4.68v-30.9h6.75a7.79,7.79,0,0,1,5.79,2,7.92,7.92,0,0,1,2,5.8v2.21q0,4.9-3.32,6.8l4.29,14.08Zm-5.87-26.57v9.18h1.9a3.07,3.07,0,0,0,2.47-.93,4.33,4.33,0,0,0,.8-2.87v-1.59a4.35,4.35,0,0,0-.8-2.87,3.1,3.1,0,0,0-2.47-.92Z"/><path class="cls-49" d="M1230.25,939.24h-4.77l-1-7h-5.17l-1,7h-4.68l5.34-30.9h6ZM1221.82,915l-1.9,13h3.93l-1.9-13Z"/><path class="cls-49" d="M1254.71,912.67h-8.48v8.74h6.85v4.32h-6.85v9.19h8.48v4.32h-13.16v-30.9h13.16Z"/><path class="cls-49" d="M1271.18,910.35a7.92,7.92,0,0,1,2,5.8v15.28a7.9,7.9,0,0,1-2,5.8,7.75,7.75,0,0,1-5.79,2h-6.71v-30.9h6.71A7.79,7.79,0,0,1,1271.18,910.35Zm-7.82,2.32v22.25h1.86a3.07,3.07,0,0,0,2.47-.93,4.33,4.33,0,0,0,.8-2.87V916.46a4.35,4.35,0,0,0-.8-2.87,3.1,3.1,0,0,0-2.47-.92Z"/><path class="cls-49" d="M1292.46,939.24h-4.77l-1-7h-5.17l-1,7h-4.68l5.35-30.9h6ZM1284,915l-1.9,13h3.93l-1.9-13Z"/><path class="cls-49" d="M1308.31,910.35a7.92,7.92,0,0,1,2,5.8v15.28a7.91,7.91,0,0,1-2,5.8,7.75,7.75,0,0,1-5.79,2h-6.71v-30.9h6.71A7.79,7.79,0,0,1,1308.31,910.35Zm-7.82,2.32v22.25h1.86a3.07,3.07,0,0,0,2.47-.93,4.33,4.33,0,0,0,.8-2.87V916.46a4.35,4.35,0,0,0-.8-2.87,3.1,3.1,0,0,0-2.47-.92Z"/><path class="cls-49" d="M942.55,956a7.88,7.88,0,0,1,2,5.8v2.48a7.88,7.88,0,0,1-2,5.8,7.77,7.77,0,0,1-5.78,2H934.7v12.8H930V954h6.75A7.77,7.77,0,0,1,942.55,956Zm-7.85,2.32v9.44h1.89a3.12,3.12,0,0,0,2.48-.92,4.35,4.35,0,0,0,.79-2.87v-1.86a4.35,4.35,0,0,0-.79-2.87,3.09,3.09,0,0,0-2.48-.92Z"/><path class="cls-49" d="M958.54,984.89l-3.71-13.06h-2.17v13.06H948V954h6.76a7.77,7.77,0,0,1,5.78,2,7.88,7.88,0,0,1,2,5.8V964c0,3.27-1.1,5.53-3.31,6.8l4.28,14.08Zm-5.88-26.57v9.18h1.9a3.09,3.09,0,0,0,2.48-.93,4.33,4.33,0,0,0,.79-2.87v-1.59a4.35,4.35,0,0,0-.79-2.87,3.09,3.09,0,0,0-2.48-.92Z"/><path class="cls-49" d="M979.44,955.64a7.93,7.93,0,0,1,2,5.72v16.16a7.93,7.93,0,0,1-2,5.72,8.36,8.36,0,0,1-11.08,0,7.93,7.93,0,0,1-2-5.72V961.36a7.93,7.93,0,0,1,2-5.72,8.39,8.39,0,0,1,11.08,0Zm-7.68,3.14a4.08,4.08,0,0,0-.73,2.63v16.07a4.07,4.07,0,0,0,.73,2.62,3,3,0,0,0,4.28,0,4.07,4.07,0,0,0,.73-2.62V961.41a4.08,4.08,0,0,0-.73-2.63,3,3,0,0,0-4.28,0Z"/><path class="cls-49" d="M998.54,956a7.92,7.92,0,0,1,2,5.8v2.48a7.92,7.92,0,0,1-2,5.8,7.81,7.81,0,0,1-5.79,2h-2.07v12.8H986V954h6.75A7.81,7.81,0,0,1,998.54,956Zm-7.86,2.32v9.44h1.9a3.11,3.11,0,0,0,2.47-.92,4.35,4.35,0,0,0,.79-2.87v-1.86a4.35,4.35,0,0,0-.79-2.87,3.08,3.08,0,0,0-2.47-.92Z"/><path class="cls-49" d="M1018.27,978a6.65,6.65,0,0,1-7.28,7.38,7.21,7.21,0,0,1-5.28-1.9,7.37,7.37,0,0,1-1.92-5.48V954h4.5v23.84c0,2.06.89,3.09,2.65,3.09s2.65-1,2.65-3.09V954h4.68Z"/><path class="cls-49" d="M1036.2,958.32h-8.48v8.74h6.84v4.32h-6.84v9.19h8.48v4.32H1023V954h13.16Z"/><path class="cls-49" d="M1050.76,955.36a6.9,6.9,0,0,1,1.81,5.12v.79l-4.5.45v-1.15a2.85,2.85,0,0,0-.62-2,2.6,2.6,0,0,0-3.53,0,2.9,2.9,0,0,0-.62,2V961a5.12,5.12,0,0,0,.84,2.76,15.44,15.44,0,0,0,3.09,3.25,21.37,21.37,0,0,1,4.55,4.94,9.48,9.48,0,0,1,1.32,5v1.54a6.81,6.81,0,0,1-1.87,5.13,8.86,8.86,0,0,1-10.73,0,6.81,6.81,0,0,1-1.88-5.13v-2.07l4.51-.44v2.2c0,1.95.88,2.92,2.65,2.92s2.64-1,2.64-2.92v-1a5.11,5.11,0,0,0-.88-2.85,17.2,17.2,0,0,0-3.18-3.29,20.41,20.41,0,0,1-4.46-4.88,9.55,9.55,0,0,1-1.28-4.92v-.66a7.32,7.32,0,0,1,12.14-5.12Z"/><path class="cls-49" d="M1068.51,958.4h-5v26.49h-4.68V958.4h-5V954h14.66Z"/><path class="cls-49" d="M1084.94,984.89h-4.77l-1-7H1074l-1,7h-4.68l5.34-30.9h6Zm-8.44-24.28-1.9,13h3.93l-1.89-13Z"/><path class="cls-49" d="M1099,955.36a6.9,6.9,0,0,1,1.82,5.12v.79l-4.51.45v-1.15a2.85,2.85,0,0,0-.62-2,2.6,2.6,0,0,0-3.53,0,2.9,2.9,0,0,0-.62,2V961a5.12,5.12,0,0,0,.84,2.76,15.44,15.44,0,0,0,3.09,3.25,21.37,21.37,0,0,1,4.55,4.94,9.48,9.48,0,0,1,1.32,5v1.54a6.81,6.81,0,0,1-1.87,5.13,8.86,8.86,0,0,1-10.73,0,6.81,6.81,0,0,1-1.88-5.13v-2.07l4.51-.44v2.2c0,1.95.88,2.92,2.65,2.92s2.65-1,2.65-2.92v-1a5.12,5.12,0,0,0-.89-2.85,17.2,17.2,0,0,0-3.18-3.29,20.41,20.41,0,0,1-4.46-4.88,9.55,9.55,0,0,1-1.28-4.92v-.66a7.32,7.32,0,0,1,12.14-5.12Z"/><path class="cls-49" d="M1124.58,956a7.88,7.88,0,0,1,2,5.8v15.28a7.91,7.91,0,0,1-2,5.81,7.8,7.8,0,0,1-5.78,2h-6.71V954h6.71A7.77,7.77,0,0,1,1124.58,956Zm-7.81,2.32v22.25h1.85a3.07,3.07,0,0,0,2.47-.93,4.33,4.33,0,0,0,.8-2.87V962.11a4.35,4.35,0,0,0-.8-2.87,3.07,3.07,0,0,0-2.47-.92Z"/><path class="cls-49" d="M1144.27,958.32h-8.47v8.74h6.84v4.32h-6.84v9.19h8.47v4.32h-13.15V954h13.15Z"/><path class="cls-49" d="M1174.25,984.89h-4.77l-2.65-18.41h-.09l-2.69,18.41h-4.77l-4.77-30.9h4.82l2.69,20.48h.09l2.65-20.48h4.15l2.65,20.48h.08l2.7-20.48H1179Z"/><path class="cls-49" d="M1196.28,984.89h-4.77l-1-7h-5.17l-1,7h-4.68L1185,954h6Zm-8.43-24.28-1.9,13h3.93l-1.9-13Z"/><path class="cls-49" d="M1210.19,984.89l-3.71-13.06h-2.17v13.06h-4.68V954h6.76a7.77,7.77,0,0,1,5.78,2,7.88,7.88,0,0,1,2,5.8V964c0,3.27-1.1,5.53-3.31,6.8l4.28,14.08Zm-5.88-26.57v9.18h1.9a3.09,3.09,0,0,0,2.48-.93,4.33,4.33,0,0,0,.79-2.87v-1.59a4.35,4.35,0,0,0-.79-2.87,3.09,3.09,0,0,0-2.48-.92Z"/><path class="cls-49" d="M1230.72,955.49a7.43,7.43,0,0,1,1.94,5.47v2.12l-4.5.22v-1.85c0-2.38-.92-3.58-2.74-3.58a2.59,2.59,0,0,0-2.06.8,3.53,3.53,0,0,0-.68,2.34v16.86c0,2.09.9,3.14,2.69,3.14a2.43,2.43,0,0,0,2-.86,4.5,4.5,0,0,0,.66-2.72v-5.3h-2.65v-4.32h7.24v10.11a6.76,6.76,0,0,1-7.37,7.42,7.17,7.17,0,0,1-5.39-2,7.47,7.47,0,0,1-1.9-5.47V961a7.49,7.49,0,0,1,1.9-5.47,7.2,7.2,0,0,1,5.39-1.94A7.38,7.38,0,0,1,1230.72,955.49Z"/><path class="cls-49" d="M1251.91,984.89h-4.77l-1-7H1241l-1,7h-4.68l5.35-30.9h6Zm-8.43-24.28-1.9,13h3.93l-1.9-13Z"/><path class="cls-49" d="M1275.09,984.89h-4.68V963.44h-.09l-3.89,17h-2.78l-3.88-17h-.09v21.45h-4.42V954h6.14l3.67,16.6h.08l3.62-16.6h6.32Z"/><path class="cls-49" d="M1293.28,958.32h-8.48v8.74h6.84v4.32h-6.84v9.19h8.48v4.32h-13.16V954h13.16Z"/><path class="cls-49" d="M963.22,1026.13H971v4.41H958.54v-30.9h4.68Z"/><path class="cls-49" d="M986.55,1001.3a7.89,7.89,0,0,1,2,5.71v16.16a7.92,7.92,0,0,1-2,5.72,8.36,8.36,0,0,1-11.08,0,7.92,7.92,0,0,1-2-5.72V1007a7.89,7.89,0,0,1,2-5.71,8.36,8.36,0,0,1,11.08,0Zm-7.68,3.13a4.08,4.08,0,0,0-.73,2.63v16.07a4.05,4.05,0,0,0,.73,2.62,3,3,0,0,0,4.28,0,4.05,4.05,0,0,0,.73-2.62v-16.07a4.08,4.08,0,0,0-.73-2.63,3,3,0,0,0-4.28,0Z"/><path class="cls-49" d="M1014.1,1001.3a7.89,7.89,0,0,1,2,5.71v16.16a8.55,8.55,0,0,1-1.28,4.81,3.16,3.16,0,0,0,2.38.75l-.44,4.33c-2.41,0-4.14-.85-5.17-2.56a9.1,9.1,0,0,1-3,.49,7.3,7.3,0,0,1-5.54-2.1,7.92,7.92,0,0,1-2-5.72V1007a7.89,7.89,0,0,1,2-5.71,8.36,8.36,0,0,1,11.08,0Zm-7.68,3.13a4.08,4.08,0,0,0-.73,2.63v16.07a4.05,4.05,0,0,0,.73,2.62,3,3,0,0,0,4.28,0,4.05,4.05,0,0,0,.73-2.62v-16.07a4.08,4.08,0,0,0-.73-2.63,3,3,0,0,0-4.28,0Z"/><path class="cls-49" d="M1034.87,1023.61a6.65,6.65,0,0,1-7.28,7.38,7.21,7.21,0,0,1-5.28-1.9,7.37,7.37,0,0,1-1.92-5.48v-24h4.5v23.84c0,2.06.89,3.09,2.65,3.09s2.65-1,2.65-3.09V999.64h4.68Z"/><path class="cls-49" d="M1052.8,1004h-8.48v8.74h6.84V1017h-6.84v9.19h8.48v4.32h-13.16v-30.9h13.16Z"/><path class="cls-49" d="M1075.36,1001a7,7,0,0,1,1.81,5.12v.79l-4.51.45v-1.15a2.88,2.88,0,0,0-.62-2,2.6,2.6,0,0,0-3.53,0,2.93,2.93,0,0,0-.62,2v.4a5.11,5.11,0,0,0,.84,2.75,15.44,15.44,0,0,0,3.09,3.25,21.37,21.37,0,0,1,4.55,4.94,9.48,9.48,0,0,1,1.33,5v1.54a6.81,6.81,0,0,1-1.88,5.13,8.86,8.86,0,0,1-10.73,0,6.81,6.81,0,0,1-1.88-5.13V1022l4.51-.44v2.21c0,1.94.88,2.91,2.65,2.91s2.65-1,2.65-2.91v-1a5.12,5.12,0,0,0-.89-2.85,17.5,17.5,0,0,0-3.18-3.29,20.41,20.41,0,0,1-4.46-4.88,9.55,9.55,0,0,1-1.28-4.92v-.66a7.33,7.33,0,0,1,12.15-5.12Z"/><path class="cls-49" d="M1093.68,1004h-8.48v8.74H1092V1017h-6.84v9.19h8.48v4.32h-13.16v-30.9h13.16Z"/><path class="cls-49" d="M1118,1004.05h-5v26.49h-4.68v-26.49h-5v-4.41H1118Z"/><path class="cls-49" d="M1134.16,1004h-8.48v8.74h6.85V1017h-6.85v9.19h8.48v4.32H1121v-30.9h13.16Z"/><path class="cls-49" d="M1159.13,1001.3a7.89,7.89,0,0,1,2,5.71v16.16a7.92,7.92,0,0,1-2,5.72,8.36,8.36,0,0,1-11.08,0,7.92,7.92,0,0,1-2-5.72V1007a7.89,7.89,0,0,1,2-5.71,8.36,8.36,0,0,1,11.08,0Zm-7.69,3.13a4.14,4.14,0,0,0-.72,2.63v16.07a4.11,4.11,0,0,0,.72,2.62,3,3,0,0,0,4.29,0,4.11,4.11,0,0,0,.73-2.62v-16.07a4.14,4.14,0,0,0-.73-2.63,3,3,0,0,0-4.29,0Z"/><path class="cls-49" d="M1177.76,1001.16a7.48,7.48,0,0,1,1.92,5.46v2.78l-4.51.22v-2.52c0-2.38-.88-3.58-2.64-3.58a2.46,2.46,0,0,0-2,.8,3.48,3.48,0,0,0-.68,2.34v16.86a3.46,3.46,0,0,0,.68,2.34,2.46,2.46,0,0,0,2,.8q2.64,0,2.64-3.58v-3.44l4.51.22v3.71a7.47,7.47,0,0,1-1.92,5.45,7.17,7.17,0,0,1-5.37,2,7.07,7.07,0,0,1-5.3-2,7.51,7.51,0,0,1-1.89-5.47v-17a7.54,7.54,0,0,1,1.89-5.48,8.27,8.27,0,0,1,10.67,0Z"/><path class="cls-49" d="M1197.87,1023.61a6.65,6.65,0,0,1-7.29,7.38,7.2,7.2,0,0,1-5.27-1.9,7.37,7.37,0,0,1-1.92-5.48v-24h4.5v23.84c0,2.06.88,3.09,2.65,3.09s2.65-1,2.65-3.09V999.64h4.68Z"/><path class="cls-49" d="M1213.19,1030.54l-3.71-13.06h-2.16v13.06h-4.68v-30.9h6.75a7.77,7.77,0,0,1,5.78,2,7.88,7.88,0,0,1,2,5.8v2.21q0,4.9-3.31,6.8l4.28,14.08Zm-5.87-26.57v9.18h1.89a3.09,3.09,0,0,0,2.48-.93,4.33,4.33,0,0,0,.79-2.87v-1.59a4.35,4.35,0,0,0-.79-2.87,3.12,3.12,0,0,0-2.48-.92Z"/><path class="cls-49" d="M1232.08,1030.54l-3.71-13.06h-2.16v13.06h-4.68v-30.9h6.76a7.77,7.77,0,0,1,5.78,2,7.92,7.92,0,0,1,2,5.8v2.21c0,3.27-1.11,5.54-3.31,6.8l4.28,14.08Zm-5.87-26.57v9.18h1.9a3.07,3.07,0,0,0,2.47-.93,4.33,4.33,0,0,0,.8-2.87v-1.59a4.35,4.35,0,0,0-.8-2.87,3.1,3.1,0,0,0-2.47-.92Z"/><path class="cls-49" d="M1255.39,1030.54h-4.76l-1-7h-5.17l-1,7h-4.68l5.34-30.9h6Zm-8.43-24.28-1.9,13H1249l-1.9-13Z"/><path class="cls-49" d="M1263.21,1022.86h-4l-.53-23.22h5Zm.48,7.68h-4.94v-4.94h4.94Z"/><text class="cls-50" transform="translate(813.02 247.66)">¿Quer<tspan class="cls-51" x="153.67" y="0">é</tspan><tspan class="cls-40" x="182.7" y="0">s</tspan><tspan x="208.8" y="0"> </tspan><tspan class="cls-52" x="223.05" y="0">p</tspan><tspan x="251.17" y="0">a</tspan><tspan class="cls-53" x="282.29" y="0">r</tspan><tspan x="313.79" y="0">tici</tspan><tspan class="cls-52" x="403.87" y="0">p</tspan><tspan x="431.99" y="0">a</tspan><tspan class="cls-54" x="463.12" y="0">r</tspan><tspan x="494.09" y="0" xml:space="preserve"> de</tspan><tspan class="cls-54" x="569.76" y="0">l</tspan><tspan x="98.7" y="71">12° encuent</tspan><tspan class="cls-51" x="404.02" y="71">r</tspan><tspan x="436.04" y="71">o?</tspan></text><path class="cls-55" d="M1385.2,521.58a1.9,1.9,0,0,0-1.9,1.91,7.59,7.59,0,0,1-15.17,0,11.4,11.4,0,1,0-22.79,0,7.59,7.59,0,0,1-15.17,0,11.4,11.4,0,1,0-22.79,0,7.59,7.59,0,0,1-15.17,0h0a11.4,11.4,0,0,0-22.79,0,7.59,7.59,0,0,1-15.17,0,11.4,11.4,0,1,0-22.79,0,7.59,7.59,0,0,1-15.17,0h0a11.4,11.4,0,1,0-22.79,0,7.59,7.59,0,0,1-15.17,0,11.4,11.4,0,1,0-22.79,0,7.59,7.59,0,0,1-15.17,0h0a11.4,11.4,0,1,0-22.79,0,7.59,7.59,0,0,1-15.17,0,11.4,11.4,0,1,0-22.79,0,7.58,7.58,0,1,1-15.16,0h0a11.4,11.4,0,0,0-22.79,0,7.59,7.59,0,0,1-15.17,0,11.4,11.4,0,0,0-22.79,0,7.59,7.59,0,0,1-15.17,0h0a11.4,11.4,0,0,0-22.79,0,7.59,7.59,0,0,1-15.17,0,11.4,11.4,0,0,0-22.79,0,7.59,7.59,0,0,1-15.17,0,11.4,11.4,0,0,0-22.79,0,7.59,7.59,0,0,1-15.17,0,11.4,11.4,0,0,0-22.79,0,7.59,7.59,0,0,1-15.17,0,1.91,1.91,0,1,0-3.81,0,11.4,11.4,0,1,0,22.79,0,7.59,7.59,0,0,1,15.17,0,11.4,11.4,0,1,0,22.79,0,7.59,7.59,0,0,1,15.17,0,11.4,11.4,0,1,0,22.79,0,7.59,7.59,0,0,1,15.17,0,11.4,11.4,0,1,0,22.79,0,7.59,7.59,0,0,1,15.17,0,11.4,11.4,0,1,0,22.79,0,7.59,7.59,0,0,1,15.17,0,11.4,11.4,0,1,0,22.79,0,7.59,7.59,0,0,1,15.17,0h0a11.4,11.4,0,0,0,22.79,0,7.58,7.58,0,1,1,15.16,0,11.4,11.4,0,0,0,22.79,0,7.59,7.59,0,1,1,15.17,0,11.4,11.4,0,0,0,22.79,0,7.59,7.59,0,1,1,15.17,0,11.4,11.4,0,0,0,22.79,0,7.59,7.59,0,1,1,15.17,0,11.4,11.4,0,0,0,22.79,0,7.59,7.59,0,1,1,15.17,0,11.4,11.4,0,0,0,22.79,0,7.59,7.59,0,1,1,15.17,0h0a11.4,11.4,0,0,0,22.79,0,7.59,7.59,0,1,1,15.17,0,11.4,11.4,0,0,0,22.79,0,7.59,7.59,0,1,1,15.17,0,11.4,11.4,0,0,0,22.79,0A1.9,1.9,0,0,0,1385.2,521.58Z"/></svg>